<ttFont>
    <TTGlyph name=".notdef" xMin="30" yMin="9" xMax="378" yMax="463">
      <contour>
        <pt x="30" y="63" on="1"/>
        <pt x="30" y="81" on="0"/>
        <pt x="40" y="95" on="1"/>
        <pt x="136" y="236" on="1"/>
        <pt x="40" y="377" on="1"/>
        <pt x="30" y="391" on="0"/>
        <pt x="30" y="409" on="1"/>
        <pt x="30" y="432" on="0"/>
        <pt x="68" y="463" on="0"/>
        <pt x="92" y="463" on="1"/>
        <pt x="120" y="463" on="0"/>
        <pt x="136" y="440" on="1"/>
        <pt x="204" y="325" on="1"/>
        <pt x="272" y="440" on="1"/>
        <pt x="288" y="463" on="0"/>
        <pt x="316" y="463" on="1"/>
        <pt x="340" y="463" on="0"/>
        <pt x="378" y="432" on="0"/>
        <pt x="378" y="409" on="1"/>
        <pt x="378" y="391" on="0"/>
        <pt x="368" y="377" on="1"/>
        <pt x="272" y="236" on="1"/>
        <pt x="368" y="95" on="1"/>
        <pt x="378" y="81" on="0"/>
        <pt x="378" y="63" on="1"/>
        <pt x="378" y="40" on="0"/>
        <pt x="340" y="9" on="0"/>
        <pt x="316" y="9" on="1"/>
        <pt x="288" y="9" on="0"/>
        <pt x="272" y="32" on="1"/>
        <pt x="204" y="147" on="1"/>
        <pt x="136" y="32" on="1"/>
        <pt x="120" y="9" on="0"/>
        <pt x="92" y="9" on="1"/>
        <pt x="68" y="9" on="0"/>
        <pt x="30" y="40" on="0"/>
      </contour>
    </TTGlyph>
    <TTGlyph name="A" xMin="4" yMin="0" xMax="585" yMax="737">
      <contour>
        <pt x="4" y="64" on="1"/>
        <pt x="4" y="67" on="0"/>
        <pt x="6" y="75" on="1"/>
        <pt x="192" y="685" on="1"/>
        <pt x="200" y="710" on="0"/>
        <pt x="257" y="737" on="0"/>
        <pt x="331" y="737" on="0"/>
        <pt x="388" y="710" on="0"/>
        <pt x="396" y="685" on="1"/>
        <pt x="583" y="75" on="1"/>
        <pt x="585" y="67" on="0"/>
        <pt x="585" y="64" on="1"/>
        <pt x="585" y="38" on="0"/>
        <pt x="520" y="0" on="0"/>
        <pt x="485" y="0" on="1"/>
        <pt x="442" y="0" on="0"/>
        <pt x="434" y="29" on="1"/>
        <pt x="400" y="154" on="1"/>
        <pt x="189" y="154" on="1"/>
        <pt x="155" y="29" on="1"/>
        <pt x="147" y="0" on="0"/>
        <pt x="104" y="0" on="1"/>
        <pt x="69" y="0" on="0"/>
        <pt x="4" y="38" on="0"/>
      </contour>
      <contour>
        <pt x="221" y="274" on="1"/>
        <pt x="367" y="274" on="1"/>
        <pt x="294" y="542" on="1"/>
      </contour>
    </TTGlyph>
    <TTGlyph name="AE" xMin="51" yMin="0" xMax="803" yMax="731">
      <contour>
        <pt x="51" y="53" on="1"/>
        <pt x="51" y="495" on="1"/>
        <pt x="51" y="617" on="0"/>
        <pt x="180" y="731" on="0"/>
        <pt x="287" y="731" on="1"/>
        <pt x="756" y="731" on="1"/>
        <pt x="779" y="731" on="0"/>
        <pt x="803" y="691" on="0"/>
        <pt x="803" y="664" on="1"/>
        <pt x="803" y="635" on="0"/>
        <pt x="778" y="595" on="0"/>
        <pt x="756" y="595" on="1"/>
        <pt x="530" y="595" on="1"/>
        <pt x="530" y="426" on="1"/>
        <pt x="638" y="426" on="1"/>
        <pt x="660" y="426" on="0"/>
        <pt x="685" y="390" on="0"/>
        <pt x="685" y="365" on="1"/>
        <pt x="685" y="342" on="0"/>
        <pt x="661" y="306" on="0"/>
        <pt x="638" y="306" on="1"/>
        <pt x="530" y="306" on="1"/>
        <pt x="530" y="136" on="1"/>
        <pt x="756" y="136" on="1"/>
        <pt x="778" y="136" on="0"/>
        <pt x="803" y="96" on="0"/>
        <pt x="803" y="67" on="1"/>
        <pt x="803" y="40" on="0"/>
        <pt x="779" y="0" on="0"/>
        <pt x="756" y="0" on="1"/>
        <pt x="442" y="0" on="1"/>
        <pt x="414" y="0" on="0"/>
        <pt x="374" y="25" on="0"/>
        <pt x="374" y="48" on="1"/>
        <pt x="374" y="306" on="1"/>
        <pt x="197" y="306" on="1"/>
        <pt x="197" y="53" on="1"/>
        <pt x="197" y="27" on="0"/>
        <pt x="166" y="0" on="0"/>
        <pt x="119" y="0" on="1"/>
        <pt x="51" y="0" on="0"/>
      </contour>
      <contour>
        <pt x="197" y="426" on="1"/>
        <pt x="374" y="426" on="1"/>
        <pt x="374" y="595" on="1"/>
        <pt x="287" y="595" on="1"/>
        <pt x="197" y="595" on="0"/>
        <pt x="197" y="495" on="1"/>
      </contour>
    </TTGlyph>
    <TTGlyph name="AEacute" xMin="51" yMin="0" xMax="803" yMax="955">
      <contour>
        <pt x="51" y="53" on="1"/>
        <pt x="51" y="495" on="1"/>
        <pt x="51" y="617" on="0"/>
        <pt x="180" y="731" on="0"/>
        <pt x="287" y="731" on="1"/>
        <pt x="756" y="731" on="1"/>
        <pt x="779" y="731" on="0"/>
        <pt x="803" y="691" on="0"/>
        <pt x="803" y="664" on="1"/>
        <pt x="803" y="635" on="0"/>
        <pt x="778" y="595" on="0"/>
        <pt x="756" y="595" on="1"/>
        <pt x="530" y="595" on="1"/>
        <pt x="530" y="426" on="1"/>
        <pt x="638" y="426" on="1"/>
        <pt x="660" y="426" on="0"/>
        <pt x="685" y="390" on="0"/>
        <pt x="685" y="365" on="1"/>
        <pt x="685" y="342" on="0"/>
        <pt x="661" y="306" on="0"/>
        <pt x="638" y="306" on="1"/>
        <pt x="530" y="306" on="1"/>
        <pt x="530" y="136" on="1"/>
        <pt x="756" y="136" on="1"/>
        <pt x="778" y="136" on="0"/>
        <pt x="803" y="96" on="0"/>
        <pt x="803" y="67" on="1"/>
        <pt x="803" y="40" on="0"/>
        <pt x="779" y="0" on="0"/>
        <pt x="756" y="0" on="1"/>
        <pt x="442" y="0" on="1"/>
        <pt x="414" y="0" on="0"/>
        <pt x="374" y="25" on="0"/>
        <pt x="374" y="48" on="1"/>
        <pt x="374" y="306" on="1"/>
        <pt x="197" y="306" on="1"/>
        <pt x="197" y="53" on="1"/>
        <pt x="197" y="27" on="0"/>
        <pt x="166" y="0" on="0"/>
        <pt x="119" y="0" on="1"/>
        <pt x="51" y="0" on="0"/>
      </contour>
      <contour>
        <pt x="197" y="426" on="1"/>
        <pt x="374" y="426" on="1"/>
        <pt x="374" y="595" on="1"/>
        <pt x="287" y="595" on="1"/>
        <pt x="197" y="595" on="0"/>
        <pt x="197" y="495" on="1"/>
      </contour>
      <contour>
        <pt x="388" y="852" on="1"/>
        <pt x="388" y="877" on="0"/>
        <pt x="408" y="887" on="1"/>
        <pt x="548" y="952" on="1"/>
        <pt x="556" y="955" on="0"/>
        <pt x="562" y="955" on="1"/>
        <pt x="581" y="955" on="0"/>
        <pt x="609" y="918" on="0"/>
        <pt x="609" y="897" on="1"/>
        <pt x="609" y="873" on="0"/>
        <pt x="589" y="863" on="1"/>
        <pt x="449" y="798" on="1"/>
        <pt x="439" y="794" on="0"/>
        <pt x="434" y="794" on="1"/>
        <pt x="415" y="794" on="0"/>
        <pt x="388" y="831" on="0"/>
      </contour>
    </TTGlyph>
    <TTGlyph name="Aacute" xMin="4" yMin="0" xMax="585" yMax="959">
      <contour>
        <pt x="4" y="64" on="1"/>
        <pt x="4" y="67" on="0"/>
        <pt x="6" y="75" on="1"/>
        <pt x="192" y="685" on="1"/>
        <pt x="200" y="710" on="0"/>
        <pt x="257" y="737" on="0"/>
        <pt x="331" y="737" on="0"/>
        <pt x="388" y="710" on="0"/>
        <pt x="396" y="685" on="1"/>
        <pt x="583" y="75" on="1"/>
        <pt x="585" y="67" on="0"/>
        <pt x="585" y="64" on="1"/>
        <pt x="585" y="38" on="0"/>
        <pt x="520" y="0" on="0"/>
        <pt x="485" y="0" on="1"/>
        <pt x="442" y="0" on="0"/>
        <pt x="434" y="29" on="1"/>
        <pt x="400" y="154" on="1"/>
        <pt x="189" y="154" on="1"/>
        <pt x="155" y="29" on="1"/>
        <pt x="147" y="0" on="0"/>
        <pt x="104" y="0" on="1"/>
        <pt x="69" y="0" on="0"/>
        <pt x="4" y="38" on="0"/>
      </contour>
      <contour>
        <pt x="221" y="274" on="1"/>
        <pt x="367" y="274" on="1"/>
        <pt x="294" y="542" on="1"/>
      </contour>
      <contour>
        <pt x="221" y="856" on="1"/>
        <pt x="221" y="881" on="0"/>
        <pt x="241" y="891" on="1"/>
        <pt x="381" y="956" on="1"/>
        <pt x="388" y="959" on="0"/>
        <pt x="395" y="959" on="1"/>
        <pt x="414" y="959" on="0"/>
        <pt x="442" y="922" on="0"/>
        <pt x="442" y="901" on="1"/>
        <pt x="442" y="877" on="0"/>
        <pt x="422" y="867" on="1"/>
        <pt x="282" y="802" on="1"/>
        <pt x="272" y="798" on="0"/>
        <pt x="267" y="798" on="1"/>
        <pt x="248" y="798" on="0"/>
        <pt x="221" y="835" on="0"/>
      </contour>
    </TTGlyph>
    <TTGlyph name="Abreve" xMin="4" yMin="0" xMax="585" yMax="963">
      <contour>
        <pt x="4" y="64" on="1"/>
        <pt x="4" y="67" on="0"/>
        <pt x="6" y="75" on="1"/>
        <pt x="192" y="685" on="1"/>
        <pt x="200" y="710" on="0"/>
        <pt x="257" y="737" on="0"/>
        <pt x="331" y="737" on="0"/>
        <pt x="388" y="710" on="0"/>
        <pt x="396" y="685" on="1"/>
        <pt x="583" y="75" on="1"/>
        <pt x="585" y="67" on="0"/>
        <pt x="585" y="64" on="1"/>
        <pt x="585" y="38" on="0"/>
        <pt x="520" y="0" on="0"/>
        <pt x="485" y="0" on="1"/>
        <pt x="442" y="0" on="0"/>
        <pt x="434" y="29" on="1"/>
        <pt x="400" y="154" on="1"/>
        <pt x="189" y="154" on="1"/>
        <pt x="155" y="29" on="1"/>
        <pt x="147" y="0" on="0"/>
        <pt x="104" y="0" on="1"/>
        <pt x="69" y="0" on="0"/>
        <pt x="4" y="38" on="0"/>
      </contour>
      <contour>
        <pt x="155" y="963" on="1"/>
        <pt x="235" y="963" on="1"/>
        <pt x="235" y="932" on="0"/>
        <pt x="272" y="890" on="0"/>
        <pt x="295" y="890" on="1"/>
        <pt x="317" y="890" on="0"/>
        <pt x="354" y="932" on="0"/>
        <pt x="354" y="963" on="1"/>
        <pt x="434" y="963" on="1"/>
        <pt x="434" y="908" on="0"/>
        <pt x="349" y="824" on="0"/>
        <pt x="241" y="824" on="0"/>
        <pt x="155" y="908" on="0"/>
      </contour>
      <contour>
        <pt x="221" y="274" on="1"/>
        <pt x="367" y="274" on="1"/>
        <pt x="294" y="542" on="1"/>
      </contour>
    </TTGlyph>
    <TTGlyph name="Acircumflex" xMin="4" yMin="0" xMax="585" yMax="959">
      <contour>
        <pt x="4" y="64" on="1"/>
        <pt x="4" y="67" on="0"/>
        <pt x="6" y="75" on="1"/>
        <pt x="192" y="685" on="1"/>
        <pt x="200" y="710" on="0"/>
        <pt x="257" y="737" on="0"/>
        <pt x="331" y="737" on="0"/>
        <pt x="388" y="710" on="0"/>
        <pt x="396" y="685" on="1"/>
        <pt x="583" y="75" on="1"/>
        <pt x="585" y="67" on="0"/>
        <pt x="585" y="64" on="1"/>
        <pt x="585" y="38" on="0"/>
        <pt x="520" y="0" on="0"/>
        <pt x="485" y="0" on="1"/>
        <pt x="442" y="0" on="0"/>
        <pt x="434" y="29" on="1"/>
        <pt x="400" y="154" on="1"/>
        <pt x="189" y="154" on="1"/>
        <pt x="155" y="29" on="1"/>
        <pt x="147" y="0" on="0"/>
        <pt x="104" y="0" on="1"/>
        <pt x="69" y="0" on="0"/>
        <pt x="4" y="38" on="0"/>
      </contour>
      <contour>
        <pt x="148" y="854" on="1"/>
        <pt x="148" y="884" on="0"/>
        <pt x="173" y="898" on="1"/>
        <pt x="277" y="954" on="1"/>
        <pt x="287" y="959" on="0"/>
        <pt x="301" y="959" on="0"/>
        <pt x="311" y="954" on="1"/>
        <pt x="415" y="898" on="1"/>
        <pt x="440" y="884" on="0"/>
        <pt x="440" y="854" on="1"/>
        <pt x="440" y="836" on="0"/>
        <pt x="422" y="808" on="0"/>
        <pt x="409" y="808" on="1"/>
        <pt x="404" y="808" on="0"/>
        <pt x="398" y="811" on="1"/>
        <pt x="294" y="867" on="1"/>
        <pt x="190" y="811" on="1"/>
        <pt x="184" y="808" on="0"/>
        <pt x="179" y="808" on="1"/>
        <pt x="166" y="808" on="0"/>
        <pt x="148" y="836" on="0"/>
      </contour>
      <contour>
        <pt x="221" y="274" on="1"/>
        <pt x="367" y="274" on="1"/>
        <pt x="294" y="542" on="1"/>
      </contour>
    </TTGlyph>
    <TTGlyph name="Adieresis" xMin="4" yMin="0" xMax="585" yMax="927">
      <contour>
        <pt x="4" y="64" on="1"/>
        <pt x="4" y="67" on="0"/>
        <pt x="6" y="75" on="1"/>
        <pt x="192" y="685" on="1"/>
        <pt x="200" y="710" on="0"/>
        <pt x="257" y="737" on="0"/>
        <pt x="331" y="737" on="0"/>
        <pt x="388" y="710" on="0"/>
        <pt x="396" y="685" on="1"/>
        <pt x="583" y="75" on="1"/>
        <pt x="585" y="67" on="0"/>
        <pt x="585" y="64" on="1"/>
        <pt x="585" y="38" on="0"/>
        <pt x="520" y="0" on="0"/>
        <pt x="485" y="0" on="1"/>
        <pt x="442" y="0" on="0"/>
        <pt x="434" y="29" on="1"/>
        <pt x="400" y="154" on="1"/>
        <pt x="189" y="154" on="1"/>
        <pt x="155" y="29" on="1"/>
        <pt x="147" y="0" on="0"/>
        <pt x="104" y="0" on="1"/>
        <pt x="69" y="0" on="0"/>
        <pt x="4" y="38" on="0"/>
      </contour>
      <contour>
        <pt x="159" y="846" on="0"/>
        <pt x="159" y="892" on="0"/>
        <pt x="193" y="927" on="0"/>
        <pt x="239" y="927" on="0"/>
        <pt x="272" y="892" on="0"/>
        <pt x="272" y="869" on="1"/>
        <pt x="272" y="845" on="0"/>
        <pt x="239" y="810" on="0"/>
        <pt x="193" y="810" on="0"/>
      </contour>
      <contour>
        <pt x="221" y="274" on="1"/>
        <pt x="367" y="274" on="1"/>
        <pt x="294" y="542" on="1"/>
      </contour>
      <contour>
        <pt x="319" y="846" on="0"/>
        <pt x="319" y="892" on="0"/>
        <pt x="353" y="927" on="0"/>
        <pt x="399" y="927" on="0"/>
        <pt x="432" y="892" on="0"/>
        <pt x="432" y="869" on="1"/>
        <pt x="432" y="845" on="0"/>
        <pt x="399" y="810" on="0"/>
        <pt x="353" y="810" on="0"/>
      </contour>
    </TTGlyph>
    <TTGlyph name="Agrave" xMin="4" yMin="0" xMax="585" yMax="959">
      <contour>
        <pt x="4" y="64" on="1"/>
        <pt x="4" y="67" on="0"/>
        <pt x="6" y="75" on="1"/>
        <pt x="192" y="685" on="1"/>
        <pt x="200" y="710" on="0"/>
        <pt x="257" y="737" on="0"/>
        <pt x="331" y="737" on="0"/>
        <pt x="388" y="710" on="0"/>
        <pt x="396" y="685" on="1"/>
        <pt x="583" y="75" on="1"/>
        <pt x="585" y="67" on="0"/>
        <pt x="585" y="64" on="1"/>
        <pt x="585" y="38" on="0"/>
        <pt x="520" y="0" on="0"/>
        <pt x="485" y="0" on="1"/>
        <pt x="442" y="0" on="0"/>
        <pt x="434" y="29" on="1"/>
        <pt x="400" y="154" on="1"/>
        <pt x="189" y="154" on="1"/>
        <pt x="155" y="29" on="1"/>
        <pt x="147" y="0" on="0"/>
        <pt x="104" y="0" on="1"/>
        <pt x="69" y="0" on="0"/>
        <pt x="4" y="38" on="0"/>
      </contour>
      <contour>
        <pt x="166" y="901" on="1"/>
        <pt x="166" y="922" on="0"/>
        <pt x="194" y="959" on="0"/>
        <pt x="213" y="959" on="1"/>
        <pt x="220" y="959" on="0"/>
        <pt x="227" y="956" on="1"/>
        <pt x="367" y="891" on="1"/>
        <pt x="387" y="881" on="0"/>
        <pt x="387" y="856" on="1"/>
        <pt x="387" y="835" on="0"/>
        <pt x="360" y="798" on="0"/>
        <pt x="341" y="798" on="1"/>
        <pt x="336" y="798" on="0"/>
        <pt x="326" y="802" on="1"/>
        <pt x="186" y="867" on="1"/>
        <pt x="166" y="877" on="0"/>
      </contour>
      <contour>
        <pt x="221" y="274" on="1"/>
        <pt x="367" y="274" on="1"/>
        <pt x="294" y="542" on="1"/>
      </contour>
    </TTGlyph>
    <TTGlyph name="Amacron" xMin="4" yMin="0" xMax="585" yMax="938">
      <contour>
        <pt x="4" y="64" on="1"/>
        <pt x="4" y="67" on="0"/>
        <pt x="6" y="75" on="1"/>
        <pt x="192" y="685" on="1"/>
        <pt x="200" y="710" on="0"/>
        <pt x="257" y="737" on="0"/>
        <pt x="331" y="737" on="0"/>
        <pt x="388" y="710" on="0"/>
        <pt x="396" y="685" on="1"/>
        <pt x="583" y="75" on="1"/>
        <pt x="585" y="67" on="0"/>
        <pt x="585" y="64" on="1"/>
        <pt x="585" y="38" on="0"/>
        <pt x="520" y="0" on="0"/>
        <pt x="485" y="0" on="1"/>
        <pt x="442" y="0" on="0"/>
        <pt x="434" y="29" on="1"/>
        <pt x="400" y="154" on="1"/>
        <pt x="189" y="154" on="1"/>
        <pt x="155" y="29" on="1"/>
        <pt x="147" y="0" on="0"/>
        <pt x="104" y="0" on="1"/>
        <pt x="69" y="0" on="0"/>
        <pt x="4" y="38" on="0"/>
      </contour>
      <contour>
        <pt x="147" y="888" on="1"/>
        <pt x="147" y="909" on="0"/>
        <pt x="173" y="938" on="0"/>
        <pt x="194" y="938" on="1"/>
        <pt x="394" y="938" on="1"/>
        <pt x="412" y="938" on="0"/>
        <pt x="442" y="908" on="0"/>
        <pt x="442" y="888" on="1"/>
        <pt x="442" y="867" on="0"/>
        <pt x="413" y="839" on="0"/>
        <pt x="394" y="839" on="1"/>
        <pt x="194" y="839" on="1"/>
        <pt x="173" y="839" on="0"/>
        <pt x="147" y="866" on="0"/>
      </contour>
      <contour>
        <pt x="221" y="274" on="1"/>
        <pt x="367" y="274" on="1"/>
        <pt x="294" y="542" on="1"/>
      </contour>
    </TTGlyph>
    <TTGlyph name="Aogonek" xMin="4" yMin="-218" xMax="585" yMax="737">
      <contour>
        <pt x="4" y="64" on="1"/>
        <pt x="4" y="67" on="0"/>
        <pt x="6" y="75" on="1"/>
        <pt x="192" y="685" on="1"/>
        <pt x="200" y="710" on="0"/>
        <pt x="257" y="737" on="0"/>
        <pt x="331" y="737" on="0"/>
        <pt x="388" y="710" on="0"/>
        <pt x="396" y="685" on="1"/>
        <pt x="583" y="75" on="1"/>
        <pt x="585" y="67" on="0"/>
        <pt x="585" y="64" on="1"/>
        <pt x="585" y="28" on="0"/>
        <pt x="527" y="7" on="1"/>
        <pt x="494" y="-12" on="0"/>
        <pt x="451" y="-77" on="0"/>
        <pt x="451" y="-107" on="1"/>
        <pt x="451" y="-155" on="0"/>
        <pt x="509" y="-155" on="1"/>
        <pt x="534" y="-155" on="0"/>
        <pt x="534" y="-189" on="1"/>
        <pt x="534" y="-218" on="0"/>
        <pt x="503" y="-218" on="1"/>
        <pt x="440" y="-218" on="0"/>
        <pt x="378" y="-164" on="0"/>
        <pt x="378" y="-121" on="1"/>
        <pt x="378" y="-88" on="0"/>
        <pt x="415" y="-17" on="0"/>
        <pt x="448" y="9" on="1"/>
        <pt x="437" y="15" on="0"/>
        <pt x="434" y="29" on="1"/>
        <pt x="400" y="154" on="1"/>
        <pt x="189" y="154" on="1"/>
        <pt x="155" y="29" on="1"/>
        <pt x="147" y="0" on="0"/>
        <pt x="104" y="0" on="1"/>
        <pt x="69" y="0" on="0"/>
        <pt x="4" y="38" on="0"/>
      </contour>
      <contour>
        <pt x="221" y="274" on="1"/>
        <pt x="367" y="274" on="1"/>
        <pt x="294" y="542" on="1"/>
      </contour>
    </TTGlyph>
    <TTGlyph name="Aring" xMin="4" yMin="0" xMax="585" yMax="1008">
      <contour>
        <pt x="4" y="64" on="1"/>
        <pt x="4" y="67" on="0"/>
        <pt x="6" y="75" on="1"/>
        <pt x="192" y="685" on="1"/>
        <pt x="200" y="710" on="0"/>
        <pt x="257" y="737" on="0"/>
        <pt x="331" y="737" on="0"/>
        <pt x="388" y="710" on="0"/>
        <pt x="396" y="685" on="1"/>
        <pt x="583" y="75" on="1"/>
        <pt x="585" y="67" on="0"/>
        <pt x="585" y="64" on="1"/>
        <pt x="585" y="38" on="0"/>
        <pt x="520" y="0" on="0"/>
        <pt x="485" y="0" on="1"/>
        <pt x="442" y="0" on="0"/>
        <pt x="434" y="29" on="1"/>
        <pt x="400" y="154" on="1"/>
        <pt x="189" y="154" on="1"/>
        <pt x="155" y="29" on="1"/>
        <pt x="147" y="0" on="0"/>
        <pt x="104" y="0" on="1"/>
        <pt x="69" y="0" on="0"/>
        <pt x="4" y="38" on="0"/>
      </contour>
      <contour>
        <pt x="194" y="907" on="1"/>
        <pt x="194" y="947" on="0"/>
        <pt x="252" y="1008" on="0"/>
        <pt x="293" y="1008" on="1"/>
        <pt x="333" y="1008" on="0"/>
        <pt x="394" y="947" on="0"/>
        <pt x="394" y="907" on="1"/>
        <pt x="394" y="866" on="0"/>
        <pt x="333" y="804" on="0"/>
        <pt x="253" y="804" on="0"/>
        <pt x="194" y="866" on="0"/>
      </contour>
      <contour>
        <pt x="221" y="274" on="1"/>
        <pt x="367" y="274" on="1"/>
        <pt x="294" y="542" on="1"/>
      </contour>
      <contour>
        <pt x="253" y="906" on="1"/>
        <pt x="253" y="890" on="0"/>
        <pt x="277" y="864" on="0"/>
        <pt x="294" y="864" on="1"/>
        <pt x="310" y="864" on="0"/>
        <pt x="333" y="890" on="0"/>
        <pt x="333" y="906" on="1"/>
        <pt x="333" y="921" on="0"/>
        <pt x="310" y="945" on="0"/>
        <pt x="294" y="945" on="1"/>
        <pt x="277" y="945" on="0"/>
        <pt x="253" y="921" on="0"/>
      </contour>
    </TTGlyph>
    <TTGlyph name="Atilde" xMin="4" yMin="0" xMax="585" yMax="946">
      <contour>
        <pt x="4" y="64" on="1"/>
        <pt x="4" y="67" on="0"/>
        <pt x="6" y="75" on="1"/>
        <pt x="192" y="685" on="1"/>
        <pt x="200" y="710" on="0"/>
        <pt x="257" y="737" on="0"/>
        <pt x="331" y="737" on="0"/>
        <pt x="388" y="710" on="0"/>
        <pt x="396" y="685" on="1"/>
        <pt x="583" y="75" on="1"/>
        <pt x="585" y="67" on="0"/>
        <pt x="585" y="64" on="1"/>
        <pt x="585" y="38" on="0"/>
        <pt x="520" y="0" on="0"/>
        <pt x="485" y="0" on="1"/>
        <pt x="442" y="0" on="0"/>
        <pt x="434" y="29" on="1"/>
        <pt x="400" y="154" on="1"/>
        <pt x="189" y="154" on="1"/>
        <pt x="155" y="29" on="1"/>
        <pt x="147" y="0" on="0"/>
        <pt x="104" y="0" on="1"/>
        <pt x="69" y="0" on="0"/>
        <pt x="4" y="38" on="0"/>
      </contour>
      <contour>
        <pt x="117" y="873" on="1"/>
        <pt x="117" y="946" on="0"/>
        <pt x="202" y="946" on="1"/>
        <pt x="233" y="946" on="0"/>
        <pt x="321" y="919" on="0"/>
        <pt x="348" y="919" on="1"/>
        <pt x="371" y="919" on="0"/>
        <pt x="425" y="940" on="0"/>
        <pt x="434" y="940" on="1"/>
        <pt x="454" y="940" on="0"/>
        <pt x="472" y="905" on="0"/>
        <pt x="472" y="891" on="1"/>
        <pt x="472" y="818" on="0"/>
        <pt x="387" y="818" on="1"/>
        <pt x="349" y="818" on="0"/>
        <pt x="262" y="845" on="0"/>
        <pt x="241" y="845" on="1"/>
        <pt x="218" y="845" on="0"/>
        <pt x="164" y="824" on="0"/>
        <pt x="155" y="824" on="1"/>
        <pt x="135" y="824" on="0"/>
        <pt x="117" y="859" on="0"/>
      </contour>
      <contour>
        <pt x="221" y="274" on="1"/>
        <pt x="367" y="274" on="1"/>
        <pt x="294" y="542" on="1"/>
      </contour>
    </TTGlyph>
    <TTGlyph name="B" xMin="54" yMin="0" xMax="545" yMax="731">
      <contour>
        <pt x="54" y="47" on="1"/>
        <pt x="54" y="683" on="1"/>
        <pt x="54" y="706" on="0"/>
        <pt x="94" y="731" on="0"/>
        <pt x="122" y="731" on="1"/>
        <pt x="327" y="731" on="1"/>
        <pt x="527" y="731" on="0"/>
        <pt x="527" y="553" on="1"/>
        <pt x="527" y="433" on="0"/>
        <pt x="442" y="396" on="1"/>
        <pt x="493" y="377" on="0"/>
        <pt x="545" y="306" on="0"/>
        <pt x="545" y="236" on="1"/>
        <pt x="545" y="215" on="1"/>
        <pt x="545" y="103" on="0"/>
        <pt x="436" y="0" on="0"/>
        <pt x="344" y="0" on="1"/>
        <pt x="122" y="0" on="1"/>
        <pt x="91" y="0" on="0"/>
        <pt x="54" y="28" on="0"/>
      </contour>
      <contour>
        <pt x="209" y="136" on="1"/>
        <pt x="309" y="136" on="1"/>
        <pt x="389" y="136" on="0"/>
        <pt x="389" y="228" on="1"/>
        <pt x="389" y="244" on="1"/>
        <pt x="389" y="336" on="0"/>
        <pt x="309" y="336" on="1"/>
        <pt x="209" y="336" on="1"/>
      </contour>
      <contour>
        <pt x="209" y="456" on="1"/>
        <pt x="314" y="456" on="1"/>
        <pt x="341" y="456" on="0"/>
        <pt x="371" y="497" on="0"/>
        <pt x="371" y="553" on="0"/>
        <pt x="341" y="595" on="0"/>
        <pt x="314" y="595" on="1"/>
        <pt x="209" y="595" on="1"/>
      </contour>
    </TTGlyph>
    <TTGlyph name="C" xMin="46" yMin="-6" xMax="537" yMax="731">
      <contour>
        <pt x="46" y="230" on="1"/>
        <pt x="46" y="495" on="1"/>
        <pt x="46" y="617" on="0"/>
        <pt x="179" y="731" on="0"/>
        <pt x="286" y="731" on="1"/>
        <pt x="396" y="731" on="0"/>
        <pt x="537" y="625" on="0"/>
        <pt x="537" y="532" on="1"/>
        <pt x="537" y="489" on="0"/>
        <pt x="501" y="458" on="0"/>
        <pt x="459" y="458" on="1"/>
        <pt x="384" y="458" on="0"/>
        <pt x="381" y="505" on="1"/>
        <pt x="378" y="595" on="0"/>
        <pt x="292" y="595" on="1"/>
        <pt x="202" y="595" on="0"/>
        <pt x="202" y="495" on="1"/>
        <pt x="202" y="230" on="1"/>
        <pt x="202" y="130" on="0"/>
        <pt x="293" y="130" on="1"/>
        <pt x="321" y="130" on="0"/>
        <pt x="358" y="148" on="0"/>
        <pt x="374" y="185" on="0"/>
        <pt x="379" y="209" on="0"/>
        <pt x="381" y="230" on="1"/>
        <pt x="385" y="277" on="0"/>
        <pt x="458" y="277" on="1"/>
        <pt x="501" y="277" on="0"/>
        <pt x="537" y="246" on="0"/>
        <pt x="537" y="203" on="1"/>
        <pt x="537" y="106" on="0"/>
        <pt x="396" y="-6" on="0"/>
        <pt x="286" y="-6" on="1"/>
        <pt x="179" y="-6" on="0"/>
        <pt x="46" y="108" on="0"/>
      </contour>
    </TTGlyph>
    <TTGlyph name="Cacute" xMin="46" yMin="-6" xMax="537" yMax="959">
      <contour>
        <pt x="46" y="230" on="1"/>
        <pt x="46" y="495" on="1"/>
        <pt x="46" y="617" on="0"/>
        <pt x="179" y="731" on="0"/>
        <pt x="286" y="731" on="1"/>
        <pt x="396" y="731" on="0"/>
        <pt x="537" y="625" on="0"/>
        <pt x="537" y="532" on="1"/>
        <pt x="537" y="489" on="0"/>
        <pt x="501" y="458" on="0"/>
        <pt x="459" y="458" on="1"/>
        <pt x="384" y="458" on="0"/>
        <pt x="381" y="505" on="1"/>
        <pt x="378" y="595" on="0"/>
        <pt x="292" y="595" on="1"/>
        <pt x="202" y="595" on="0"/>
        <pt x="202" y="495" on="1"/>
        <pt x="202" y="230" on="1"/>
        <pt x="202" y="130" on="0"/>
        <pt x="293" y="130" on="1"/>
        <pt x="321" y="130" on="0"/>
        <pt x="358" y="148" on="0"/>
        <pt x="374" y="185" on="0"/>
        <pt x="379" y="209" on="0"/>
        <pt x="381" y="230" on="1"/>
        <pt x="385" y="277" on="0"/>
        <pt x="458" y="277" on="1"/>
        <pt x="501" y="277" on="0"/>
        <pt x="537" y="246" on="0"/>
        <pt x="537" y="203" on="1"/>
        <pt x="537" y="106" on="0"/>
        <pt x="396" y="-6" on="0"/>
        <pt x="286" y="-6" on="1"/>
        <pt x="179" y="-6" on="0"/>
        <pt x="46" y="108" on="0"/>
      </contour>
      <contour>
        <pt x="205" y="856" on="1"/>
        <pt x="205" y="881" on="0"/>
        <pt x="225" y="891" on="1"/>
        <pt x="365" y="956" on="1"/>
        <pt x="372" y="959" on="0"/>
        <pt x="379" y="959" on="1"/>
        <pt x="398" y="959" on="0"/>
        <pt x="426" y="922" on="0"/>
        <pt x="426" y="901" on="1"/>
        <pt x="426" y="877" on="0"/>
        <pt x="406" y="867" on="1"/>
        <pt x="266" y="802" on="1"/>
        <pt x="256" y="798" on="0"/>
        <pt x="251" y="798" on="1"/>
        <pt x="232" y="798" on="0"/>
        <pt x="205" y="835" on="0"/>
      </contour>
    </TTGlyph>
    <TTGlyph name="Ccaron" xMin="46" yMin="-6" xMax="537" yMax="971">
      <contour>
        <pt x="46" y="230" on="1"/>
        <pt x="46" y="495" on="1"/>
        <pt x="46" y="617" on="0"/>
        <pt x="179" y="731" on="0"/>
        <pt x="286" y="731" on="1"/>
        <pt x="396" y="731" on="0"/>
        <pt x="537" y="625" on="0"/>
        <pt x="537" y="532" on="1"/>
        <pt x="537" y="489" on="0"/>
        <pt x="501" y="458" on="0"/>
        <pt x="459" y="458" on="1"/>
        <pt x="384" y="458" on="0"/>
        <pt x="381" y="505" on="1"/>
        <pt x="378" y="595" on="0"/>
        <pt x="292" y="595" on="1"/>
        <pt x="202" y="595" on="0"/>
        <pt x="202" y="495" on="1"/>
        <pt x="202" y="230" on="1"/>
        <pt x="202" y="130" on="0"/>
        <pt x="293" y="130" on="1"/>
        <pt x="321" y="130" on="0"/>
        <pt x="358" y="148" on="0"/>
        <pt x="374" y="185" on="0"/>
        <pt x="379" y="209" on="0"/>
        <pt x="381" y="230" on="1"/>
        <pt x="385" y="277" on="0"/>
        <pt x="458" y="277" on="1"/>
        <pt x="501" y="277" on="0"/>
        <pt x="537" y="246" on="0"/>
        <pt x="537" y="203" on="1"/>
        <pt x="537" y="106" on="0"/>
        <pt x="396" y="-6" on="0"/>
        <pt x="286" y="-6" on="1"/>
        <pt x="179" y="-6" on="0"/>
        <pt x="46" y="108" on="0"/>
      </contour>
      <contour>
        <pt x="144" y="925" on="1"/>
        <pt x="144" y="943" on="0"/>
        <pt x="162" y="971" on="0"/>
        <pt x="175" y="971" on="1"/>
        <pt x="180" y="971" on="0"/>
        <pt x="186" y="968" on="1"/>
        <pt x="290" y="912" on="1"/>
        <pt x="394" y="968" on="1"/>
        <pt x="400" y="971" on="0"/>
        <pt x="405" y="971" on="1"/>
        <pt x="418" y="971" on="0"/>
        <pt x="436" y="943" on="0"/>
        <pt x="436" y="925" on="1"/>
        <pt x="436" y="895" on="0"/>
        <pt x="411" y="881" on="1"/>
        <pt x="307" y="825" on="1"/>
        <pt x="297" y="820" on="0"/>
        <pt x="283" y="820" on="0"/>
        <pt x="273" y="825" on="1"/>
        <pt x="169" y="881" on="1"/>
        <pt x="144" y="895" on="0"/>
      </contour>
    </TTGlyph>
    <TTGlyph name="Ccedilla" xMin="46" yMin="-219" xMax="537" yMax="731">
      <contour>
        <pt x="46" y="230" on="1"/>
        <pt x="46" y="495" on="1"/>
        <pt x="46" y="617" on="0"/>
        <pt x="179" y="731" on="0"/>
        <pt x="286" y="731" on="1"/>
        <pt x="396" y="731" on="0"/>
        <pt x="537" y="625" on="0"/>
        <pt x="537" y="532" on="1"/>
        <pt x="537" y="489" on="0"/>
        <pt x="501" y="458" on="0"/>
        <pt x="459" y="458" on="1"/>
        <pt x="384" y="458" on="0"/>
        <pt x="381" y="505" on="1"/>
        <pt x="378" y="595" on="0"/>
        <pt x="292" y="595" on="1"/>
        <pt x="202" y="595" on="0"/>
        <pt x="202" y="495" on="1"/>
        <pt x="202" y="230" on="1"/>
        <pt x="202" y="130" on="0"/>
        <pt x="293" y="130" on="1"/>
        <pt x="321" y="130" on="0"/>
        <pt x="358" y="148" on="0"/>
        <pt x="374" y="185" on="0"/>
        <pt x="379" y="209" on="0"/>
        <pt x="381" y="230" on="1"/>
        <pt x="385" y="277" on="0"/>
        <pt x="458" y="277" on="1"/>
        <pt x="501" y="277" on="0"/>
        <pt x="537" y="246" on="0"/>
        <pt x="537" y="203" on="1"/>
        <pt x="537" y="114" on="0"/>
        <pt x="419" y="5" on="0"/>
        <pt x="322" y="-4" on="1"/>
        <pt x="308" y="-47" on="1"/>
        <pt x="357" y="-49" on="0"/>
        <pt x="408" y="-93" on="0"/>
        <pt x="408" y="-126" on="1"/>
        <pt x="408" y="-160" on="0"/>
        <pt x="356" y="-219" on="0"/>
        <pt x="297" y="-219" on="1"/>
        <pt x="265" y="-219" on="0"/>
        <pt x="209" y="-202" on="0"/>
        <pt x="209" y="-188" on="1"/>
        <pt x="209" y="-178" on="0"/>
        <pt x="223" y="-146" on="0"/>
        <pt x="235" y="-146" on="1"/>
        <pt x="238" y="-146" on="0"/>
        <pt x="274" y="-160" on="0"/>
        <pt x="293" y="-160" on="1"/>
        <pt x="339" y="-160" on="0"/>
        <pt x="339" y="-129" on="1"/>
        <pt x="339" y="-99" on="0"/>
        <pt x="296" y="-95" on="1"/>
        <pt x="234" y="-89" on="1"/>
        <pt x="259" y="-5" on="1"/>
        <pt x="163" y="1" on="0"/>
        <pt x="46" y="116" on="0"/>
      </contour>
    </TTGlyph>
    <TTGlyph name="Ccircumflex" xMin="46" yMin="-6" xMax="537" yMax="959">
      <contour>
        <pt x="46" y="230" on="1"/>
        <pt x="46" y="495" on="1"/>
        <pt x="46" y="617" on="0"/>
        <pt x="179" y="731" on="0"/>
        <pt x="286" y="731" on="1"/>
        <pt x="396" y="731" on="0"/>
        <pt x="537" y="625" on="0"/>
        <pt x="537" y="532" on="1"/>
        <pt x="537" y="489" on="0"/>
        <pt x="501" y="458" on="0"/>
        <pt x="459" y="458" on="1"/>
        <pt x="384" y="458" on="0"/>
        <pt x="381" y="505" on="1"/>
        <pt x="378" y="595" on="0"/>
        <pt x="292" y="595" on="1"/>
        <pt x="202" y="595" on="0"/>
        <pt x="202" y="495" on="1"/>
        <pt x="202" y="230" on="1"/>
        <pt x="202" y="130" on="0"/>
        <pt x="293" y="130" on="1"/>
        <pt x="321" y="130" on="0"/>
        <pt x="358" y="148" on="0"/>
        <pt x="374" y="185" on="0"/>
        <pt x="379" y="209" on="0"/>
        <pt x="381" y="230" on="1"/>
        <pt x="385" y="277" on="0"/>
        <pt x="458" y="277" on="1"/>
        <pt x="501" y="277" on="0"/>
        <pt x="537" y="246" on="0"/>
        <pt x="537" y="203" on="1"/>
        <pt x="537" y="106" on="0"/>
        <pt x="396" y="-6" on="0"/>
        <pt x="286" y="-6" on="1"/>
        <pt x="179" y="-6" on="0"/>
        <pt x="46" y="108" on="0"/>
      </contour>
      <contour>
        <pt x="145" y="854" on="1"/>
        <pt x="145" y="884" on="0"/>
        <pt x="170" y="898" on="1"/>
        <pt x="274" y="954" on="1"/>
        <pt x="284" y="959" on="0"/>
        <pt x="298" y="959" on="0"/>
        <pt x="308" y="954" on="1"/>
        <pt x="412" y="898" on="1"/>
        <pt x="437" y="884" on="0"/>
        <pt x="437" y="854" on="1"/>
        <pt x="437" y="836" on="0"/>
        <pt x="419" y="808" on="0"/>
        <pt x="406" y="808" on="1"/>
        <pt x="401" y="808" on="0"/>
        <pt x="395" y="811" on="1"/>
        <pt x="291" y="867" on="1"/>
        <pt x="187" y="811" on="1"/>
        <pt x="181" y="808" on="0"/>
        <pt x="176" y="808" on="1"/>
        <pt x="163" y="808" on="0"/>
        <pt x="145" y="836" on="0"/>
      </contour>
    </TTGlyph>
    <TTGlyph name="Cdotaccent" xMin="46" yMin="-6" xMax="537" yMax="927">
      <contour>
        <pt x="46" y="230" on="1"/>
        <pt x="46" y="495" on="1"/>
        <pt x="46" y="617" on="0"/>
        <pt x="179" y="731" on="0"/>
        <pt x="286" y="731" on="1"/>
        <pt x="396" y="731" on="0"/>
        <pt x="537" y="625" on="0"/>
        <pt x="537" y="532" on="1"/>
        <pt x="537" y="489" on="0"/>
        <pt x="501" y="458" on="0"/>
        <pt x="459" y="458" on="1"/>
        <pt x="384" y="458" on="0"/>
        <pt x="381" y="505" on="1"/>
        <pt x="378" y="595" on="0"/>
        <pt x="292" y="595" on="1"/>
        <pt x="202" y="595" on="0"/>
        <pt x="202" y="495" on="1"/>
        <pt x="202" y="230" on="1"/>
        <pt x="202" y="130" on="0"/>
        <pt x="293" y="130" on="1"/>
        <pt x="321" y="130" on="0"/>
        <pt x="358" y="148" on="0"/>
        <pt x="374" y="185" on="0"/>
        <pt x="379" y="209" on="0"/>
        <pt x="381" y="230" on="1"/>
        <pt x="385" y="277" on="0"/>
        <pt x="458" y="277" on="1"/>
        <pt x="501" y="277" on="0"/>
        <pt x="537" y="246" on="0"/>
        <pt x="537" y="203" on="1"/>
        <pt x="537" y="106" on="0"/>
        <pt x="396" y="-6" on="0"/>
        <pt x="286" y="-6" on="1"/>
        <pt x="179" y="-6" on="0"/>
        <pt x="46" y="108" on="0"/>
      </contour>
      <contour>
        <pt x="236" y="846" on="0"/>
        <pt x="236" y="892" on="0"/>
        <pt x="270" y="927" on="0"/>
        <pt x="316" y="927" on="0"/>
        <pt x="349" y="892" on="0"/>
        <pt x="349" y="869" on="1"/>
        <pt x="349" y="845" on="0"/>
        <pt x="316" y="810" on="0"/>
        <pt x="270" y="810" on="0"/>
      </contour>
    </TTGlyph>
    <TTGlyph name="D" xMin="54" yMin="0" xMax="545" yMax="731">
      <contour>
        <pt x="54" y="47" on="1"/>
        <pt x="54" y="684" on="1"/>
        <pt x="54" y="703" on="0"/>
        <pt x="92" y="731" on="0"/>
        <pt x="122" y="731" on="1"/>
        <pt x="299" y="731" on="1"/>
        <pt x="411" y="731" on="0"/>
        <pt x="545" y="617" on="0"/>
        <pt x="545" y="495" on="1"/>
        <pt x="545" y="236" on="1"/>
        <pt x="545" y="114" on="0"/>
        <pt x="411" y="0" on="0"/>
        <pt x="299" y="0" on="1"/>
        <pt x="122" y="0" on="1"/>
        <pt x="92" y="0" on="0"/>
        <pt x="54" y="28" on="0"/>
      </contour>
      <contour>
        <pt x="210" y="136" on="1"/>
        <pt x="299" y="136" on="1"/>
        <pt x="389" y="136" on="0"/>
        <pt x="389" y="236" on="1"/>
        <pt x="389" y="495" on="1"/>
        <pt x="389" y="595" on="0"/>
        <pt x="299" y="595" on="1"/>
        <pt x="210" y="595" on="1"/>
      </contour>
    </TTGlyph>
    <TTGlyph name="Dcaron" xMin="54" yMin="0" xMax="545" yMax="971">
      <contour>
        <pt x="54" y="47" on="1"/>
        <pt x="54" y="684" on="1"/>
        <pt x="54" y="703" on="0"/>
        <pt x="92" y="731" on="0"/>
        <pt x="122" y="731" on="1"/>
        <pt x="299" y="731" on="1"/>
        <pt x="411" y="731" on="0"/>
        <pt x="545" y="617" on="0"/>
        <pt x="545" y="495" on="1"/>
        <pt x="545" y="236" on="1"/>
        <pt x="545" y="114" on="0"/>
        <pt x="411" y="0" on="0"/>
        <pt x="299" y="0" on="1"/>
        <pt x="122" y="0" on="1"/>
        <pt x="92" y="0" on="0"/>
        <pt x="54" y="28" on="0"/>
      </contour>
      <contour>
        <pt x="128" y="925" on="1"/>
        <pt x="128" y="943" on="0"/>
        <pt x="146" y="971" on="0"/>
        <pt x="159" y="971" on="1"/>
        <pt x="164" y="971" on="0"/>
        <pt x="170" y="968" on="1"/>
        <pt x="274" y="912" on="1"/>
        <pt x="378" y="968" on="1"/>
        <pt x="384" y="971" on="0"/>
        <pt x="389" y="971" on="1"/>
        <pt x="402" y="971" on="0"/>
        <pt x="420" y="943" on="0"/>
        <pt x="420" y="925" on="1"/>
        <pt x="420" y="895" on="0"/>
        <pt x="395" y="881" on="1"/>
        <pt x="291" y="825" on="1"/>
        <pt x="281" y="820" on="0"/>
        <pt x="267" y="820" on="0"/>
        <pt x="257" y="825" on="1"/>
        <pt x="153" y="881" on="1"/>
        <pt x="128" y="895" on="0"/>
      </contour>
      <contour>
        <pt x="210" y="136" on="1"/>
        <pt x="299" y="136" on="1"/>
        <pt x="389" y="136" on="0"/>
        <pt x="389" y="236" on="1"/>
        <pt x="389" y="495" on="1"/>
        <pt x="389" y="595" on="0"/>
        <pt x="299" y="595" on="1"/>
        <pt x="210" y="595" on="1"/>
      </contour>
    </TTGlyph>
    <TTGlyph name="Dcroat" xMin="-10" yMin="0" xMax="551" yMax="731">
      <contour>
        <pt x="-10" y="382" on="1"/>
        <pt x="-10" y="404" on="0"/>
        <pt x="10" y="437" on="0"/>
        <pt x="28" y="437" on="1"/>
        <pt x="60" y="437" on="1"/>
        <pt x="60" y="684" on="1"/>
        <pt x="60" y="703" on="0"/>
        <pt x="98" y="731" on="0"/>
        <pt x="128" y="731" on="1"/>
        <pt x="305" y="731" on="1"/>
        <pt x="417" y="731" on="0"/>
        <pt x="551" y="617" on="0"/>
        <pt x="551" y="495" on="1"/>
        <pt x="551" y="236" on="1"/>
        <pt x="551" y="114" on="0"/>
        <pt x="417" y="0" on="0"/>
        <pt x="305" y="0" on="1"/>
        <pt x="128" y="0" on="1"/>
        <pt x="98" y="0" on="0"/>
        <pt x="60" y="28" on="0"/>
        <pt x="60" y="47" on="1"/>
        <pt x="60" y="327" on="1"/>
        <pt x="28" y="327" on="1"/>
        <pt x="10" y="327" on="0"/>
        <pt x="-10" y="359" on="0"/>
      </contour>
      <contour>
        <pt x="216" y="136" on="1"/>
        <pt x="305" y="136" on="1"/>
        <pt x="395" y="136" on="0"/>
        <pt x="395" y="236" on="1"/>
        <pt x="395" y="495" on="1"/>
        <pt x="395" y="595" on="0"/>
        <pt x="305" y="595" on="1"/>
        <pt x="216" y="595" on="1"/>
        <pt x="216" y="437" on="1"/>
        <pt x="278" y="437" on="1"/>
        <pt x="296" y="437" on="0"/>
        <pt x="316" y="404" on="0"/>
        <pt x="316" y="382" on="1"/>
        <pt x="316" y="359" on="0"/>
        <pt x="296" y="327" on="0"/>
        <pt x="278" y="327" on="1"/>
        <pt x="216" y="327" on="1"/>
      </contour>
    </TTGlyph>
    <TTGlyph name="E" xMin="54" yMin="0" xMax="525" yMax="731">
      <contour>
        <pt x="54" y="48" on="1"/>
        <pt x="54" y="683" on="1"/>
        <pt x="54" y="706" on="0"/>
        <pt x="94" y="731" on="0"/>
        <pt x="122" y="731" on="1"/>
        <pt x="478" y="731" on="1"/>
        <pt x="501" y="731" on="0"/>
        <pt x="525" y="691" on="0"/>
        <pt x="525" y="664" on="1"/>
        <pt x="525" y="635" on="0"/>
        <pt x="500" y="595" on="0"/>
        <pt x="478" y="595" on="1"/>
        <pt x="210" y="595" on="1"/>
        <pt x="210" y="426" on="1"/>
        <pt x="360" y="426" on="1"/>
        <pt x="382" y="426" on="0"/>
        <pt x="407" y="390" on="0"/>
        <pt x="407" y="365" on="1"/>
        <pt x="407" y="342" on="0"/>
        <pt x="383" y="306" on="0"/>
        <pt x="360" y="306" on="1"/>
        <pt x="210" y="306" on="1"/>
        <pt x="210" y="136" on="1"/>
        <pt x="478" y="136" on="1"/>
        <pt x="500" y="136" on="0"/>
        <pt x="525" y="96" on="0"/>
        <pt x="525" y="67" on="1"/>
        <pt x="525" y="40" on="0"/>
        <pt x="501" y="0" on="0"/>
        <pt x="478" y="0" on="1"/>
        <pt x="122" y="0" on="1"/>
        <pt x="94" y="0" on="0"/>
        <pt x="54" y="25" on="0"/>
      </contour>
    </TTGlyph>
    <TTGlyph name="Eacute" xMin="54" yMin="0" xMax="525" yMax="959">
      <contour>
        <pt x="54" y="48" on="1"/>
        <pt x="54" y="683" on="1"/>
        <pt x="54" y="706" on="0"/>
        <pt x="94" y="731" on="0"/>
        <pt x="122" y="731" on="1"/>
        <pt x="478" y="731" on="1"/>
        <pt x="501" y="731" on="0"/>
        <pt x="525" y="691" on="0"/>
        <pt x="525" y="664" on="1"/>
        <pt x="525" y="635" on="0"/>
        <pt x="500" y="595" on="0"/>
        <pt x="478" y="595" on="1"/>
        <pt x="210" y="595" on="1"/>
        <pt x="210" y="426" on="1"/>
        <pt x="360" y="426" on="1"/>
        <pt x="382" y="426" on="0"/>
        <pt x="407" y="390" on="0"/>
        <pt x="407" y="365" on="1"/>
        <pt x="407" y="342" on="0"/>
        <pt x="383" y="306" on="0"/>
        <pt x="360" y="306" on="1"/>
        <pt x="210" y="306" on="1"/>
        <pt x="210" y="136" on="1"/>
        <pt x="478" y="136" on="1"/>
        <pt x="500" y="136" on="0"/>
        <pt x="525" y="96" on="0"/>
        <pt x="525" y="67" on="1"/>
        <pt x="525" y="40" on="0"/>
        <pt x="501" y="0" on="0"/>
        <pt x="478" y="0" on="1"/>
        <pt x="122" y="0" on="1"/>
        <pt x="94" y="0" on="0"/>
        <pt x="54" y="25" on="0"/>
      </contour>
      <contour>
        <pt x="203" y="856" on="1"/>
        <pt x="203" y="881" on="0"/>
        <pt x="223" y="891" on="1"/>
        <pt x="363" y="956" on="1"/>
        <pt x="370" y="959" on="0"/>
        <pt x="377" y="959" on="1"/>
        <pt x="396" y="959" on="0"/>
        <pt x="424" y="922" on="0"/>
        <pt x="424" y="901" on="1"/>
        <pt x="424" y="877" on="0"/>
        <pt x="404" y="867" on="1"/>
        <pt x="264" y="802" on="1"/>
        <pt x="254" y="798" on="0"/>
        <pt x="249" y="798" on="1"/>
        <pt x="230" y="798" on="0"/>
        <pt x="203" y="835" on="0"/>
      </contour>
    </TTGlyph>
    <TTGlyph name="Ebreve" xMin="54" yMin="0" xMax="525" yMax="963">
      <contour>
        <pt x="54" y="48" on="1"/>
        <pt x="54" y="683" on="1"/>
        <pt x="54" y="706" on="0"/>
        <pt x="94" y="731" on="0"/>
        <pt x="122" y="731" on="1"/>
        <pt x="478" y="731" on="1"/>
        <pt x="501" y="731" on="0"/>
        <pt x="525" y="691" on="0"/>
        <pt x="525" y="664" on="1"/>
        <pt x="525" y="635" on="0"/>
        <pt x="500" y="595" on="0"/>
        <pt x="478" y="595" on="1"/>
        <pt x="210" y="595" on="1"/>
        <pt x="210" y="426" on="1"/>
        <pt x="360" y="426" on="1"/>
        <pt x="382" y="426" on="0"/>
        <pt x="407" y="390" on="0"/>
        <pt x="407" y="365" on="1"/>
        <pt x="407" y="342" on="0"/>
        <pt x="383" y="306" on="0"/>
        <pt x="360" y="306" on="1"/>
        <pt x="210" y="306" on="1"/>
        <pt x="210" y="136" on="1"/>
        <pt x="478" y="136" on="1"/>
        <pt x="500" y="136" on="0"/>
        <pt x="525" y="96" on="0"/>
        <pt x="525" y="67" on="1"/>
        <pt x="525" y="40" on="0"/>
        <pt x="501" y="0" on="0"/>
        <pt x="478" y="0" on="1"/>
        <pt x="122" y="0" on="1"/>
        <pt x="94" y="0" on="0"/>
        <pt x="54" y="25" on="0"/>
      </contour>
      <contour>
        <pt x="149" y="963" on="1"/>
        <pt x="229" y="963" on="1"/>
        <pt x="229" y="932" on="0"/>
        <pt x="266" y="890" on="0"/>
        <pt x="289" y="890" on="1"/>
        <pt x="311" y="890" on="0"/>
        <pt x="348" y="932" on="0"/>
        <pt x="348" y="963" on="1"/>
        <pt x="428" y="963" on="1"/>
        <pt x="428" y="908" on="0"/>
        <pt x="343" y="824" on="0"/>
        <pt x="235" y="824" on="0"/>
        <pt x="149" y="908" on="0"/>
      </contour>
    </TTGlyph>
    <TTGlyph name="Ecaron" xMin="54" yMin="0" xMax="525" yMax="971">
      <contour>
        <pt x="54" y="48" on="1"/>
        <pt x="54" y="683" on="1"/>
        <pt x="54" y="706" on="0"/>
        <pt x="94" y="731" on="0"/>
        <pt x="122" y="731" on="1"/>
        <pt x="478" y="731" on="1"/>
        <pt x="501" y="731" on="0"/>
        <pt x="525" y="691" on="0"/>
        <pt x="525" y="664" on="1"/>
        <pt x="525" y="635" on="0"/>
        <pt x="500" y="595" on="0"/>
        <pt x="478" y="595" on="1"/>
        <pt x="210" y="595" on="1"/>
        <pt x="210" y="426" on="1"/>
        <pt x="360" y="426" on="1"/>
        <pt x="382" y="426" on="0"/>
        <pt x="407" y="390" on="0"/>
        <pt x="407" y="365" on="1"/>
        <pt x="407" y="342" on="0"/>
        <pt x="383" y="306" on="0"/>
        <pt x="360" y="306" on="1"/>
        <pt x="210" y="306" on="1"/>
        <pt x="210" y="136" on="1"/>
        <pt x="478" y="136" on="1"/>
        <pt x="500" y="136" on="0"/>
        <pt x="525" y="96" on="0"/>
        <pt x="525" y="67" on="1"/>
        <pt x="525" y="40" on="0"/>
        <pt x="501" y="0" on="0"/>
        <pt x="478" y="0" on="1"/>
        <pt x="122" y="0" on="1"/>
        <pt x="94" y="0" on="0"/>
        <pt x="54" y="25" on="0"/>
      </contour>
      <contour>
        <pt x="142" y="925" on="1"/>
        <pt x="142" y="943" on="0"/>
        <pt x="160" y="971" on="0"/>
        <pt x="173" y="971" on="1"/>
        <pt x="178" y="971" on="0"/>
        <pt x="184" y="968" on="1"/>
        <pt x="288" y="912" on="1"/>
        <pt x="392" y="968" on="1"/>
        <pt x="398" y="971" on="0"/>
        <pt x="403" y="971" on="1"/>
        <pt x="416" y="971" on="0"/>
        <pt x="434" y="943" on="0"/>
        <pt x="434" y="925" on="1"/>
        <pt x="434" y="895" on="0"/>
        <pt x="409" y="881" on="1"/>
        <pt x="305" y="825" on="1"/>
        <pt x="295" y="820" on="0"/>
        <pt x="281" y="820" on="0"/>
        <pt x="271" y="825" on="1"/>
        <pt x="167" y="881" on="1"/>
        <pt x="142" y="895" on="0"/>
      </contour>
    </TTGlyph>
    <TTGlyph name="Ecircumflex" xMin="54" yMin="0" xMax="525" yMax="959">
      <contour>
        <pt x="54" y="48" on="1"/>
        <pt x="54" y="683" on="1"/>
        <pt x="54" y="706" on="0"/>
        <pt x="94" y="731" on="0"/>
        <pt x="122" y="731" on="1"/>
        <pt x="478" y="731" on="1"/>
        <pt x="501" y="731" on="0"/>
        <pt x="525" y="691" on="0"/>
        <pt x="525" y="664" on="1"/>
        <pt x="525" y="635" on="0"/>
        <pt x="500" y="595" on="0"/>
        <pt x="478" y="595" on="1"/>
        <pt x="210" y="595" on="1"/>
        <pt x="210" y="426" on="1"/>
        <pt x="360" y="426" on="1"/>
        <pt x="382" y="426" on="0"/>
        <pt x="407" y="390" on="0"/>
        <pt x="407" y="365" on="1"/>
        <pt x="407" y="342" on="0"/>
        <pt x="383" y="306" on="0"/>
        <pt x="360" y="306" on="1"/>
        <pt x="210" y="306" on="1"/>
        <pt x="210" y="136" on="1"/>
        <pt x="478" y="136" on="1"/>
        <pt x="500" y="136" on="0"/>
        <pt x="525" y="96" on="0"/>
        <pt x="525" y="67" on="1"/>
        <pt x="525" y="40" on="0"/>
        <pt x="501" y="0" on="0"/>
        <pt x="478" y="0" on="1"/>
        <pt x="122" y="0" on="1"/>
        <pt x="94" y="0" on="0"/>
        <pt x="54" y="25" on="0"/>
      </contour>
      <contour>
        <pt x="153" y="854" on="1"/>
        <pt x="153" y="884" on="0"/>
        <pt x="178" y="898" on="1"/>
        <pt x="282" y="954" on="1"/>
        <pt x="292" y="959" on="0"/>
        <pt x="306" y="959" on="0"/>
        <pt x="316" y="954" on="1"/>
        <pt x="420" y="898" on="1"/>
        <pt x="445" y="884" on="0"/>
        <pt x="445" y="854" on="1"/>
        <pt x="445" y="836" on="0"/>
        <pt x="427" y="808" on="0"/>
        <pt x="414" y="808" on="1"/>
        <pt x="409" y="808" on="0"/>
        <pt x="403" y="811" on="1"/>
        <pt x="299" y="867" on="1"/>
        <pt x="195" y="811" on="1"/>
        <pt x="189" y="808" on="0"/>
        <pt x="184" y="808" on="1"/>
        <pt x="171" y="808" on="0"/>
        <pt x="153" y="836" on="0"/>
      </contour>
    </TTGlyph>
    <TTGlyph name="Edieresis" xMin="54" yMin="0" xMax="525" yMax="927">
      <contour>
        <pt x="54" y="48" on="1"/>
        <pt x="54" y="683" on="1"/>
        <pt x="54" y="706" on="0"/>
        <pt x="94" y="731" on="0"/>
        <pt x="122" y="731" on="1"/>
        <pt x="478" y="731" on="1"/>
        <pt x="501" y="731" on="0"/>
        <pt x="525" y="691" on="0"/>
        <pt x="525" y="664" on="1"/>
        <pt x="525" y="635" on="0"/>
        <pt x="500" y="595" on="0"/>
        <pt x="478" y="595" on="1"/>
        <pt x="210" y="595" on="1"/>
        <pt x="210" y="426" on="1"/>
        <pt x="360" y="426" on="1"/>
        <pt x="382" y="426" on="0"/>
        <pt x="407" y="390" on="0"/>
        <pt x="407" y="365" on="1"/>
        <pt x="407" y="342" on="0"/>
        <pt x="383" y="306" on="0"/>
        <pt x="360" y="306" on="1"/>
        <pt x="210" y="306" on="1"/>
        <pt x="210" y="136" on="1"/>
        <pt x="478" y="136" on="1"/>
        <pt x="500" y="136" on="0"/>
        <pt x="525" y="96" on="0"/>
        <pt x="525" y="67" on="1"/>
        <pt x="525" y="40" on="0"/>
        <pt x="501" y="0" on="0"/>
        <pt x="478" y="0" on="1"/>
        <pt x="122" y="0" on="1"/>
        <pt x="94" y="0" on="0"/>
        <pt x="54" y="25" on="0"/>
      </contour>
      <contour>
        <pt x="156" y="846" on="0"/>
        <pt x="156" y="892" on="0"/>
        <pt x="190" y="927" on="0"/>
        <pt x="236" y="927" on="0"/>
        <pt x="269" y="892" on="0"/>
        <pt x="269" y="869" on="1"/>
        <pt x="269" y="845" on="0"/>
        <pt x="236" y="810" on="0"/>
        <pt x="190" y="810" on="0"/>
      </contour>
      <contour>
        <pt x="316" y="846" on="0"/>
        <pt x="316" y="892" on="0"/>
        <pt x="350" y="927" on="0"/>
        <pt x="396" y="927" on="0"/>
        <pt x="429" y="892" on="0"/>
        <pt x="429" y="869" on="1"/>
        <pt x="429" y="845" on="0"/>
        <pt x="396" y="810" on="0"/>
        <pt x="350" y="810" on="0"/>
      </contour>
    </TTGlyph>
    <TTGlyph name="Edotaccent" xMin="54" yMin="0" xMax="525" yMax="927">
      <contour>
        <pt x="54" y="48" on="1"/>
        <pt x="54" y="683" on="1"/>
        <pt x="54" y="706" on="0"/>
        <pt x="94" y="731" on="0"/>
        <pt x="122" y="731" on="1"/>
        <pt x="478" y="731" on="1"/>
        <pt x="501" y="731" on="0"/>
        <pt x="525" y="691" on="0"/>
        <pt x="525" y="664" on="1"/>
        <pt x="525" y="635" on="0"/>
        <pt x="500" y="595" on="0"/>
        <pt x="478" y="595" on="1"/>
        <pt x="210" y="595" on="1"/>
        <pt x="210" y="426" on="1"/>
        <pt x="360" y="426" on="1"/>
        <pt x="382" y="426" on="0"/>
        <pt x="407" y="390" on="0"/>
        <pt x="407" y="365" on="1"/>
        <pt x="407" y="342" on="0"/>
        <pt x="383" y="306" on="0"/>
        <pt x="360" y="306" on="1"/>
        <pt x="210" y="306" on="1"/>
        <pt x="210" y="136" on="1"/>
        <pt x="478" y="136" on="1"/>
        <pt x="500" y="136" on="0"/>
        <pt x="525" y="96" on="0"/>
        <pt x="525" y="67" on="1"/>
        <pt x="525" y="40" on="0"/>
        <pt x="501" y="0" on="0"/>
        <pt x="478" y="0" on="1"/>
        <pt x="122" y="0" on="1"/>
        <pt x="94" y="0" on="0"/>
        <pt x="54" y="25" on="0"/>
      </contour>
      <contour>
        <pt x="246" y="846" on="0"/>
        <pt x="246" y="892" on="0"/>
        <pt x="280" y="927" on="0"/>
        <pt x="326" y="927" on="0"/>
        <pt x="359" y="892" on="0"/>
        <pt x="359" y="869" on="1"/>
        <pt x="359" y="845" on="0"/>
        <pt x="326" y="810" on="0"/>
        <pt x="280" y="810" on="0"/>
      </contour>
    </TTGlyph>
    <TTGlyph name="Egrave" xMin="54" yMin="0" xMax="525" yMax="959">
      <contour>
        <pt x="54" y="48" on="1"/>
        <pt x="54" y="683" on="1"/>
        <pt x="54" y="706" on="0"/>
        <pt x="94" y="731" on="0"/>
        <pt x="122" y="731" on="1"/>
        <pt x="478" y="731" on="1"/>
        <pt x="501" y="731" on="0"/>
        <pt x="525" y="691" on="0"/>
        <pt x="525" y="664" on="1"/>
        <pt x="525" y="635" on="0"/>
        <pt x="500" y="595" on="0"/>
        <pt x="478" y="595" on="1"/>
        <pt x="210" y="595" on="1"/>
        <pt x="210" y="426" on="1"/>
        <pt x="360" y="426" on="1"/>
        <pt x="382" y="426" on="0"/>
        <pt x="407" y="390" on="0"/>
        <pt x="407" y="365" on="1"/>
        <pt x="407" y="342" on="0"/>
        <pt x="383" y="306" on="0"/>
        <pt x="360" y="306" on="1"/>
        <pt x="210" y="306" on="1"/>
        <pt x="210" y="136" on="1"/>
        <pt x="478" y="136" on="1"/>
        <pt x="500" y="136" on="0"/>
        <pt x="525" y="96" on="0"/>
        <pt x="525" y="67" on="1"/>
        <pt x="525" y="40" on="0"/>
        <pt x="501" y="0" on="0"/>
        <pt x="478" y="0" on="1"/>
        <pt x="122" y="0" on="1"/>
        <pt x="94" y="0" on="0"/>
        <pt x="54" y="25" on="0"/>
      </contour>
      <contour>
        <pt x="173" y="901" on="1"/>
        <pt x="173" y="922" on="0"/>
        <pt x="201" y="959" on="0"/>
        <pt x="220" y="959" on="1"/>
        <pt x="226" y="959" on="0"/>
        <pt x="234" y="956" on="1"/>
        <pt x="374" y="891" on="1"/>
        <pt x="394" y="881" on="0"/>
        <pt x="394" y="856" on="1"/>
        <pt x="394" y="835" on="0"/>
        <pt x="367" y="798" on="0"/>
        <pt x="348" y="798" on="1"/>
        <pt x="343" y="798" on="0"/>
        <pt x="333" y="802" on="1"/>
        <pt x="193" y="867" on="1"/>
        <pt x="173" y="877" on="0"/>
      </contour>
    </TTGlyph>
    <TTGlyph name="Emacron" xMin="54" yMin="0" xMax="525" yMax="938">
      <contour>
        <pt x="54" y="48" on="1"/>
        <pt x="54" y="683" on="1"/>
        <pt x="54" y="706" on="0"/>
        <pt x="94" y="731" on="0"/>
        <pt x="122" y="731" on="1"/>
        <pt x="478" y="731" on="1"/>
        <pt x="501" y="731" on="0"/>
        <pt x="525" y="691" on="0"/>
        <pt x="525" y="664" on="1"/>
        <pt x="525" y="635" on="0"/>
        <pt x="500" y="595" on="0"/>
        <pt x="478" y="595" on="1"/>
        <pt x="210" y="595" on="1"/>
        <pt x="210" y="426" on="1"/>
        <pt x="360" y="426" on="1"/>
        <pt x="382" y="426" on="0"/>
        <pt x="407" y="390" on="0"/>
        <pt x="407" y="365" on="1"/>
        <pt x="407" y="342" on="0"/>
        <pt x="383" y="306" on="0"/>
        <pt x="360" y="306" on="1"/>
        <pt x="210" y="306" on="1"/>
        <pt x="210" y="136" on="1"/>
        <pt x="478" y="136" on="1"/>
        <pt x="500" y="136" on="0"/>
        <pt x="525" y="96" on="0"/>
        <pt x="525" y="67" on="1"/>
        <pt x="525" y="40" on="0"/>
        <pt x="501" y="0" on="0"/>
        <pt x="478" y="0" on="1"/>
        <pt x="122" y="0" on="1"/>
        <pt x="94" y="0" on="0"/>
        <pt x="54" y="25" on="0"/>
      </contour>
      <contour>
        <pt x="147" y="888" on="1"/>
        <pt x="147" y="909" on="0"/>
        <pt x="173" y="938" on="0"/>
        <pt x="194" y="938" on="1"/>
        <pt x="394" y="938" on="1"/>
        <pt x="412" y="938" on="0"/>
        <pt x="442" y="908" on="0"/>
        <pt x="442" y="888" on="1"/>
        <pt x="442" y="867" on="0"/>
        <pt x="413" y="839" on="0"/>
        <pt x="394" y="839" on="1"/>
        <pt x="194" y="839" on="1"/>
        <pt x="173" y="839" on="0"/>
        <pt x="147" y="866" on="0"/>
      </contour>
    </TTGlyph>
    <TTGlyph name="Eng" xMin="54" yMin="-217" xMax="565" yMax="731">
      <contour>
        <pt x="54" y="48" on="1"/>
        <pt x="54" y="683" on="1"/>
        <pt x="54" y="706" on="0"/>
        <pt x="100" y="731" on="0"/>
        <pt x="132" y="731" on="1"/>
        <pt x="177" y="731" on="0"/>
        <pt x="220" y="705" on="0"/>
        <pt x="247" y="653" on="1"/>
        <pt x="409" y="344" on="1"/>
        <pt x="409" y="684" on="1"/>
        <pt x="409" y="707" on="0"/>
        <pt x="455" y="731" on="0"/>
        <pt x="519" y="731" on="0"/>
        <pt x="565" y="707" on="0"/>
        <pt x="565" y="684" on="1"/>
        <pt x="565" y="-28" on="1"/>
        <pt x="565" y="-113" on="0"/>
        <pt x="481" y="-217" on="0"/>
        <pt x="406" y="-217" on="1"/>
        <pt x="325" y="-217" on="0"/>
        <pt x="325" y="-154" on="1"/>
        <pt x="325" y="-124" on="0"/>
        <pt x="358" y="-87" on="0"/>
        <pt x="383" y="-87" on="1"/>
        <pt x="409" y="-87" on="0"/>
        <pt x="409" y="-28" on="1"/>
        <pt x="409" y="8" on="1"/>
        <pt x="409" y="26" on="0"/>
        <pt x="400" y="42" on="1"/>
        <pt x="210" y="388" on="1"/>
        <pt x="210" y="48" on="1"/>
        <pt x="210" y="25" on="0"/>
        <pt x="164" y="0" on="0"/>
        <pt x="100" y="0" on="0"/>
        <pt x="54" y="25" on="0"/>
      </contour>
    </TTGlyph>
    <TTGlyph name="Eogonek" xMin="54" yMin="-218" xMax="525" yMax="731">
      <contour>
        <pt x="54" y="48" on="1"/>
        <pt x="54" y="683" on="1"/>
        <pt x="54" y="706" on="0"/>
        <pt x="94" y="731" on="0"/>
        <pt x="122" y="731" on="1"/>
        <pt x="478" y="731" on="1"/>
        <pt x="501" y="731" on="0"/>
        <pt x="525" y="691" on="0"/>
        <pt x="525" y="664" on="1"/>
        <pt x="525" y="635" on="0"/>
        <pt x="500" y="595" on="0"/>
        <pt x="478" y="595" on="1"/>
        <pt x="210" y="595" on="1"/>
        <pt x="210" y="426" on="1"/>
        <pt x="360" y="426" on="1"/>
        <pt x="382" y="426" on="0"/>
        <pt x="407" y="390" on="0"/>
        <pt x="407" y="365" on="1"/>
        <pt x="407" y="342" on="0"/>
        <pt x="383" y="306" on="0"/>
        <pt x="360" y="306" on="1"/>
        <pt x="210" y="306" on="1"/>
        <pt x="210" y="136" on="1"/>
        <pt x="478" y="136" on="1"/>
        <pt x="500" y="136" on="0"/>
        <pt x="525" y="96" on="0"/>
        <pt x="525" y="67" on="1"/>
        <pt x="525" y="13" on="0"/>
        <pt x="491" y="2" on="1"/>
        <pt x="462" y="-18" on="0"/>
        <pt x="424" y="-80" on="0"/>
        <pt x="424" y="-107" on="1"/>
        <pt x="424" y="-155" on="0"/>
        <pt x="482" y="-155" on="1"/>
        <pt x="507" y="-155" on="0"/>
        <pt x="507" y="-189" on="1"/>
        <pt x="507" y="-218" on="0"/>
        <pt x="476" y="-218" on="1"/>
        <pt x="413" y="-218" on="0"/>
        <pt x="351" y="-164" on="0"/>
        <pt x="351" y="-121" on="1"/>
        <pt x="351" y="-54" on="0"/>
        <pt x="411" y="0" on="1"/>
        <pt x="122" y="0" on="1"/>
        <pt x="94" y="0" on="0"/>
        <pt x="54" y="25" on="0"/>
      </contour>
    </TTGlyph>
    <TTGlyph name="Eth" xMin="-10" yMin="0" xMax="551" yMax="731">
      <contour>
        <pt x="-10" y="382" on="1"/>
        <pt x="-10" y="404" on="0"/>
        <pt x="10" y="437" on="0"/>
        <pt x="28" y="437" on="1"/>
        <pt x="60" y="437" on="1"/>
        <pt x="60" y="684" on="1"/>
        <pt x="60" y="703" on="0"/>
        <pt x="98" y="731" on="0"/>
        <pt x="128" y="731" on="1"/>
        <pt x="305" y="731" on="1"/>
        <pt x="417" y="731" on="0"/>
        <pt x="551" y="617" on="0"/>
        <pt x="551" y="495" on="1"/>
        <pt x="551" y="236" on="1"/>
        <pt x="551" y="114" on="0"/>
        <pt x="417" y="0" on="0"/>
        <pt x="305" y="0" on="1"/>
        <pt x="128" y="0" on="1"/>
        <pt x="98" y="0" on="0"/>
        <pt x="60" y="28" on="0"/>
        <pt x="60" y="47" on="1"/>
        <pt x="60" y="327" on="1"/>
        <pt x="28" y="327" on="1"/>
        <pt x="10" y="327" on="0"/>
        <pt x="-10" y="359" on="0"/>
      </contour>
      <contour>
        <pt x="216" y="136" on="1"/>
        <pt x="305" y="136" on="1"/>
        <pt x="395" y="136" on="0"/>
        <pt x="395" y="236" on="1"/>
        <pt x="395" y="495" on="1"/>
        <pt x="395" y="595" on="0"/>
        <pt x="305" y="595" on="1"/>
        <pt x="216" y="595" on="1"/>
        <pt x="216" y="437" on="1"/>
        <pt x="278" y="437" on="1"/>
        <pt x="296" y="437" on="0"/>
        <pt x="316" y="404" on="0"/>
        <pt x="316" y="382" on="1"/>
        <pt x="316" y="359" on="0"/>
        <pt x="296" y="327" on="0"/>
        <pt x="278" y="327" on="1"/>
        <pt x="216" y="327" on="1"/>
      </contour>
    </TTGlyph>
    <TTGlyph name="Euro" xMin="23" yMin="-6" xMax="601" yMax="731">
      <contour>
        <pt x="23" y="268" on="1"/>
        <pt x="23" y="292" on="0"/>
        <pt x="49" y="323" on="0"/>
        <pt x="70" y="323" on="1"/>
        <pt x="110" y="323" on="1"/>
        <pt x="110" y="383" on="1"/>
        <pt x="70" y="383" on="1"/>
        <pt x="49" y="383" on="0"/>
        <pt x="23" y="412" on="0"/>
        <pt x="23" y="435" on="1"/>
        <pt x="23" y="459" on="0"/>
        <pt x="49" y="490" on="0"/>
        <pt x="70" y="490" on="1"/>
        <pt x="110" y="490" on="1"/>
        <pt x="110" y="495" on="1"/>
        <pt x="110" y="617" on="0"/>
        <pt x="243" y="731" on="0"/>
        <pt x="351" y="731" on="1"/>
        <pt x="460" y="731" on="0"/>
        <pt x="601" y="625" on="0"/>
        <pt x="601" y="532" on="1"/>
        <pt x="601" y="490" on="0"/>
        <pt x="566" y="462" on="0"/>
        <pt x="522" y="462" on="1"/>
        <pt x="480" y="462" on="0"/>
        <pt x="445" y="482" on="0"/>
        <pt x="445" y="505" on="1"/>
        <pt x="445" y="595" on="0"/>
        <pt x="357" y="595" on="1"/>
        <pt x="266" y="595" on="0"/>
        <pt x="266" y="495" on="1"/>
        <pt x="266" y="490" on="1"/>
        <pt x="330" y="490" on="1"/>
        <pt x="348" y="490" on="0"/>
        <pt x="378" y="458" on="0"/>
        <pt x="378" y="414" on="0"/>
        <pt x="349" y="383" on="0"/>
        <pt x="330" y="383" on="1"/>
        <pt x="266" y="383" on="1"/>
        <pt x="266" y="323" on="1"/>
        <pt x="330" y="323" on="1"/>
        <pt x="348" y="323" on="0"/>
        <pt x="378" y="291" on="0"/>
        <pt x="378" y="269" on="1"/>
        <pt x="378" y="246" on="0"/>
        <pt x="349" y="216" on="0"/>
        <pt x="330" y="216" on="1"/>
        <pt x="266" y="216" on="1"/>
        <pt x="266" y="212" on="1"/>
        <pt x="266" y="204" on="0"/>
        <pt x="272" y="183" on="0"/>
        <pt x="288" y="151" on="0"/>
        <pt x="329" y="130" on="0"/>
        <pt x="358" y="130" on="1"/>
        <pt x="386" y="130" on="0"/>
        <pt x="423" y="149" on="0"/>
        <pt x="439" y="183" on="0"/>
        <pt x="445" y="211" on="0"/>
        <pt x="445" y="230" on="1"/>
        <pt x="446" y="254" on="0"/>
        <pt x="480" y="273" on="0"/>
        <pt x="522" y="273" on="1"/>
        <pt x="567" y="273" on="0"/>
        <pt x="601" y="245" on="0"/>
        <pt x="601" y="202" on="1"/>
        <pt x="601" y="106" on="0"/>
        <pt x="460" y="-6" on="0"/>
        <pt x="351" y="-6" on="1"/>
        <pt x="237" y="-6" on="0"/>
        <pt x="110" y="116" on="0"/>
        <pt x="110" y="212" on="1"/>
        <pt x="110" y="216" on="1"/>
        <pt x="70" y="216" on="1"/>
        <pt x="49" y="216" on="0"/>
        <pt x="23" y="245" on="0"/>
      </contour>
    </TTGlyph>
    <TTGlyph name="F" xMin="54" yMin="0" xMax="516" yMax="731">
      <contour>
        <pt x="54" y="48" on="1"/>
        <pt x="54" y="683" on="1"/>
        <pt x="54" y="706" on="0"/>
        <pt x="94" y="731" on="0"/>
        <pt x="122" y="731" on="1"/>
        <pt x="469" y="731" on="1"/>
        <pt x="492" y="731" on="0"/>
        <pt x="516" y="691" on="0"/>
        <pt x="516" y="664" on="1"/>
        <pt x="516" y="635" on="0"/>
        <pt x="491" y="595" on="0"/>
        <pt x="469" y="595" on="1"/>
        <pt x="210" y="595" on="1"/>
        <pt x="210" y="426" on="1"/>
        <pt x="361" y="426" on="1"/>
        <pt x="383" y="426" on="0"/>
        <pt x="408" y="390" on="0"/>
        <pt x="408" y="365" on="1"/>
        <pt x="408" y="342" on="0"/>
        <pt x="384" y="306" on="0"/>
        <pt x="361" y="306" on="1"/>
        <pt x="210" y="306" on="1"/>
        <pt x="210" y="48" on="1"/>
        <pt x="210" y="25" on="0"/>
        <pt x="164" y="0" on="0"/>
        <pt x="100" y="0" on="0"/>
        <pt x="54" y="25" on="0"/>
      </contour>
    </TTGlyph>
    <TTGlyph name="G" xMin="46" yMin="-6" xMax="537" yMax="731">
      <contour>
        <pt x="46" y="230" on="1"/>
        <pt x="46" y="495" on="1"/>
        <pt x="46" y="617" on="0"/>
        <pt x="179" y="731" on="0"/>
        <pt x="286" y="731" on="1"/>
        <pt x="396" y="731" on="0"/>
        <pt x="537" y="625" on="0"/>
        <pt x="537" y="532" on="1"/>
        <pt x="537" y="489" on="0"/>
        <pt x="501" y="458" on="0"/>
        <pt x="459" y="458" on="1"/>
        <pt x="382" y="458" on="0"/>
        <pt x="381" y="505" on="1"/>
        <pt x="381" y="519" on="0"/>
        <pt x="379" y="538" on="0"/>
        <pt x="369" y="566" on="0"/>
        <pt x="351" y="582" on="0"/>
        <pt x="316" y="595" on="0"/>
        <pt x="292" y="595" on="1"/>
        <pt x="202" y="595" on="0"/>
        <pt x="202" y="495" on="1"/>
        <pt x="202" y="230" on="1"/>
        <pt x="202" y="130" on="0"/>
        <pt x="291" y="130" on="1"/>
        <pt x="381" y="130" on="0"/>
        <pt x="381" y="230" on="1"/>
        <pt x="381" y="264" on="1"/>
        <pt x="322" y="264" on="1"/>
        <pt x="300" y="264" on="0"/>
        <pt x="275" y="299" on="0"/>
        <pt x="275" y="324" on="1"/>
        <pt x="275" y="347" on="0"/>
        <pt x="301" y="384" on="0"/>
        <pt x="322" y="384" on="1"/>
        <pt x="490" y="384" on="1"/>
        <pt x="512" y="384" on="0"/>
        <pt x="537" y="355" on="0"/>
        <pt x="537" y="335" on="1"/>
        <pt x="537" y="230" on="1"/>
        <pt x="537" y="108" on="0"/>
        <pt x="403" y="-6" on="0"/>
        <pt x="291" y="-6" on="1"/>
        <pt x="180" y="-6" on="0"/>
        <pt x="46" y="108" on="0"/>
      </contour>
    </TTGlyph>
    <TTGlyph name="Gbreve" xMin="46" yMin="-6" xMax="537" yMax="963">
      <contour>
        <pt x="46" y="230" on="1"/>
        <pt x="46" y="495" on="1"/>
        <pt x="46" y="617" on="0"/>
        <pt x="179" y="731" on="0"/>
        <pt x="286" y="731" on="1"/>
        <pt x="396" y="731" on="0"/>
        <pt x="537" y="625" on="0"/>
        <pt x="537" y="532" on="1"/>
        <pt x="537" y="489" on="0"/>
        <pt x="501" y="458" on="0"/>
        <pt x="459" y="458" on="1"/>
        <pt x="382" y="458" on="0"/>
        <pt x="381" y="505" on="1"/>
        <pt x="381" y="519" on="0"/>
        <pt x="379" y="538" on="0"/>
        <pt x="369" y="566" on="0"/>
        <pt x="351" y="582" on="0"/>
        <pt x="316" y="595" on="0"/>
        <pt x="292" y="595" on="1"/>
        <pt x="202" y="595" on="0"/>
        <pt x="202" y="495" on="1"/>
        <pt x="202" y="230" on="1"/>
        <pt x="202" y="130" on="0"/>
        <pt x="291" y="130" on="1"/>
        <pt x="381" y="130" on="0"/>
        <pt x="381" y="230" on="1"/>
        <pt x="381" y="264" on="1"/>
        <pt x="322" y="264" on="1"/>
        <pt x="300" y="264" on="0"/>
        <pt x="275" y="299" on="0"/>
        <pt x="275" y="324" on="1"/>
        <pt x="275" y="347" on="0"/>
        <pt x="301" y="384" on="0"/>
        <pt x="322" y="384" on="1"/>
        <pt x="490" y="384" on="1"/>
        <pt x="512" y="384" on="0"/>
        <pt x="537" y="355" on="0"/>
        <pt x="537" y="335" on="1"/>
        <pt x="537" y="230" on="1"/>
        <pt x="537" y="108" on="0"/>
        <pt x="403" y="-6" on="0"/>
        <pt x="291" y="-6" on="1"/>
        <pt x="180" y="-6" on="0"/>
        <pt x="46" y="108" on="0"/>
      </contour>
      <contour>
        <pt x="150" y="963" on="1"/>
        <pt x="230" y="963" on="1"/>
        <pt x="230" y="932" on="0"/>
        <pt x="267" y="890" on="0"/>
        <pt x="290" y="890" on="1"/>
        <pt x="312" y="890" on="0"/>
        <pt x="349" y="932" on="0"/>
        <pt x="349" y="963" on="1"/>
        <pt x="429" y="963" on="1"/>
        <pt x="429" y="908" on="0"/>
        <pt x="344" y="824" on="0"/>
        <pt x="236" y="824" on="0"/>
        <pt x="150" y="908" on="0"/>
      </contour>
    </TTGlyph>
    <TTGlyph name="Gcircumflex" xMin="46" yMin="-6" xMax="537" yMax="959">
      <contour>
        <pt x="46" y="230" on="1"/>
        <pt x="46" y="495" on="1"/>
        <pt x="46" y="617" on="0"/>
        <pt x="179" y="731" on="0"/>
        <pt x="286" y="731" on="1"/>
        <pt x="396" y="731" on="0"/>
        <pt x="537" y="625" on="0"/>
        <pt x="537" y="532" on="1"/>
        <pt x="537" y="489" on="0"/>
        <pt x="501" y="458" on="0"/>
        <pt x="459" y="458" on="1"/>
        <pt x="382" y="458" on="0"/>
        <pt x="381" y="505" on="1"/>
        <pt x="381" y="519" on="0"/>
        <pt x="379" y="538" on="0"/>
        <pt x="369" y="566" on="0"/>
        <pt x="351" y="582" on="0"/>
        <pt x="316" y="595" on="0"/>
        <pt x="292" y="595" on="1"/>
        <pt x="202" y="595" on="0"/>
        <pt x="202" y="495" on="1"/>
        <pt x="202" y="230" on="1"/>
        <pt x="202" y="130" on="0"/>
        <pt x="291" y="130" on="1"/>
        <pt x="381" y="130" on="0"/>
        <pt x="381" y="230" on="1"/>
        <pt x="381" y="264" on="1"/>
        <pt x="322" y="264" on="1"/>
        <pt x="300" y="264" on="0"/>
        <pt x="275" y="299" on="0"/>
        <pt x="275" y="324" on="1"/>
        <pt x="275" y="347" on="0"/>
        <pt x="301" y="384" on="0"/>
        <pt x="322" y="384" on="1"/>
        <pt x="490" y="384" on="1"/>
        <pt x="512" y="384" on="0"/>
        <pt x="537" y="355" on="0"/>
        <pt x="537" y="335" on="1"/>
        <pt x="537" y="230" on="1"/>
        <pt x="537" y="108" on="0"/>
        <pt x="403" y="-6" on="0"/>
        <pt x="291" y="-6" on="1"/>
        <pt x="180" y="-6" on="0"/>
        <pt x="46" y="108" on="0"/>
      </contour>
      <contour>
        <pt x="130" y="854" on="1"/>
        <pt x="130" y="884" on="0"/>
        <pt x="155" y="898" on="1"/>
        <pt x="259" y="954" on="1"/>
        <pt x="269" y="959" on="0"/>
        <pt x="283" y="959" on="0"/>
        <pt x="293" y="954" on="1"/>
        <pt x="397" y="898" on="1"/>
        <pt x="422" y="884" on="0"/>
        <pt x="422" y="854" on="1"/>
        <pt x="422" y="836" on="0"/>
        <pt x="404" y="808" on="0"/>
        <pt x="391" y="808" on="1"/>
        <pt x="386" y="808" on="0"/>
        <pt x="380" y="811" on="1"/>
        <pt x="276" y="867" on="1"/>
        <pt x="172" y="811" on="1"/>
        <pt x="166" y="808" on="0"/>
        <pt x="161" y="808" on="1"/>
        <pt x="148" y="808" on="0"/>
        <pt x="130" y="836" on="0"/>
      </contour>
    </TTGlyph>
    <TTGlyph name="Gcommaaccent" xMin="46" yMin="-209" xMax="537" yMax="731">
      <contour>
        <pt x="46" y="230" on="1"/>
        <pt x="46" y="495" on="1"/>
        <pt x="46" y="617" on="0"/>
        <pt x="179" y="731" on="0"/>
        <pt x="286" y="731" on="1"/>
        <pt x="396" y="731" on="0"/>
        <pt x="537" y="625" on="0"/>
        <pt x="537" y="532" on="1"/>
        <pt x="537" y="489" on="0"/>
        <pt x="501" y="458" on="0"/>
        <pt x="459" y="458" on="1"/>
        <pt x="382" y="458" on="0"/>
        <pt x="381" y="505" on="1"/>
        <pt x="381" y="519" on="0"/>
        <pt x="379" y="538" on="0"/>
        <pt x="369" y="566" on="0"/>
        <pt x="351" y="582" on="0"/>
        <pt x="316" y="595" on="0"/>
        <pt x="292" y="595" on="1"/>
        <pt x="202" y="595" on="0"/>
        <pt x="202" y="495" on="1"/>
        <pt x="202" y="230" on="1"/>
        <pt x="202" y="130" on="0"/>
        <pt x="291" y="130" on="1"/>
        <pt x="381" y="130" on="0"/>
        <pt x="381" y="230" on="1"/>
        <pt x="381" y="264" on="1"/>
        <pt x="322" y="264" on="1"/>
        <pt x="300" y="264" on="0"/>
        <pt x="275" y="299" on="0"/>
        <pt x="275" y="324" on="1"/>
        <pt x="275" y="347" on="0"/>
        <pt x="301" y="384" on="0"/>
        <pt x="322" y="384" on="1"/>
        <pt x="490" y="384" on="1"/>
        <pt x="512" y="384" on="0"/>
        <pt x="537" y="355" on="0"/>
        <pt x="537" y="335" on="1"/>
        <pt x="537" y="230" on="1"/>
        <pt x="537" y="108" on="0"/>
        <pt x="403" y="-6" on="0"/>
        <pt x="291" y="-6" on="1"/>
        <pt x="180" y="-6" on="0"/>
        <pt x="46" y="108" on="0"/>
      </contour>
      <contour>
        <pt x="180" y="-151" on="1"/>
        <pt x="180" y="-126" on="0"/>
        <pt x="200" y="-116" on="1"/>
        <pt x="340" y="-51" on="1"/>
        <pt x="348" y="-48" on="0"/>
        <pt x="354" y="-48" on="1"/>
        <pt x="373" y="-48" on="0"/>
        <pt x="401" y="-85" on="0"/>
        <pt x="401" y="-106" on="1"/>
        <pt x="401" y="-130" on="0"/>
        <pt x="381" y="-140" on="1"/>
        <pt x="241" y="-205" on="1"/>
        <pt x="231" y="-209" on="0"/>
        <pt x="226" y="-209" on="1"/>
        <pt x="207" y="-209" on="0"/>
        <pt x="180" y="-172" on="0"/>
      </contour>
    </TTGlyph>
    <TTGlyph name="Gdotaccent" xMin="46" yMin="-6" xMax="537" yMax="927">
      <contour>
        <pt x="46" y="230" on="1"/>
        <pt x="46" y="495" on="1"/>
        <pt x="46" y="617" on="0"/>
        <pt x="179" y="731" on="0"/>
        <pt x="286" y="731" on="1"/>
        <pt x="396" y="731" on="0"/>
        <pt x="537" y="625" on="0"/>
        <pt x="537" y="532" on="1"/>
        <pt x="537" y="489" on="0"/>
        <pt x="501" y="458" on="0"/>
        <pt x="459" y="458" on="1"/>
        <pt x="382" y="458" on="0"/>
        <pt x="381" y="505" on="1"/>
        <pt x="381" y="519" on="0"/>
        <pt x="379" y="538" on="0"/>
        <pt x="369" y="566" on="0"/>
        <pt x="351" y="582" on="0"/>
        <pt x="316" y="595" on="0"/>
        <pt x="292" y="595" on="1"/>
        <pt x="202" y="595" on="0"/>
        <pt x="202" y="495" on="1"/>
        <pt x="202" y="230" on="1"/>
        <pt x="202" y="130" on="0"/>
        <pt x="291" y="130" on="1"/>
        <pt x="381" y="130" on="0"/>
        <pt x="381" y="230" on="1"/>
        <pt x="381" y="264" on="1"/>
        <pt x="322" y="264" on="1"/>
        <pt x="300" y="264" on="0"/>
        <pt x="275" y="299" on="0"/>
        <pt x="275" y="324" on="1"/>
        <pt x="275" y="347" on="0"/>
        <pt x="301" y="384" on="0"/>
        <pt x="322" y="384" on="1"/>
        <pt x="490" y="384" on="1"/>
        <pt x="512" y="384" on="0"/>
        <pt x="537" y="355" on="0"/>
        <pt x="537" y="335" on="1"/>
        <pt x="537" y="230" on="1"/>
        <pt x="537" y="108" on="0"/>
        <pt x="403" y="-6" on="0"/>
        <pt x="291" y="-6" on="1"/>
        <pt x="180" y="-6" on="0"/>
        <pt x="46" y="108" on="0"/>
      </contour>
      <contour>
        <pt x="230" y="846" on="0"/>
        <pt x="230" y="892" on="0"/>
        <pt x="264" y="927" on="0"/>
        <pt x="310" y="927" on="0"/>
        <pt x="343" y="892" on="0"/>
        <pt x="343" y="869" on="1"/>
        <pt x="343" y="845" on="0"/>
        <pt x="310" y="810" on="0"/>
        <pt x="264" y="810" on="0"/>
      </contour>
    </TTGlyph>
    <TTGlyph name="H" xMin="54" yMin="0" xMax="565" yMax="731">
      <contour>
        <pt x="54" y="48" on="1"/>
        <pt x="54" y="684" on="1"/>
        <pt x="54" y="707" on="0"/>
        <pt x="100" y="731" on="0"/>
        <pt x="164" y="731" on="0"/>
        <pt x="210" y="707" on="0"/>
        <pt x="210" y="684" on="1"/>
        <pt x="210" y="439" on="1"/>
        <pt x="409" y="439" on="1"/>
        <pt x="409" y="684" on="1"/>
        <pt x="409" y="707" on="0"/>
        <pt x="455" y="731" on="0"/>
        <pt x="519" y="731" on="0"/>
        <pt x="565" y="707" on="0"/>
        <pt x="565" y="684" on="1"/>
        <pt x="565" y="48" on="1"/>
        <pt x="565" y="25" on="0"/>
        <pt x="519" y="0" on="0"/>
        <pt x="455" y="0" on="0"/>
        <pt x="409" y="25" on="0"/>
        <pt x="409" y="48" on="1"/>
        <pt x="409" y="319" on="1"/>
        <pt x="210" y="319" on="1"/>
        <pt x="210" y="48" on="1"/>
        <pt x="210" y="25" on="0"/>
        <pt x="164" y="0" on="0"/>
        <pt x="100" y="0" on="0"/>
        <pt x="54" y="25" on="0"/>
      </contour>
    </TTGlyph>
    <TTGlyph name="Hbar" xMin="15" yMin="0" xMax="607" yMax="731">
      <contour>
        <pt x="15" y="561" on="0"/>
        <pt x="15" y="601" on="0"/>
        <pt x="34" y="630" on="0"/>
        <pt x="52" y="630" on="1"/>
        <pt x="56" y="630" on="1"/>
        <pt x="56" y="684" on="1"/>
        <pt x="56" y="707" on="0"/>
        <pt x="102" y="731" on="0"/>
        <pt x="166" y="731" on="0"/>
        <pt x="212" y="707" on="0"/>
        <pt x="212" y="684" on="1"/>
        <pt x="212" y="630" on="1"/>
        <pt x="411" y="630" on="1"/>
        <pt x="411" y="684" on="1"/>
        <pt x="411" y="707" on="0"/>
        <pt x="457" y="731" on="0"/>
        <pt x="521" y="731" on="0"/>
        <pt x="567" y="707" on="0"/>
        <pt x="567" y="684" on="1"/>
        <pt x="567" y="630" on="1"/>
        <pt x="571" y="630" on="1"/>
        <pt x="589" y="630" on="0"/>
        <pt x="607" y="601" on="0"/>
        <pt x="607" y="581" on="1"/>
        <pt x="607" y="560" on="0"/>
        <pt x="589" y="532" on="0"/>
        <pt x="571" y="532" on="1"/>
        <pt x="567" y="532" on="1"/>
        <pt x="567" y="48" on="1"/>
        <pt x="567" y="25" on="0"/>
        <pt x="521" y="0" on="0"/>
        <pt x="457" y="0" on="0"/>
        <pt x="411" y="25" on="0"/>
        <pt x="411" y="48" on="1"/>
        <pt x="411" y="319" on="1"/>
        <pt x="212" y="319" on="1"/>
        <pt x="212" y="48" on="1"/>
        <pt x="212" y="25" on="0"/>
        <pt x="166" y="0" on="0"/>
        <pt x="102" y="0" on="0"/>
        <pt x="56" y="25" on="0"/>
        <pt x="56" y="48" on="1"/>
        <pt x="56" y="532" on="1"/>
        <pt x="52" y="532" on="1"/>
        <pt x="34" y="532" on="0"/>
      </contour>
      <contour>
        <pt x="212" y="439" on="1"/>
        <pt x="411" y="439" on="1"/>
        <pt x="411" y="532" on="1"/>
        <pt x="212" y="532" on="1"/>
      </contour>
    </TTGlyph>
    <TTGlyph name="Hcircumflex" xMin="54" yMin="0" xMax="565" yMax="959">
      <contour>
        <pt x="54" y="48" on="1"/>
        <pt x="54" y="684" on="1"/>
        <pt x="54" y="707" on="0"/>
        <pt x="100" y="731" on="0"/>
        <pt x="164" y="731" on="0"/>
        <pt x="210" y="707" on="0"/>
        <pt x="210" y="684" on="1"/>
        <pt x="210" y="439" on="1"/>
        <pt x="409" y="439" on="1"/>
        <pt x="409" y="684" on="1"/>
        <pt x="409" y="707" on="0"/>
        <pt x="455" y="731" on="0"/>
        <pt x="519" y="731" on="0"/>
        <pt x="565" y="707" on="0"/>
        <pt x="565" y="684" on="1"/>
        <pt x="565" y="48" on="1"/>
        <pt x="565" y="25" on="0"/>
        <pt x="519" y="0" on="0"/>
        <pt x="455" y="0" on="0"/>
        <pt x="409" y="25" on="0"/>
        <pt x="409" y="48" on="1"/>
        <pt x="409" y="319" on="1"/>
        <pt x="210" y="319" on="1"/>
        <pt x="210" y="48" on="1"/>
        <pt x="210" y="25" on="0"/>
        <pt x="164" y="0" on="0"/>
        <pt x="100" y="0" on="0"/>
        <pt x="54" y="25" on="0"/>
      </contour>
      <contour>
        <pt x="164" y="854" on="1"/>
        <pt x="164" y="884" on="0"/>
        <pt x="189" y="898" on="1"/>
        <pt x="293" y="954" on="1"/>
        <pt x="303" y="959" on="0"/>
        <pt x="317" y="959" on="0"/>
        <pt x="327" y="954" on="1"/>
        <pt x="431" y="898" on="1"/>
        <pt x="456" y="884" on="0"/>
        <pt x="456" y="854" on="1"/>
        <pt x="456" y="836" on="0"/>
        <pt x="438" y="808" on="0"/>
        <pt x="425" y="808" on="1"/>
        <pt x="420" y="808" on="0"/>
        <pt x="414" y="811" on="1"/>
        <pt x="310" y="867" on="1"/>
        <pt x="206" y="811" on="1"/>
        <pt x="200" y="808" on="0"/>
        <pt x="195" y="808" on="1"/>
        <pt x="182" y="808" on="0"/>
        <pt x="164" y="836" on="0"/>
      </contour>
    </TTGlyph>
    <TTGlyph name="I" xMin="54" yMin="0" xMax="210" yMax="731">
      <contour>
        <pt x="54" y="48" on="1"/>
        <pt x="54" y="684" on="1"/>
        <pt x="54" y="707" on="0"/>
        <pt x="100" y="731" on="0"/>
        <pt x="164" y="731" on="0"/>
        <pt x="210" y="707" on="0"/>
        <pt x="210" y="684" on="1"/>
        <pt x="210" y="48" on="1"/>
        <pt x="210" y="25" on="0"/>
        <pt x="164" y="0" on="0"/>
        <pt x="100" y="0" on="0"/>
        <pt x="54" y="25" on="0"/>
      </contour>
    </TTGlyph>
    <TTGlyph name="IJ" xMin="54" yMin="-6" xMax="754" yMax="731">
      <contour>
        <pt x="54" y="48" on="1"/>
        <pt x="54" y="684" on="1"/>
        <pt x="54" y="707" on="0"/>
        <pt x="100" y="731" on="0"/>
        <pt x="164" y="731" on="0"/>
        <pt x="210" y="707" on="0"/>
        <pt x="210" y="684" on="1"/>
        <pt x="210" y="48" on="1"/>
        <pt x="210" y="25" on="0"/>
        <pt x="164" y="0" on="0"/>
        <pt x="100" y="0" on="0"/>
        <pt x="54" y="25" on="0"/>
      </contour>
      <contour>
        <pt x="263" y="203" on="1"/>
        <pt x="263" y="246" on="0"/>
        <pt x="299" y="277" on="0"/>
        <pt x="342" y="277" on="1"/>
        <pt x="415" y="277" on="0"/>
        <pt x="419" y="230" on="1"/>
        <pt x="421" y="209" on="0"/>
        <pt x="426" y="185" on="0"/>
        <pt x="442" y="148" on="0"/>
        <pt x="479" y="130" on="0"/>
        <pt x="507" y="130" on="1"/>
        <pt x="598" y="130" on="0"/>
        <pt x="598" y="230" on="1"/>
        <pt x="598" y="595" on="1"/>
        <pt x="511" y="595" on="1"/>
        <pt x="489" y="595" on="0"/>
        <pt x="464" y="635" on="0"/>
        <pt x="464" y="664" on="1"/>
        <pt x="464" y="691" on="0"/>
        <pt x="488" y="731" on="0"/>
        <pt x="511" y="731" on="1"/>
        <pt x="686" y="731" on="1"/>
        <pt x="714" y="731" on="0"/>
        <pt x="754" y="706" on="0"/>
        <pt x="754" y="683" on="1"/>
        <pt x="754" y="230" on="1"/>
        <pt x="754" y="108" on="0"/>
        <pt x="621" y="-6" on="0"/>
        <pt x="514" y="-6" on="1"/>
        <pt x="404" y="-6" on="0"/>
        <pt x="263" y="106" on="0"/>
      </contour>
    </TTGlyph>
    <TTGlyph name="Iacute" xMin="31" yMin="0" xMax="252" yMax="959">
      <contour>
        <pt x="31" y="856" on="1"/>
        <pt x="31" y="881" on="0"/>
        <pt x="51" y="891" on="1"/>
        <pt x="191" y="956" on="1"/>
        <pt x="198" y="959" on="0"/>
        <pt x="205" y="959" on="1"/>
        <pt x="224" y="959" on="0"/>
        <pt x="252" y="922" on="0"/>
        <pt x="252" y="901" on="1"/>
        <pt x="252" y="877" on="0"/>
        <pt x="232" y="867" on="1"/>
        <pt x="92" y="802" on="1"/>
        <pt x="82" y="798" on="0"/>
        <pt x="77" y="798" on="1"/>
        <pt x="58" y="798" on="0"/>
        <pt x="31" y="835" on="0"/>
      </contour>
      <contour>
        <pt x="54" y="48" on="1"/>
        <pt x="54" y="684" on="1"/>
        <pt x="54" y="707" on="0"/>
        <pt x="100" y="731" on="0"/>
        <pt x="164" y="731" on="0"/>
        <pt x="210" y="707" on="0"/>
        <pt x="210" y="684" on="1"/>
        <pt x="210" y="48" on="1"/>
        <pt x="210" y="25" on="0"/>
        <pt x="164" y="0" on="0"/>
        <pt x="100" y="0" on="0"/>
        <pt x="54" y="25" on="0"/>
      </contour>
    </TTGlyph>
    <TTGlyph name="Ibreve" xMin="-7" yMin="0" xMax="272" yMax="963">
      <contour>
        <pt x="-7" y="963" on="1"/>
        <pt x="73" y="963" on="1"/>
        <pt x="73" y="932" on="0"/>
        <pt x="110" y="890" on="0"/>
        <pt x="133" y="890" on="1"/>
        <pt x="155" y="890" on="0"/>
        <pt x="192" y="932" on="0"/>
        <pt x="192" y="963" on="1"/>
        <pt x="272" y="963" on="1"/>
        <pt x="272" y="908" on="0"/>
        <pt x="187" y="824" on="0"/>
        <pt x="79" y="824" on="0"/>
        <pt x="-7" y="908" on="0"/>
      </contour>
      <contour>
        <pt x="54" y="48" on="1"/>
        <pt x="54" y="684" on="1"/>
        <pt x="54" y="707" on="0"/>
        <pt x="100" y="731" on="0"/>
        <pt x="164" y="731" on="0"/>
        <pt x="210" y="707" on="0"/>
        <pt x="210" y="684" on="1"/>
        <pt x="210" y="48" on="1"/>
        <pt x="210" y="25" on="0"/>
        <pt x="164" y="0" on="0"/>
        <pt x="100" y="0" on="0"/>
        <pt x="54" y="25" on="0"/>
      </contour>
    </TTGlyph>
    <TTGlyph name="Icircumflex" xMin="-12" yMin="0" xMax="280" yMax="959">
      <contour>
        <pt x="-12" y="854" on="1"/>
        <pt x="-12" y="884" on="0"/>
        <pt x="13" y="898" on="1"/>
        <pt x="117" y="954" on="1"/>
        <pt x="127" y="959" on="0"/>
        <pt x="141" y="959" on="0"/>
        <pt x="151" y="954" on="1"/>
        <pt x="255" y="898" on="1"/>
        <pt x="280" y="884" on="0"/>
        <pt x="280" y="854" on="1"/>
        <pt x="280" y="836" on="0"/>
        <pt x="262" y="808" on="0"/>
        <pt x="249" y="808" on="1"/>
        <pt x="244" y="808" on="0"/>
        <pt x="238" y="811" on="1"/>
        <pt x="134" y="867" on="1"/>
        <pt x="30" y="811" on="1"/>
        <pt x="24" y="808" on="0"/>
        <pt x="19" y="808" on="1"/>
        <pt x="6" y="808" on="0"/>
        <pt x="-12" y="836" on="0"/>
      </contour>
      <contour>
        <pt x="54" y="48" on="1"/>
        <pt x="54" y="684" on="1"/>
        <pt x="54" y="707" on="0"/>
        <pt x="100" y="731" on="0"/>
        <pt x="164" y="731" on="0"/>
        <pt x="210" y="707" on="0"/>
        <pt x="210" y="684" on="1"/>
        <pt x="210" y="48" on="1"/>
        <pt x="210" y="25" on="0"/>
        <pt x="164" y="0" on="0"/>
        <pt x="100" y="0" on="0"/>
        <pt x="54" y="25" on="0"/>
      </contour>
    </TTGlyph>
    <TTGlyph name="Idieresis" xMin="-3" yMin="0" xMax="270" yMax="927">
      <contour>
        <pt x="-3" y="846" on="0"/>
        <pt x="-3" y="892" on="0"/>
        <pt x="31" y="927" on="0"/>
        <pt x="77" y="927" on="0"/>
        <pt x="110" y="892" on="0"/>
        <pt x="110" y="869" on="1"/>
        <pt x="110" y="845" on="0"/>
        <pt x="77" y="810" on="0"/>
        <pt x="31" y="810" on="0"/>
      </contour>
      <contour>
        <pt x="54" y="48" on="1"/>
        <pt x="54" y="684" on="1"/>
        <pt x="54" y="707" on="0"/>
        <pt x="100" y="731" on="0"/>
        <pt x="164" y="731" on="0"/>
        <pt x="210" y="707" on="0"/>
        <pt x="210" y="684" on="1"/>
        <pt x="210" y="48" on="1"/>
        <pt x="210" y="25" on="0"/>
        <pt x="164" y="0" on="0"/>
        <pt x="100" y="0" on="0"/>
        <pt x="54" y="25" on="0"/>
      </contour>
      <contour>
        <pt x="157" y="846" on="0"/>
        <pt x="157" y="892" on="0"/>
        <pt x="191" y="927" on="0"/>
        <pt x="237" y="927" on="0"/>
        <pt x="270" y="892" on="0"/>
        <pt x="270" y="869" on="1"/>
        <pt x="270" y="845" on="0"/>
        <pt x="237" y="810" on="0"/>
        <pt x="191" y="810" on="0"/>
      </contour>
    </TTGlyph>
    <TTGlyph name="Idotaccent" xMin="54" yMin="0" xMax="210" yMax="927">
      <contour>
        <pt x="54" y="48" on="1"/>
        <pt x="54" y="684" on="1"/>
        <pt x="54" y="707" on="0"/>
        <pt x="100" y="731" on="0"/>
        <pt x="164" y="731" on="0"/>
        <pt x="210" y="707" on="0"/>
        <pt x="210" y="684" on="1"/>
        <pt x="210" y="48" on="1"/>
        <pt x="210" y="25" on="0"/>
        <pt x="164" y="0" on="0"/>
        <pt x="100" y="0" on="0"/>
        <pt x="54" y="25" on="0"/>
      </contour>
      <contour>
        <pt x="76" y="846" on="0"/>
        <pt x="76" y="892" on="0"/>
        <pt x="110" y="927" on="0"/>
        <pt x="156" y="927" on="0"/>
        <pt x="189" y="892" on="0"/>
        <pt x="189" y="869" on="1"/>
        <pt x="189" y="845" on="0"/>
        <pt x="156" y="810" on="0"/>
        <pt x="110" y="810" on="0"/>
      </contour>
    </TTGlyph>
    <TTGlyph name="Igrave" xMin="13" yMin="0" xMax="234" yMax="959">
      <contour>
        <pt x="13" y="901" on="1"/>
        <pt x="13" y="922" on="0"/>
        <pt x="41" y="959" on="0"/>
        <pt x="60" y="959" on="1"/>
        <pt x="66" y="959" on="0"/>
        <pt x="74" y="956" on="1"/>
        <pt x="214" y="891" on="1"/>
        <pt x="234" y="881" on="0"/>
        <pt x="234" y="856" on="1"/>
        <pt x="234" y="835" on="0"/>
        <pt x="207" y="798" on="0"/>
        <pt x="188" y="798" on="1"/>
        <pt x="183" y="798" on="0"/>
        <pt x="173" y="802" on="1"/>
        <pt x="33" y="867" on="1"/>
        <pt x="13" y="877" on="0"/>
      </contour>
      <contour>
        <pt x="54" y="48" on="1"/>
        <pt x="54" y="684" on="1"/>
        <pt x="54" y="707" on="0"/>
        <pt x="100" y="731" on="0"/>
        <pt x="164" y="731" on="0"/>
        <pt x="210" y="707" on="0"/>
        <pt x="210" y="684" on="1"/>
        <pt x="210" y="48" on="1"/>
        <pt x="210" y="25" on="0"/>
        <pt x="164" y="0" on="0"/>
        <pt x="100" y="0" on="0"/>
        <pt x="54" y="25" on="0"/>
      </contour>
    </TTGlyph>
    <TTGlyph name="Imacron" xMin="-16" yMin="0" xMax="279" yMax="938">
      <contour>
        <pt x="-16" y="888" on="1"/>
        <pt x="-16" y="909" on="0"/>
        <pt x="10" y="938" on="0"/>
        <pt x="31" y="938" on="1"/>
        <pt x="231" y="938" on="1"/>
        <pt x="250" y="938" on="0"/>
        <pt x="279" y="908" on="0"/>
        <pt x="279" y="888" on="1"/>
        <pt x="279" y="867" on="0"/>
        <pt x="250" y="839" on="0"/>
        <pt x="231" y="839" on="1"/>
        <pt x="31" y="839" on="1"/>
        <pt x="10" y="839" on="0"/>
        <pt x="-16" y="866" on="0"/>
      </contour>
      <contour>
        <pt x="54" y="48" on="1"/>
        <pt x="54" y="684" on="1"/>
        <pt x="54" y="707" on="0"/>
        <pt x="100" y="731" on="0"/>
        <pt x="164" y="731" on="0"/>
        <pt x="210" y="707" on="0"/>
        <pt x="210" y="684" on="1"/>
        <pt x="210" y="48" on="1"/>
        <pt x="210" y="25" on="0"/>
        <pt x="164" y="0" on="0"/>
        <pt x="100" y="0" on="0"/>
        <pt x="54" y="25" on="0"/>
      </contour>
    </TTGlyph>
    <TTGlyph name="Iogonek" xMin="26" yMin="-218" xMax="210" yMax="731">
      <contour>
        <pt x="26" y="-121" on="1"/>
        <pt x="26" y="-49" on="0"/>
        <pt x="92" y="6" on="1"/>
        <pt x="54" y="18" on="0"/>
        <pt x="54" y="48" on="1"/>
        <pt x="54" y="684" on="1"/>
        <pt x="54" y="707" on="0"/>
        <pt x="100" y="731" on="0"/>
        <pt x="164" y="731" on="0"/>
        <pt x="210" y="707" on="0"/>
        <pt x="210" y="684" on="1"/>
        <pt x="210" y="48" on="1"/>
        <pt x="210" y="19" on="0"/>
        <pt x="174" y="7" on="1"/>
        <pt x="142" y="-11" on="0"/>
        <pt x="99" y="-78" on="0"/>
        <pt x="99" y="-107" on="1"/>
        <pt x="99" y="-155" on="0"/>
        <pt x="157" y="-155" on="1"/>
        <pt x="182" y="-155" on="0"/>
        <pt x="182" y="-189" on="1"/>
        <pt x="182" y="-218" on="0"/>
        <pt x="151" y="-218" on="1"/>
        <pt x="88" y="-218" on="0"/>
        <pt x="26" y="-164" on="0"/>
      </contour>
    </TTGlyph>
    <TTGlyph name="Itilde" xMin="-46" yMin="0" xMax="309" yMax="946">
      <contour>
        <pt x="-46" y="873" on="1"/>
        <pt x="-46" y="946" on="0"/>
        <pt x="39" y="946" on="1"/>
        <pt x="70" y="946" on="0"/>
        <pt x="158" y="919" on="0"/>
        <pt x="185" y="919" on="1"/>
        <pt x="208" y="919" on="0"/>
        <pt x="262" y="940" on="0"/>
        <pt x="271" y="940" on="1"/>
        <pt x="291" y="940" on="0"/>
        <pt x="309" y="905" on="0"/>
        <pt x="309" y="891" on="1"/>
        <pt x="309" y="818" on="0"/>
        <pt x="224" y="818" on="1"/>
        <pt x="186" y="818" on="0"/>
        <pt x="99" y="845" on="0"/>
        <pt x="78" y="845" on="1"/>
        <pt x="55" y="845" on="0"/>
        <pt x="1" y="824" on="0"/>
        <pt x="-8" y="824" on="1"/>
        <pt x="-28" y="824" on="0"/>
        <pt x="-46" y="859" on="0"/>
      </contour>
      <contour>
        <pt x="54" y="48" on="1"/>
        <pt x="54" y="684" on="1"/>
        <pt x="54" y="707" on="0"/>
        <pt x="100" y="731" on="0"/>
        <pt x="164" y="731" on="0"/>
        <pt x="210" y="707" on="0"/>
        <pt x="210" y="684" on="1"/>
        <pt x="210" y="48" on="1"/>
        <pt x="210" y="25" on="0"/>
        <pt x="164" y="0" on="0"/>
        <pt x="100" y="0" on="0"/>
        <pt x="54" y="25" on="0"/>
      </contour>
    </TTGlyph>
    <TTGlyph name="J" xMin="6" yMin="-6" xMax="497" yMax="731">
      <contour>
        <pt x="6" y="203" on="1"/>
        <pt x="6" y="246" on="0"/>
        <pt x="42" y="277" on="0"/>
        <pt x="85" y="277" on="1"/>
        <pt x="158" y="277" on="0"/>
        <pt x="162" y="230" on="1"/>
        <pt x="164" y="209" on="0"/>
        <pt x="169" y="185" on="0"/>
        <pt x="185" y="148" on="0"/>
        <pt x="222" y="130" on="0"/>
        <pt x="250" y="130" on="1"/>
        <pt x="341" y="130" on="0"/>
        <pt x="341" y="230" on="1"/>
        <pt x="341" y="595" on="1"/>
        <pt x="254" y="595" on="1"/>
        <pt x="232" y="595" on="0"/>
        <pt x="207" y="635" on="0"/>
        <pt x="207" y="664" on="1"/>
        <pt x="207" y="691" on="0"/>
        <pt x="231" y="731" on="0"/>
        <pt x="254" y="731" on="1"/>
        <pt x="429" y="731" on="1"/>
        <pt x="457" y="731" on="0"/>
        <pt x="497" y="706" on="0"/>
        <pt x="497" y="683" on="1"/>
        <pt x="497" y="230" on="1"/>
        <pt x="497" y="108" on="0"/>
        <pt x="364" y="-6" on="0"/>
        <pt x="257" y="-6" on="1"/>
        <pt x="147" y="-6" on="0"/>
        <pt x="6" y="106" on="0"/>
      </contour>
    </TTGlyph>
    <TTGlyph name="Jcircumflex" xMin="6" yMin="-6" xMax="497" yMax="959">
      <contour>
        <pt x="6" y="203" on="1"/>
        <pt x="6" y="246" on="0"/>
        <pt x="42" y="277" on="0"/>
        <pt x="85" y="277" on="1"/>
        <pt x="158" y="277" on="0"/>
        <pt x="162" y="230" on="1"/>
        <pt x="164" y="209" on="0"/>
        <pt x="169" y="185" on="0"/>
        <pt x="185" y="148" on="0"/>
        <pt x="222" y="130" on="0"/>
        <pt x="250" y="130" on="1"/>
        <pt x="341" y="130" on="0"/>
        <pt x="341" y="230" on="1"/>
        <pt x="341" y="595" on="1"/>
        <pt x="254" y="595" on="1"/>
        <pt x="232" y="595" on="0"/>
        <pt x="207" y="635" on="0"/>
        <pt x="207" y="664" on="1"/>
        <pt x="207" y="691" on="0"/>
        <pt x="231" y="731" on="0"/>
        <pt x="254" y="731" on="1"/>
        <pt x="429" y="731" on="1"/>
        <pt x="457" y="731" on="0"/>
        <pt x="497" y="706" on="0"/>
        <pt x="497" y="683" on="1"/>
        <pt x="497" y="230" on="1"/>
        <pt x="497" y="108" on="0"/>
        <pt x="364" y="-6" on="0"/>
        <pt x="257" y="-6" on="1"/>
        <pt x="147" y="-6" on="0"/>
        <pt x="6" y="106" on="0"/>
      </contour>
      <contour>
        <pt x="128" y="854" on="1"/>
        <pt x="128" y="884" on="0"/>
        <pt x="153" y="898" on="1"/>
        <pt x="257" y="954" on="1"/>
        <pt x="267" y="959" on="0"/>
        <pt x="281" y="959" on="0"/>
        <pt x="291" y="954" on="1"/>
        <pt x="395" y="898" on="1"/>
        <pt x="420" y="884" on="0"/>
        <pt x="420" y="854" on="1"/>
        <pt x="420" y="836" on="0"/>
        <pt x="402" y="808" on="0"/>
        <pt x="389" y="808" on="1"/>
        <pt x="384" y="808" on="0"/>
        <pt x="378" y="811" on="1"/>
        <pt x="274" y="867" on="1"/>
        <pt x="170" y="811" on="1"/>
        <pt x="164" y="808" on="0"/>
        <pt x="159" y="808" on="1"/>
        <pt x="146" y="808" on="0"/>
        <pt x="128" y="836" on="0"/>
      </contour>
    </TTGlyph>
    <TTGlyph name="K" xMin="54" yMin="-6" xMax="571" yMax="731">
      <contour>
        <pt x="54" y="48" on="1"/>
        <pt x="54" y="684" on="1"/>
        <pt x="54" y="707" on="0"/>
        <pt x="100" y="731" on="0"/>
        <pt x="164" y="731" on="0"/>
        <pt x="210" y="707" on="0"/>
        <pt x="210" y="684" on="1"/>
        <pt x="210" y="444" on="1"/>
        <pt x="397" y="709" on="1"/>
        <pt x="412" y="731" on="0"/>
        <pt x="438" y="731" on="1"/>
        <pt x="469" y="731" on="0"/>
        <pt x="530" y="680" on="0"/>
        <pt x="530" y="651" on="1"/>
        <pt x="530" y="635" on="0"/>
        <pt x="520" y="621" on="1"/>
        <pt x="356" y="415" on="1"/>
        <pt x="563" y="98" on="1"/>
        <pt x="571" y="85" on="0"/>
        <pt x="571" y="72" on="1"/>
        <pt x="571" y="43" on="0"/>
        <pt x="511" y="-6" on="0"/>
        <pt x="477" y="-6" on="1"/>
        <pt x="441" y="-6" on="0"/>
        <pt x="423" y="23" on="1"/>
        <pt x="252" y="283" on="1"/>
        <pt x="210" y="229" on="1"/>
        <pt x="210" y="48" on="1"/>
        <pt x="210" y="25" on="0"/>
        <pt x="164" y="0" on="0"/>
        <pt x="100" y="0" on="0"/>
        <pt x="54" y="25" on="0"/>
      </contour>
    </TTGlyph>
    <TTGlyph name="Kcommaaccent" xMin="54" yMin="-209" xMax="571" yMax="731">
      <contour>
        <pt x="54" y="48" on="1"/>
        <pt x="54" y="684" on="1"/>
        <pt x="54" y="707" on="0"/>
        <pt x="100" y="731" on="0"/>
        <pt x="164" y="731" on="0"/>
        <pt x="210" y="707" on="0"/>
        <pt x="210" y="684" on="1"/>
        <pt x="210" y="444" on="1"/>
        <pt x="397" y="709" on="1"/>
        <pt x="412" y="731" on="0"/>
        <pt x="438" y="731" on="1"/>
        <pt x="469" y="731" on="0"/>
        <pt x="530" y="680" on="0"/>
        <pt x="530" y="651" on="1"/>
        <pt x="530" y="635" on="0"/>
        <pt x="520" y="621" on="1"/>
        <pt x="356" y="415" on="1"/>
        <pt x="563" y="98" on="1"/>
        <pt x="571" y="85" on="0"/>
        <pt x="571" y="72" on="1"/>
        <pt x="571" y="43" on="0"/>
        <pt x="511" y="-6" on="0"/>
        <pt x="477" y="-6" on="1"/>
        <pt x="441" y="-6" on="0"/>
        <pt x="423" y="23" on="1"/>
        <pt x="252" y="283" on="1"/>
        <pt x="210" y="229" on="1"/>
        <pt x="210" y="48" on="1"/>
        <pt x="210" y="25" on="0"/>
        <pt x="164" y="0" on="0"/>
        <pt x="100" y="0" on="0"/>
        <pt x="54" y="25" on="0"/>
      </contour>
      <contour>
        <pt x="177" y="-151" on="1"/>
        <pt x="177" y="-126" on="0"/>
        <pt x="197" y="-116" on="1"/>
        <pt x="337" y="-51" on="1"/>
        <pt x="344" y="-48" on="0"/>
        <pt x="351" y="-48" on="1"/>
        <pt x="370" y="-48" on="0"/>
        <pt x="398" y="-85" on="0"/>
        <pt x="398" y="-106" on="1"/>
        <pt x="398" y="-130" on="0"/>
        <pt x="378" y="-140" on="1"/>
        <pt x="238" y="-205" on="1"/>
        <pt x="228" y="-209" on="0"/>
        <pt x="223" y="-209" on="1"/>
        <pt x="204" y="-209" on="0"/>
        <pt x="177" y="-172" on="0"/>
      </contour>
    </TTGlyph>
    <TTGlyph name="L" xMin="54" yMin="0" xMax="483" yMax="731">
      <contour>
        <pt x="54" y="48" on="1"/>
        <pt x="54" y="684" on="1"/>
        <pt x="54" y="707" on="0"/>
        <pt x="100" y="731" on="0"/>
        <pt x="164" y="731" on="0"/>
        <pt x="210" y="707" on="0"/>
        <pt x="210" y="684" on="1"/>
        <pt x="210" y="136" on="1"/>
        <pt x="438" y="136" on="1"/>
        <pt x="459" y="136" on="0"/>
        <pt x="483" y="96" on="0"/>
        <pt x="483" y="40" on="0"/>
        <pt x="459" y="0" on="0"/>
        <pt x="438" y="0" on="1"/>
        <pt x="122" y="0" on="1"/>
        <pt x="94" y="0" on="0"/>
        <pt x="54" y="25" on="0"/>
      </contour>
    </TTGlyph>
    <TTGlyph name="Lacute" xMin="54" yMin="0" xMax="483" yMax="959">
      <contour>
        <pt x="54" y="48" on="1"/>
        <pt x="54" y="684" on="1"/>
        <pt x="54" y="707" on="0"/>
        <pt x="100" y="731" on="0"/>
        <pt x="164" y="731" on="0"/>
        <pt x="210" y="707" on="0"/>
        <pt x="210" y="684" on="1"/>
        <pt x="210" y="136" on="1"/>
        <pt x="438" y="136" on="1"/>
        <pt x="459" y="136" on="0"/>
        <pt x="483" y="96" on="0"/>
        <pt x="483" y="40" on="0"/>
        <pt x="459" y="0" on="0"/>
        <pt x="438" y="0" on="1"/>
        <pt x="122" y="0" on="1"/>
        <pt x="94" y="0" on="0"/>
        <pt x="54" y="25" on="0"/>
      </contour>
      <contour>
        <pt x="146" y="856" on="1"/>
        <pt x="146" y="881" on="0"/>
        <pt x="166" y="891" on="1"/>
        <pt x="306" y="956" on="1"/>
        <pt x="314" y="959" on="0"/>
        <pt x="320" y="959" on="1"/>
        <pt x="339" y="959" on="0"/>
        <pt x="367" y="922" on="0"/>
        <pt x="367" y="901" on="1"/>
        <pt x="367" y="877" on="0"/>
        <pt x="347" y="867" on="1"/>
        <pt x="207" y="802" on="1"/>
        <pt x="197" y="798" on="0"/>
        <pt x="192" y="798" on="1"/>
        <pt x="173" y="798" on="0"/>
        <pt x="146" y="835" on="0"/>
      </contour>
    </TTGlyph>
    <TTGlyph name="Lcaron" xMin="54" yMin="0" xMax="483" yMax="741">
      <contour>
        <pt x="54" y="48" on="1"/>
        <pt x="54" y="684" on="1"/>
        <pt x="54" y="707" on="0"/>
        <pt x="100" y="731" on="0"/>
        <pt x="164" y="731" on="0"/>
        <pt x="210" y="707" on="0"/>
        <pt x="210" y="684" on="1"/>
        <pt x="210" y="136" on="1"/>
        <pt x="438" y="136" on="1"/>
        <pt x="459" y="136" on="0"/>
        <pt x="483" y="96" on="0"/>
        <pt x="483" y="40" on="0"/>
        <pt x="459" y="0" on="0"/>
        <pt x="438" y="0" on="1"/>
        <pt x="122" y="0" on="1"/>
        <pt x="94" y="0" on="0"/>
        <pt x="54" y="25" on="0"/>
      </contour>
      <contour>
        <pt x="313" y="664" on="1"/>
        <pt x="313" y="696" on="0"/>
        <pt x="358" y="741" on="0"/>
        <pt x="420" y="741" on="0"/>
        <pt x="466" y="696" on="0"/>
        <pt x="466" y="665" on="1"/>
        <pt x="466" y="649" on="0"/>
        <pt x="404" y="505" on="1"/>
        <pt x="396" y="487" on="0"/>
        <pt x="374" y="487" on="1"/>
        <pt x="356" y="487" on="0"/>
        <pt x="324" y="509" on="0"/>
        <pt x="324" y="526" on="1"/>
        <pt x="324" y="534" on="0"/>
        <pt x="328" y="542" on="1"/>
        <pt x="353" y="596" on="1"/>
        <pt x="313" y="619" on="0"/>
      </contour>
    </TTGlyph>
    <TTGlyph name="Lcommaaccent" xMin="54" yMin="-209" xMax="483" yMax="731">
      <contour>
        <pt x="54" y="48" on="1"/>
        <pt x="54" y="684" on="1"/>
        <pt x="54" y="707" on="0"/>
        <pt x="100" y="731" on="0"/>
        <pt x="164" y="731" on="0"/>
        <pt x="210" y="707" on="0"/>
        <pt x="210" y="684" on="1"/>
        <pt x="210" y="136" on="1"/>
        <pt x="438" y="136" on="1"/>
        <pt x="459" y="136" on="0"/>
        <pt x="483" y="96" on="0"/>
        <pt x="483" y="40" on="0"/>
        <pt x="459" y="0" on="0"/>
        <pt x="438" y="0" on="1"/>
        <pt x="122" y="0" on="1"/>
        <pt x="94" y="0" on="0"/>
        <pt x="54" y="25" on="0"/>
      </contour>
      <contour>
        <pt x="150" y="-151" on="1"/>
        <pt x="150" y="-126" on="0"/>
        <pt x="170" y="-116" on="1"/>
        <pt x="310" y="-51" on="1"/>
        <pt x="318" y="-48" on="0"/>
        <pt x="324" y="-48" on="1"/>
        <pt x="343" y="-48" on="0"/>
        <pt x="371" y="-85" on="0"/>
        <pt x="371" y="-106" on="1"/>
        <pt x="371" y="-130" on="0"/>
        <pt x="351" y="-140" on="1"/>
        <pt x="211" y="-205" on="1"/>
        <pt x="201" y="-209" on="0"/>
        <pt x="196" y="-209" on="1"/>
        <pt x="177" y="-209" on="0"/>
        <pt x="150" y="-172" on="0"/>
      </contour>
    </TTGlyph>
    <TTGlyph name="Ldot" xMin="54" yMin="0" xMax="483" yMax="731">
      <contour>
        <pt x="54" y="48" on="1"/>
        <pt x="54" y="684" on="1"/>
        <pt x="54" y="707" on="0"/>
        <pt x="100" y="731" on="0"/>
        <pt x="164" y="731" on="0"/>
        <pt x="210" y="707" on="0"/>
        <pt x="210" y="684" on="1"/>
        <pt x="210" y="136" on="1"/>
        <pt x="438" y="136" on="1"/>
        <pt x="459" y="136" on="0"/>
        <pt x="483" y="96" on="0"/>
        <pt x="483" y="40" on="0"/>
        <pt x="459" y="0" on="0"/>
        <pt x="438" y="0" on="1"/>
        <pt x="122" y="0" on="1"/>
        <pt x="94" y="0" on="0"/>
        <pt x="54" y="25" on="0"/>
      </contour>
      <contour>
        <pt x="300" y="392" on="0"/>
        <pt x="300" y="450" on="0"/>
        <pt x="348" y="492" on="0"/>
        <pt x="382" y="492" on="1"/>
        <pt x="415" y="492" on="0"/>
        <pt x="463" y="450" on="0"/>
        <pt x="463" y="392" on="0"/>
        <pt x="415" y="349" on="0"/>
        <pt x="382" y="349" on="1"/>
        <pt x="348" y="349" on="0"/>
      </contour>
    </TTGlyph>
    <TTGlyph name="Lslash" xMin="-10" yMin="0" xMax="489" yMax="731">
      <contour>
        <pt x="-10" y="317" on="1"/>
        <pt x="-10" y="343" on="0"/>
        <pt x="8" y="351" on="1"/>
        <pt x="60" y="375" on="1"/>
        <pt x="60" y="684" on="1"/>
        <pt x="60" y="707" on="0"/>
        <pt x="106" y="731" on="0"/>
        <pt x="170" y="731" on="0"/>
        <pt x="216" y="707" on="0"/>
        <pt x="216" y="684" on="1"/>
        <pt x="216" y="448" on="1"/>
        <pt x="261" y="469" on="1"/>
        <pt x="267" y="472" on="0"/>
        <pt x="273" y="472" on="1"/>
        <pt x="294" y="472" on="0"/>
        <pt x="327" y="426" on="0"/>
        <pt x="327" y="403" on="1"/>
        <pt x="327" y="378" on="0"/>
        <pt x="308" y="369" on="1"/>
        <pt x="216" y="326" on="1"/>
        <pt x="216" y="136" on="1"/>
        <pt x="444" y="136" on="1"/>
        <pt x="465" y="136" on="0"/>
        <pt x="489" y="96" on="0"/>
        <pt x="489" y="40" on="0"/>
        <pt x="465" y="0" on="0"/>
        <pt x="444" y="0" on="1"/>
        <pt x="128" y="0" on="1"/>
        <pt x="100" y="0" on="0"/>
        <pt x="60" y="25" on="0"/>
        <pt x="60" y="48" on="1"/>
        <pt x="60" y="253" on="1"/>
        <pt x="55" y="251" on="1"/>
        <pt x="49" y="248" on="0"/>
        <pt x="42" y="248" on="1"/>
        <pt x="22" y="248" on="0"/>
        <pt x="-10" y="292" on="0"/>
      </contour>
    </TTGlyph>
    <TTGlyph name="M" xMin="54" yMin="0" xMax="658" yMax="731">
      <contour>
        <pt x="54" y="48" on="1"/>
        <pt x="54" y="653" on="1"/>
        <pt x="54" y="693" on="0"/>
        <pt x="99" y="731" on="0"/>
        <pt x="132" y="731" on="1"/>
        <pt x="177" y="731" on="0"/>
        <pt x="224" y="704" on="0"/>
        <pt x="253" y="653" on="1"/>
        <pt x="356" y="473" on="1"/>
        <pt x="459" y="653" on="1"/>
        <pt x="488" y="704" on="0"/>
        <pt x="535" y="731" on="0"/>
        <pt x="580" y="731" on="1"/>
        <pt x="613" y="731" on="0"/>
        <pt x="658" y="693" on="0"/>
        <pt x="658" y="653" on="1"/>
        <pt x="658" y="48" on="1"/>
        <pt x="658" y="25" on="0"/>
        <pt x="612" y="0" on="0"/>
        <pt x="548" y="0" on="0"/>
        <pt x="502" y="25" on="0"/>
        <pt x="502" y="48" on="1"/>
        <pt x="502" y="423" on="1"/>
        <pt x="406" y="259" on="1"/>
        <pt x="389" y="230" on="0"/>
        <pt x="354" y="230" on="1"/>
        <pt x="320" y="230" on="0"/>
        <pt x="305" y="259" on="1"/>
        <pt x="210" y="433" on="1"/>
        <pt x="210" y="48" on="1"/>
        <pt x="210" y="25" on="0"/>
        <pt x="164" y="0" on="0"/>
        <pt x="100" y="0" on="0"/>
        <pt x="54" y="25" on="0"/>
      </contour>
    </TTGlyph>
    <TTGlyph name="N" xMin="54" yMin="0" xMax="565" yMax="731">
      <contour>
        <pt x="54" y="48" on="1"/>
        <pt x="54" y="683" on="1"/>
        <pt x="54" y="706" on="0"/>
        <pt x="100" y="731" on="0"/>
        <pt x="132" y="731" on="1"/>
        <pt x="177" y="731" on="0"/>
        <pt x="220" y="705" on="0"/>
        <pt x="247" y="653" on="1"/>
        <pt x="409" y="344" on="1"/>
        <pt x="409" y="684" on="1"/>
        <pt x="409" y="707" on="0"/>
        <pt x="455" y="731" on="0"/>
        <pt x="519" y="731" on="0"/>
        <pt x="565" y="707" on="0"/>
        <pt x="565" y="684" on="1"/>
        <pt x="565" y="48" on="1"/>
        <pt x="565" y="25" on="0"/>
        <pt x="519" y="0" on="0"/>
        <pt x="487" y="0" on="1"/>
        <pt x="423" y="0" on="0"/>
        <pt x="400" y="42" on="1"/>
        <pt x="210" y="388" on="1"/>
        <pt x="210" y="48" on="1"/>
        <pt x="210" y="25" on="0"/>
        <pt x="164" y="0" on="0"/>
        <pt x="100" y="0" on="0"/>
        <pt x="54" y="25" on="0"/>
      </contour>
    </TTGlyph>
    <TTGlyph name="Nacute" xMin="54" yMin="0" xMax="565" yMax="959">
      <contour>
        <pt x="54" y="48" on="1"/>
        <pt x="54" y="683" on="1"/>
        <pt x="54" y="706" on="0"/>
        <pt x="100" y="731" on="0"/>
        <pt x="132" y="731" on="1"/>
        <pt x="177" y="731" on="0"/>
        <pt x="220" y="705" on="0"/>
        <pt x="247" y="653" on="1"/>
        <pt x="409" y="344" on="1"/>
        <pt x="409" y="684" on="1"/>
        <pt x="409" y="707" on="0"/>
        <pt x="455" y="731" on="0"/>
        <pt x="519" y="731" on="0"/>
        <pt x="565" y="707" on="0"/>
        <pt x="565" y="684" on="1"/>
        <pt x="565" y="48" on="1"/>
        <pt x="565" y="25" on="0"/>
        <pt x="519" y="0" on="0"/>
        <pt x="487" y="0" on="1"/>
        <pt x="423" y="0" on="0"/>
        <pt x="400" y="42" on="1"/>
        <pt x="210" y="388" on="1"/>
        <pt x="210" y="48" on="1"/>
        <pt x="210" y="25" on="0"/>
        <pt x="164" y="0" on="0"/>
        <pt x="100" y="0" on="0"/>
        <pt x="54" y="25" on="0"/>
      </contour>
      <contour>
        <pt x="185" y="856" on="1"/>
        <pt x="185" y="881" on="0"/>
        <pt x="205" y="891" on="1"/>
        <pt x="345" y="956" on="1"/>
        <pt x="352" y="959" on="0"/>
        <pt x="359" y="959" on="1"/>
        <pt x="378" y="959" on="0"/>
        <pt x="406" y="922" on="0"/>
        <pt x="406" y="901" on="1"/>
        <pt x="406" y="877" on="0"/>
        <pt x="386" y="867" on="1"/>
        <pt x="246" y="802" on="1"/>
        <pt x="236" y="798" on="0"/>
        <pt x="231" y="798" on="1"/>
        <pt x="212" y="798" on="0"/>
        <pt x="185" y="835" on="0"/>
      </contour>
    </TTGlyph>
    <TTGlyph name="Ncaron" xMin="54" yMin="0" xMax="565" yMax="971">
      <contour>
        <pt x="54" y="48" on="1"/>
        <pt x="54" y="683" on="1"/>
        <pt x="54" y="706" on="0"/>
        <pt x="100" y="731" on="0"/>
        <pt x="132" y="731" on="1"/>
        <pt x="177" y="731" on="0"/>
        <pt x="220" y="705" on="0"/>
        <pt x="247" y="653" on="1"/>
        <pt x="409" y="344" on="1"/>
        <pt x="409" y="684" on="1"/>
        <pt x="409" y="707" on="0"/>
        <pt x="455" y="731" on="0"/>
        <pt x="519" y="731" on="0"/>
        <pt x="565" y="707" on="0"/>
        <pt x="565" y="684" on="1"/>
        <pt x="565" y="48" on="1"/>
        <pt x="565" y="25" on="0"/>
        <pt x="519" y="0" on="0"/>
        <pt x="487" y="0" on="1"/>
        <pt x="423" y="0" on="0"/>
        <pt x="400" y="42" on="1"/>
        <pt x="210" y="388" on="1"/>
        <pt x="210" y="48" on="1"/>
        <pt x="210" y="25" on="0"/>
        <pt x="164" y="0" on="0"/>
        <pt x="100" y="0" on="0"/>
        <pt x="54" y="25" on="0"/>
      </contour>
      <contour>
        <pt x="164" y="925" on="1"/>
        <pt x="164" y="943" on="0"/>
        <pt x="182" y="971" on="0"/>
        <pt x="195" y="971" on="1"/>
        <pt x="200" y="971" on="0"/>
        <pt x="206" y="968" on="1"/>
        <pt x="310" y="912" on="1"/>
        <pt x="414" y="968" on="1"/>
        <pt x="420" y="971" on="0"/>
        <pt x="425" y="971" on="1"/>
        <pt x="438" y="971" on="0"/>
        <pt x="456" y="943" on="0"/>
        <pt x="456" y="925" on="1"/>
        <pt x="456" y="895" on="0"/>
        <pt x="431" y="881" on="1"/>
        <pt x="327" y="825" on="1"/>
        <pt x="317" y="820" on="0"/>
        <pt x="303" y="820" on="0"/>
        <pt x="293" y="825" on="1"/>
        <pt x="189" y="881" on="1"/>
        <pt x="164" y="895" on="0"/>
      </contour>
    </TTGlyph>
    <TTGlyph name="Ncommaaccent" xMin="54" yMin="-209" xMax="565" yMax="731">
      <contour>
        <pt x="54" y="48" on="1"/>
        <pt x="54" y="683" on="1"/>
        <pt x="54" y="706" on="0"/>
        <pt x="100" y="731" on="0"/>
        <pt x="132" y="731" on="1"/>
        <pt x="177" y="731" on="0"/>
        <pt x="220" y="705" on="0"/>
        <pt x="247" y="653" on="1"/>
        <pt x="409" y="344" on="1"/>
        <pt x="409" y="684" on="1"/>
        <pt x="409" y="707" on="0"/>
        <pt x="455" y="731" on="0"/>
        <pt x="519" y="731" on="0"/>
        <pt x="565" y="707" on="0"/>
        <pt x="565" y="684" on="1"/>
        <pt x="565" y="48" on="1"/>
        <pt x="565" y="25" on="0"/>
        <pt x="519" y="0" on="0"/>
        <pt x="487" y="0" on="1"/>
        <pt x="423" y="0" on="0"/>
        <pt x="400" y="42" on="1"/>
        <pt x="210" y="388" on="1"/>
        <pt x="210" y="48" on="1"/>
        <pt x="210" y="25" on="0"/>
        <pt x="164" y="0" on="0"/>
        <pt x="100" y="0" on="0"/>
        <pt x="54" y="25" on="0"/>
      </contour>
      <contour>
        <pt x="199" y="-151" on="1"/>
        <pt x="199" y="-126" on="0"/>
        <pt x="219" y="-116" on="1"/>
        <pt x="359" y="-51" on="1"/>
        <pt x="366" y="-48" on="0"/>
        <pt x="373" y="-48" on="1"/>
        <pt x="392" y="-48" on="0"/>
        <pt x="420" y="-85" on="0"/>
        <pt x="420" y="-106" on="1"/>
        <pt x="420" y="-130" on="0"/>
        <pt x="400" y="-140" on="1"/>
        <pt x="260" y="-205" on="1"/>
        <pt x="250" y="-209" on="0"/>
        <pt x="245" y="-209" on="1"/>
        <pt x="226" y="-209" on="0"/>
        <pt x="199" y="-172" on="0"/>
      </contour>
    </TTGlyph>
    <TTGlyph name="Ntilde" xMin="54" yMin="0" xMax="565" yMax="946">
      <contour>
        <pt x="54" y="48" on="1"/>
        <pt x="54" y="683" on="1"/>
        <pt x="54" y="706" on="0"/>
        <pt x="100" y="731" on="0"/>
        <pt x="132" y="731" on="1"/>
        <pt x="177" y="731" on="0"/>
        <pt x="220" y="705" on="0"/>
        <pt x="247" y="653" on="1"/>
        <pt x="409" y="344" on="1"/>
        <pt x="409" y="684" on="1"/>
        <pt x="409" y="707" on="0"/>
        <pt x="455" y="731" on="0"/>
        <pt x="519" y="731" on="0"/>
        <pt x="565" y="707" on="0"/>
        <pt x="565" y="684" on="1"/>
        <pt x="565" y="48" on="1"/>
        <pt x="565" y="25" on="0"/>
        <pt x="519" y="0" on="0"/>
        <pt x="487" y="0" on="1"/>
        <pt x="423" y="0" on="0"/>
        <pt x="400" y="42" on="1"/>
        <pt x="210" y="388" on="1"/>
        <pt x="210" y="48" on="1"/>
        <pt x="210" y="25" on="0"/>
        <pt x="164" y="0" on="0"/>
        <pt x="100" y="0" on="0"/>
        <pt x="54" y="25" on="0"/>
      </contour>
      <contour>
        <pt x="123" y="873" on="1"/>
        <pt x="123" y="946" on="0"/>
        <pt x="208" y="946" on="1"/>
        <pt x="239" y="946" on="0"/>
        <pt x="327" y="919" on="0"/>
        <pt x="354" y="919" on="1"/>
        <pt x="377" y="919" on="0"/>
        <pt x="431" y="940" on="0"/>
        <pt x="440" y="940" on="1"/>
        <pt x="460" y="940" on="0"/>
        <pt x="478" y="905" on="0"/>
        <pt x="478" y="891" on="1"/>
        <pt x="478" y="818" on="0"/>
        <pt x="393" y="818" on="1"/>
        <pt x="355" y="818" on="0"/>
        <pt x="268" y="845" on="0"/>
        <pt x="247" y="845" on="1"/>
        <pt x="224" y="845" on="0"/>
        <pt x="170" y="824" on="0"/>
        <pt x="161" y="824" on="1"/>
        <pt x="141" y="824" on="0"/>
        <pt x="123" y="859" on="0"/>
      </contour>
    </TTGlyph>
    <TTGlyph name="O" xMin="46" yMin="-6" xMax="537" yMax="731">
      <contour>
        <pt x="46" y="230" on="1"/>
        <pt x="46" y="495" on="1"/>
        <pt x="46" y="617" on="0"/>
        <pt x="180" y="731" on="0"/>
        <pt x="291" y="731" on="1"/>
        <pt x="403" y="731" on="0"/>
        <pt x="537" y="617" on="0"/>
        <pt x="537" y="495" on="1"/>
        <pt x="537" y="230" on="1"/>
        <pt x="537" y="108" on="0"/>
        <pt x="403" y="-6" on="0"/>
        <pt x="291" y="-6" on="1"/>
        <pt x="180" y="-6" on="0"/>
        <pt x="46" y="108" on="0"/>
      </contour>
      <contour>
        <pt x="202" y="230" on="1"/>
        <pt x="202" y="130" on="0"/>
        <pt x="291" y="130" on="1"/>
        <pt x="381" y="130" on="0"/>
        <pt x="381" y="230" on="1"/>
        <pt x="381" y="495" on="1"/>
        <pt x="381" y="595" on="0"/>
        <pt x="291" y="595" on="1"/>
        <pt x="202" y="595" on="0"/>
        <pt x="202" y="495" on="1"/>
      </contour>
    </TTGlyph>
    <TTGlyph name="OE" xMin="47" yMin="-6" xMax="812" yMax="731">
      <contour>
        <pt x="47" y="230" on="1"/>
        <pt x="47" y="495" on="1"/>
        <pt x="47" y="731" on="0"/>
        <pt x="262" y="731" on="1"/>
        <pt x="305" y="731" on="0"/>
        <pt x="385" y="692" on="0"/>
        <pt x="403" y="657" on="1"/>
        <pt x="403" y="683" on="1"/>
        <pt x="403" y="706" on="0"/>
        <pt x="443" y="731" on="0"/>
        <pt x="471" y="731" on="1"/>
        <pt x="765" y="731" on="1"/>
        <pt x="788" y="731" on="0"/>
        <pt x="812" y="691" on="0"/>
        <pt x="812" y="664" on="1"/>
        <pt x="812" y="635" on="0"/>
        <pt x="787" y="595" on="0"/>
        <pt x="765" y="595" on="1"/>
        <pt x="539" y="595" on="1"/>
        <pt x="539" y="426" on="1"/>
        <pt x="647" y="426" on="1"/>
        <pt x="669" y="426" on="0"/>
        <pt x="694" y="390" on="0"/>
        <pt x="694" y="365" on="1"/>
        <pt x="694" y="342" on="0"/>
        <pt x="670" y="306" on="0"/>
        <pt x="647" y="306" on="1"/>
        <pt x="539" y="306" on="1"/>
        <pt x="539" y="136" on="1"/>
        <pt x="765" y="136" on="1"/>
        <pt x="787" y="136" on="0"/>
        <pt x="812" y="96" on="0"/>
        <pt x="812" y="67" on="1"/>
        <pt x="812" y="40" on="0"/>
        <pt x="788" y="0" on="0"/>
        <pt x="765" y="0" on="1"/>
        <pt x="471" y="0" on="1"/>
        <pt x="443" y="0" on="0"/>
        <pt x="403" y="25" on="0"/>
        <pt x="403" y="48" on="1"/>
        <pt x="403" y="68" on="1"/>
        <pt x="385" y="33" on="0"/>
        <pt x="305" y="-6" on="0"/>
        <pt x="262" y="-6" on="1"/>
        <pt x="47" y="-6" on="0"/>
      </contour>
      <contour>
        <pt x="203" y="230" on="1"/>
        <pt x="203" y="130" on="0"/>
        <pt x="292" y="130" on="1"/>
        <pt x="382" y="130" on="0"/>
        <pt x="382" y="230" on="1"/>
        <pt x="382" y="495" on="1"/>
        <pt x="382" y="595" on="0"/>
        <pt x="292" y="595" on="1"/>
        <pt x="203" y="595" on="0"/>
        <pt x="203" y="495" on="1"/>
      </contour>
    </TTGlyph>
    <TTGlyph name="Oacute" xMin="46" yMin="-6" xMax="537" yMax="959">
      <contour>
        <pt x="46" y="230" on="1"/>
        <pt x="46" y="495" on="1"/>
        <pt x="46" y="617" on="0"/>
        <pt x="180" y="731" on="0"/>
        <pt x="291" y="731" on="1"/>
        <pt x="403" y="731" on="0"/>
        <pt x="537" y="617" on="0"/>
        <pt x="537" y="495" on="1"/>
        <pt x="537" y="230" on="1"/>
        <pt x="537" y="108" on="0"/>
        <pt x="403" y="-6" on="0"/>
        <pt x="291" y="-6" on="1"/>
        <pt x="180" y="-6" on="0"/>
        <pt x="46" y="108" on="0"/>
      </contour>
      <contour>
        <pt x="202" y="230" on="1"/>
        <pt x="202" y="130" on="0"/>
        <pt x="291" y="130" on="1"/>
        <pt x="381" y="130" on="0"/>
        <pt x="381" y="230" on="1"/>
        <pt x="381" y="495" on="1"/>
        <pt x="381" y="595" on="0"/>
        <pt x="291" y="595" on="1"/>
        <pt x="202" y="595" on="0"/>
        <pt x="202" y="495" on="1"/>
      </contour>
      <contour>
        <pt x="225" y="856" on="1"/>
        <pt x="225" y="881" on="0"/>
        <pt x="245" y="891" on="1"/>
        <pt x="385" y="956" on="1"/>
        <pt x="392" y="959" on="0"/>
        <pt x="399" y="959" on="1"/>
        <pt x="418" y="959" on="0"/>
        <pt x="446" y="922" on="0"/>
        <pt x="446" y="901" on="1"/>
        <pt x="446" y="877" on="0"/>
        <pt x="426" y="867" on="1"/>
        <pt x="286" y="802" on="1"/>
        <pt x="276" y="798" on="0"/>
        <pt x="271" y="798" on="1"/>
        <pt x="252" y="798" on="0"/>
        <pt x="225" y="835" on="0"/>
      </contour>
    </TTGlyph>
    <TTGlyph name="Obreve" xMin="46" yMin="-6" xMax="537" yMax="963">
      <contour>
        <pt x="46" y="230" on="1"/>
        <pt x="46" y="495" on="1"/>
        <pt x="46" y="617" on="0"/>
        <pt x="180" y="731" on="0"/>
        <pt x="291" y="731" on="1"/>
        <pt x="403" y="731" on="0"/>
        <pt x="537" y="617" on="0"/>
        <pt x="537" y="495" on="1"/>
        <pt x="537" y="230" on="1"/>
        <pt x="537" y="108" on="0"/>
        <pt x="403" y="-6" on="0"/>
        <pt x="291" y="-6" on="1"/>
        <pt x="180" y="-6" on="0"/>
        <pt x="46" y="108" on="0"/>
      </contour>
      <contour>
        <pt x="151" y="963" on="1"/>
        <pt x="231" y="963" on="1"/>
        <pt x="231" y="932" on="0"/>
        <pt x="268" y="890" on="0"/>
        <pt x="291" y="890" on="1"/>
        <pt x="313" y="890" on="0"/>
        <pt x="350" y="932" on="0"/>
        <pt x="350" y="963" on="1"/>
        <pt x="430" y="963" on="1"/>
        <pt x="430" y="908" on="0"/>
        <pt x="345" y="824" on="0"/>
        <pt x="237" y="824" on="0"/>
        <pt x="151" y="908" on="0"/>
      </contour>
      <contour>
        <pt x="202" y="230" on="1"/>
        <pt x="202" y="130" on="0"/>
        <pt x="291" y="130" on="1"/>
        <pt x="381" y="130" on="0"/>
        <pt x="381" y="230" on="1"/>
        <pt x="381" y="495" on="1"/>
        <pt x="381" y="595" on="0"/>
        <pt x="291" y="595" on="1"/>
        <pt x="202" y="595" on="0"/>
        <pt x="202" y="495" on="1"/>
      </contour>
    </TTGlyph>
    <TTGlyph name="Ocircumflex" xMin="46" yMin="-6" xMax="537" yMax="959">
      <contour>
        <pt x="46" y="230" on="1"/>
        <pt x="46" y="495" on="1"/>
        <pt x="46" y="617" on="0"/>
        <pt x="180" y="731" on="0"/>
        <pt x="291" y="731" on="1"/>
        <pt x="403" y="731" on="0"/>
        <pt x="537" y="617" on="0"/>
        <pt x="537" y="495" on="1"/>
        <pt x="537" y="230" on="1"/>
        <pt x="537" y="108" on="0"/>
        <pt x="403" y="-6" on="0"/>
        <pt x="291" y="-6" on="1"/>
        <pt x="180" y="-6" on="0"/>
        <pt x="46" y="108" on="0"/>
      </contour>
      <contour>
        <pt x="145" y="854" on="1"/>
        <pt x="145" y="884" on="0"/>
        <pt x="170" y="898" on="1"/>
        <pt x="274" y="954" on="1"/>
        <pt x="284" y="959" on="0"/>
        <pt x="298" y="959" on="0"/>
        <pt x="308" y="954" on="1"/>
        <pt x="412" y="898" on="1"/>
        <pt x="437" y="884" on="0"/>
        <pt x="437" y="854" on="1"/>
        <pt x="437" y="836" on="0"/>
        <pt x="419" y="808" on="0"/>
        <pt x="406" y="808" on="1"/>
        <pt x="401" y="808" on="0"/>
        <pt x="395" y="811" on="1"/>
        <pt x="291" y="867" on="1"/>
        <pt x="187" y="811" on="1"/>
        <pt x="181" y="808" on="0"/>
        <pt x="176" y="808" on="1"/>
        <pt x="163" y="808" on="0"/>
        <pt x="145" y="836" on="0"/>
      </contour>
      <contour>
        <pt x="202" y="230" on="1"/>
        <pt x="202" y="130" on="0"/>
        <pt x="291" y="130" on="1"/>
        <pt x="381" y="130" on="0"/>
        <pt x="381" y="230" on="1"/>
        <pt x="381" y="495" on="1"/>
        <pt x="381" y="595" on="0"/>
        <pt x="291" y="595" on="1"/>
        <pt x="202" y="595" on="0"/>
        <pt x="202" y="495" on="1"/>
      </contour>
    </TTGlyph>
    <TTGlyph name="Odieresis" xMin="46" yMin="-6" xMax="537" yMax="927">
      <contour>
        <pt x="46" y="230" on="1"/>
        <pt x="46" y="495" on="1"/>
        <pt x="46" y="617" on="0"/>
        <pt x="180" y="731" on="0"/>
        <pt x="291" y="731" on="1"/>
        <pt x="403" y="731" on="0"/>
        <pt x="537" y="617" on="0"/>
        <pt x="537" y="495" on="1"/>
        <pt x="537" y="230" on="1"/>
        <pt x="537" y="108" on="0"/>
        <pt x="403" y="-6" on="0"/>
        <pt x="291" y="-6" on="1"/>
        <pt x="180" y="-6" on="0"/>
        <pt x="46" y="108" on="0"/>
      </contour>
      <contour>
        <pt x="156" y="846" on="0"/>
        <pt x="156" y="892" on="0"/>
        <pt x="190" y="927" on="0"/>
        <pt x="236" y="927" on="0"/>
        <pt x="269" y="892" on="0"/>
        <pt x="269" y="869" on="1"/>
        <pt x="269" y="845" on="0"/>
        <pt x="236" y="810" on="0"/>
        <pt x="190" y="810" on="0"/>
      </contour>
      <contour>
        <pt x="202" y="230" on="1"/>
        <pt x="202" y="130" on="0"/>
        <pt x="291" y="130" on="1"/>
        <pt x="381" y="130" on="0"/>
        <pt x="381" y="230" on="1"/>
        <pt x="381" y="495" on="1"/>
        <pt x="381" y="595" on="0"/>
        <pt x="291" y="595" on="1"/>
        <pt x="202" y="595" on="0"/>
        <pt x="202" y="495" on="1"/>
      </contour>
      <contour>
        <pt x="316" y="846" on="0"/>
        <pt x="316" y="892" on="0"/>
        <pt x="350" y="927" on="0"/>
        <pt x="396" y="927" on="0"/>
        <pt x="429" y="892" on="0"/>
        <pt x="429" y="869" on="1"/>
        <pt x="429" y="845" on="0"/>
        <pt x="396" y="810" on="0"/>
        <pt x="350" y="810" on="0"/>
      </contour>
    </TTGlyph>
    <TTGlyph name="Ograve" xMin="46" yMin="-6" xMax="537" yMax="959">
      <contour>
        <pt x="46" y="230" on="1"/>
        <pt x="46" y="495" on="1"/>
        <pt x="46" y="617" on="0"/>
        <pt x="180" y="731" on="0"/>
        <pt x="291" y="731" on="1"/>
        <pt x="403" y="731" on="0"/>
        <pt x="537" y="617" on="0"/>
        <pt x="537" y="495" on="1"/>
        <pt x="537" y="230" on="1"/>
        <pt x="537" y="108" on="0"/>
        <pt x="403" y="-6" on="0"/>
        <pt x="291" y="-6" on="1"/>
        <pt x="180" y="-6" on="0"/>
        <pt x="46" y="108" on="0"/>
      </contour>
      <contour>
        <pt x="165" y="901" on="1"/>
        <pt x="165" y="922" on="0"/>
        <pt x="193" y="959" on="0"/>
        <pt x="212" y="959" on="1"/>
        <pt x="218" y="959" on="0"/>
        <pt x="226" y="956" on="1"/>
        <pt x="366" y="891" on="1"/>
        <pt x="386" y="881" on="0"/>
        <pt x="386" y="856" on="1"/>
        <pt x="386" y="835" on="0"/>
        <pt x="359" y="798" on="0"/>
        <pt x="340" y="798" on="1"/>
        <pt x="335" y="798" on="0"/>
        <pt x="325" y="802" on="1"/>
        <pt x="185" y="867" on="1"/>
        <pt x="165" y="877" on="0"/>
      </contour>
      <contour>
        <pt x="202" y="230" on="1"/>
        <pt x="202" y="130" on="0"/>
        <pt x="291" y="130" on="1"/>
        <pt x="381" y="130" on="0"/>
        <pt x="381" y="230" on="1"/>
        <pt x="381" y="495" on="1"/>
        <pt x="381" y="595" on="0"/>
        <pt x="291" y="595" on="1"/>
        <pt x="202" y="595" on="0"/>
        <pt x="202" y="495" on="1"/>
      </contour>
    </TTGlyph>
    <TTGlyph name="Ohungarumlaut" xMin="46" yMin="-6" xMax="537" yMax="961">
      <contour>
        <pt x="46" y="230" on="1"/>
        <pt x="46" y="495" on="1"/>
        <pt x="46" y="617" on="0"/>
        <pt x="180" y="731" on="0"/>
        <pt x="291" y="731" on="1"/>
        <pt x="403" y="731" on="0"/>
        <pt x="537" y="617" on="0"/>
        <pt x="537" y="495" on="1"/>
        <pt x="537" y="230" on="1"/>
        <pt x="537" y="108" on="0"/>
        <pt x="403" y="-6" on="0"/>
        <pt x="291" y="-6" on="1"/>
        <pt x="180" y="-6" on="0"/>
        <pt x="46" y="108" on="0"/>
      </contour>
      <contour>
        <pt x="162" y="839" on="1"/>
        <pt x="162" y="848" on="0"/>
        <pt x="169" y="856" on="1"/>
        <pt x="248" y="951" on="1"/>
        <pt x="256" y="961" on="0"/>
        <pt x="270" y="961" on="1"/>
        <pt x="286" y="961" on="0"/>
        <pt x="314" y="932" on="0"/>
        <pt x="314" y="918" on="1"/>
        <pt x="314" y="908" on="0"/>
        <pt x="308" y="901" on="1"/>
        <pt x="229" y="806" on="1"/>
        <pt x="221" y="795" on="0"/>
        <pt x="208" y="795" on="1"/>
        <pt x="191" y="795" on="0"/>
        <pt x="162" y="824" on="0"/>
      </contour>
      <contour>
        <pt x="202" y="230" on="1"/>
        <pt x="202" y="130" on="0"/>
        <pt x="291" y="130" on="1"/>
        <pt x="381" y="130" on="0"/>
        <pt x="381" y="230" on="1"/>
        <pt x="381" y="495" on="1"/>
        <pt x="381" y="595" on="0"/>
        <pt x="291" y="595" on="1"/>
        <pt x="202" y="595" on="0"/>
        <pt x="202" y="495" on="1"/>
      </contour>
      <contour>
        <pt x="322" y="839" on="1"/>
        <pt x="322" y="848" on="0"/>
        <pt x="329" y="856" on="1"/>
        <pt x="408" y="951" on="1"/>
        <pt x="416" y="961" on="0"/>
        <pt x="430" y="961" on="1"/>
        <pt x="446" y="961" on="0"/>
        <pt x="474" y="932" on="0"/>
        <pt x="474" y="918" on="1"/>
        <pt x="474" y="908" on="0"/>
        <pt x="468" y="901" on="1"/>
        <pt x="389" y="806" on="1"/>
        <pt x="381" y="795" on="0"/>
        <pt x="368" y="795" on="1"/>
        <pt x="351" y="795" on="0"/>
        <pt x="322" y="824" on="0"/>
      </contour>
    </TTGlyph>
    <TTGlyph name="Omacron" xMin="46" yMin="-6" xMax="537" yMax="938">
      <contour>
        <pt x="46" y="230" on="1"/>
        <pt x="46" y="495" on="1"/>
        <pt x="46" y="617" on="0"/>
        <pt x="180" y="731" on="0"/>
        <pt x="291" y="731" on="1"/>
        <pt x="403" y="731" on="0"/>
        <pt x="537" y="617" on="0"/>
        <pt x="537" y="495" on="1"/>
        <pt x="537" y="230" on="1"/>
        <pt x="537" y="108" on="0"/>
        <pt x="403" y="-6" on="0"/>
        <pt x="291" y="-6" on="1"/>
        <pt x="180" y="-6" on="0"/>
        <pt x="46" y="108" on="0"/>
      </contour>
      <contour>
        <pt x="144" y="888" on="1"/>
        <pt x="144" y="909" on="0"/>
        <pt x="170" y="938" on="0"/>
        <pt x="191" y="938" on="1"/>
        <pt x="391" y="938" on="1"/>
        <pt x="410" y="938" on="0"/>
        <pt x="439" y="908" on="0"/>
        <pt x="439" y="888" on="1"/>
        <pt x="439" y="867" on="0"/>
        <pt x="410" y="839" on="0"/>
        <pt x="391" y="839" on="1"/>
        <pt x="191" y="839" on="1"/>
        <pt x="170" y="839" on="0"/>
        <pt x="144" y="866" on="0"/>
      </contour>
      <contour>
        <pt x="202" y="230" on="1"/>
        <pt x="202" y="130" on="0"/>
        <pt x="291" y="130" on="1"/>
        <pt x="381" y="130" on="0"/>
        <pt x="381" y="230" on="1"/>
        <pt x="381" y="495" on="1"/>
        <pt x="381" y="595" on="0"/>
        <pt x="291" y="595" on="1"/>
        <pt x="202" y="595" on="0"/>
        <pt x="202" y="495" on="1"/>
      </contour>
    </TTGlyph>
    <TTGlyph name="Oslash" xMin="46" yMin="-46" xMax="537" yMax="772">
      <contour>
        <pt x="46" y="230" on="1"/>
        <pt x="46" y="495" on="1"/>
        <pt x="46" y="617" on="0"/>
        <pt x="180" y="731" on="0"/>
        <pt x="291" y="731" on="1"/>
        <pt x="355" y="731" on="0"/>
        <pt x="405" y="712" on="1"/>
        <pt x="422" y="747" on="1"/>
        <pt x="434" y="772" on="0"/>
        <pt x="464" y="772" on="1"/>
        <pt x="486" y="772" on="0"/>
        <pt x="523" y="742" on="0"/>
        <pt x="523" y="719" on="1"/>
        <pt x="523" y="708" on="0"/>
        <pt x="519" y="700" on="1"/>
        <pt x="493" y="648" on="1"/>
        <pt x="537" y="590" on="0"/>
        <pt x="537" y="495" on="1"/>
        <pt x="537" y="230" on="1"/>
        <pt x="537" y="108" on="0"/>
        <pt x="403" y="-6" on="0"/>
        <pt x="291" y="-6" on="1"/>
        <pt x="230" y="-6" on="0"/>
        <pt x="182" y="10" on="1"/>
        <pt x="167" y="-21" on="1"/>
        <pt x="155" y="-46" on="0"/>
        <pt x="122" y="-46" on="1"/>
        <pt x="98" y="-46" on="0"/>
        <pt x="66" y="-13" on="0"/>
        <pt x="66" y="7" on="1"/>
        <pt x="66" y="16" on="0"/>
        <pt x="71" y="26" on="1"/>
        <pt x="93" y="71" on="1"/>
        <pt x="46" y="129" on="0"/>
      </contour>
      <contour>
        <pt x="202" y="295" on="1"/>
        <pt x="342" y="583" on="1"/>
        <pt x="321" y="595" on="0"/>
        <pt x="291" y="595" on="1"/>
        <pt x="202" y="595" on="0"/>
        <pt x="202" y="495" on="1"/>
      </contour>
      <contour>
        <pt x="245" y="139" on="1"/>
        <pt x="264" y="130" on="0"/>
        <pt x="291" y="130" on="1"/>
        <pt x="381" y="130" on="0"/>
        <pt x="381" y="230" on="1"/>
        <pt x="381" y="417" on="1"/>
      </contour>
    </TTGlyph>
    <TTGlyph name="Oslashacute" xMin="46" yMin="-46" xMax="537" yMax="959">
      <contour>
        <pt x="46" y="230" on="1"/>
        <pt x="46" y="495" on="1"/>
        <pt x="46" y="617" on="0"/>
        <pt x="180" y="731" on="0"/>
        <pt x="291" y="731" on="1"/>
        <pt x="355" y="731" on="0"/>
        <pt x="405" y="712" on="1"/>
        <pt x="422" y="747" on="1"/>
        <pt x="434" y="772" on="0"/>
        <pt x="464" y="772" on="1"/>
        <pt x="486" y="772" on="0"/>
        <pt x="523" y="742" on="0"/>
        <pt x="523" y="719" on="1"/>
        <pt x="523" y="708" on="0"/>
        <pt x="519" y="700" on="1"/>
        <pt x="493" y="648" on="1"/>
        <pt x="537" y="590" on="0"/>
        <pt x="537" y="495" on="1"/>
        <pt x="537" y="230" on="1"/>
        <pt x="537" y="108" on="0"/>
        <pt x="403" y="-6" on="0"/>
        <pt x="291" y="-6" on="1"/>
        <pt x="230" y="-6" on="0"/>
        <pt x="182" y="10" on="1"/>
        <pt x="167" y="-21" on="1"/>
        <pt x="155" y="-46" on="0"/>
        <pt x="122" y="-46" on="1"/>
        <pt x="98" y="-46" on="0"/>
        <pt x="66" y="-13" on="0"/>
        <pt x="66" y="7" on="1"/>
        <pt x="66" y="16" on="0"/>
        <pt x="71" y="26" on="1"/>
        <pt x="93" y="71" on="1"/>
        <pt x="46" y="129" on="0"/>
      </contour>
      <contour>
        <pt x="202" y="295" on="1"/>
        <pt x="342" y="583" on="1"/>
        <pt x="321" y="595" on="0"/>
        <pt x="291" y="595" on="1"/>
        <pt x="202" y="595" on="0"/>
        <pt x="202" y="495" on="1"/>
      </contour>
      <contour>
        <pt x="205" y="856" on="1"/>
        <pt x="205" y="881" on="0"/>
        <pt x="225" y="891" on="1"/>
        <pt x="365" y="956" on="1"/>
        <pt x="372" y="959" on="0"/>
        <pt x="379" y="959" on="1"/>
        <pt x="398" y="959" on="0"/>
        <pt x="426" y="922" on="0"/>
        <pt x="426" y="901" on="1"/>
        <pt x="426" y="877" on="0"/>
        <pt x="406" y="867" on="1"/>
        <pt x="266" y="802" on="1"/>
        <pt x="256" y="798" on="0"/>
        <pt x="251" y="798" on="1"/>
        <pt x="232" y="798" on="0"/>
        <pt x="205" y="835" on="0"/>
      </contour>
      <contour>
        <pt x="245" y="139" on="1"/>
        <pt x="264" y="130" on="0"/>
        <pt x="291" y="130" on="1"/>
        <pt x="381" y="130" on="0"/>
        <pt x="381" y="230" on="1"/>
        <pt x="381" y="417" on="1"/>
      </contour>
    </TTGlyph>
    <TTGlyph name="Otilde" xMin="46" yMin="-6" xMax="537" yMax="946">
      <contour>
        <pt x="46" y="230" on="1"/>
        <pt x="46" y="495" on="1"/>
        <pt x="46" y="617" on="0"/>
        <pt x="180" y="731" on="0"/>
        <pt x="291" y="731" on="1"/>
        <pt x="403" y="731" on="0"/>
        <pt x="537" y="617" on="0"/>
        <pt x="537" y="495" on="1"/>
        <pt x="537" y="230" on="1"/>
        <pt x="537" y="108" on="0"/>
        <pt x="403" y="-6" on="0"/>
        <pt x="291" y="-6" on="1"/>
        <pt x="180" y="-6" on="0"/>
        <pt x="46" y="108" on="0"/>
      </contour>
      <contour>
        <pt x="114" y="873" on="1"/>
        <pt x="114" y="946" on="0"/>
        <pt x="199" y="946" on="1"/>
        <pt x="230" y="946" on="0"/>
        <pt x="318" y="919" on="0"/>
        <pt x="345" y="919" on="1"/>
        <pt x="368" y="919" on="0"/>
        <pt x="422" y="940" on="0"/>
        <pt x="431" y="940" on="1"/>
        <pt x="451" y="940" on="0"/>
        <pt x="469" y="905" on="0"/>
        <pt x="469" y="891" on="1"/>
        <pt x="469" y="818" on="0"/>
        <pt x="384" y="818" on="1"/>
        <pt x="346" y="818" on="0"/>
        <pt x="259" y="845" on="0"/>
        <pt x="238" y="845" on="1"/>
        <pt x="215" y="845" on="0"/>
        <pt x="161" y="824" on="0"/>
        <pt x="152" y="824" on="1"/>
        <pt x="132" y="824" on="0"/>
        <pt x="114" y="859" on="0"/>
      </contour>
      <contour>
        <pt x="202" y="230" on="1"/>
        <pt x="202" y="130" on="0"/>
        <pt x="291" y="130" on="1"/>
        <pt x="381" y="130" on="0"/>
        <pt x="381" y="230" on="1"/>
        <pt x="381" y="495" on="1"/>
        <pt x="381" y="595" on="0"/>
        <pt x="291" y="595" on="1"/>
        <pt x="202" y="595" on="0"/>
        <pt x="202" y="495" on="1"/>
      </contour>
    </TTGlyph>
    <TTGlyph name="P" xMin="54" yMin="0" xMax="555" yMax="731">
      <contour>
        <pt x="54" y="48" on="1"/>
        <pt x="54" y="684" on="1"/>
        <pt x="54" y="703" on="0"/>
        <pt x="86" y="731" on="0"/>
        <pt x="112" y="731" on="1"/>
        <pt x="319" y="731" on="1"/>
        <pt x="426" y="731" on="0"/>
        <pt x="555" y="620" on="0"/>
        <pt x="555" y="501" on="1"/>
        <pt x="555" y="496" on="1"/>
        <pt x="555" y="377" on="0"/>
        <pt x="420" y="264" on="0"/>
        <pt x="309" y="264" on="1"/>
        <pt x="210" y="264" on="1"/>
        <pt x="210" y="48" on="1"/>
        <pt x="210" y="25" on="0"/>
        <pt x="164" y="0" on="0"/>
        <pt x="100" y="0" on="0"/>
        <pt x="54" y="25" on="0"/>
      </contour>
      <contour>
        <pt x="210" y="384" on="1"/>
        <pt x="309" y="384" on="1"/>
        <pt x="399" y="384" on="0"/>
        <pt x="399" y="484" on="1"/>
        <pt x="399" y="495" on="1"/>
        <pt x="399" y="595" on="0"/>
        <pt x="309" y="595" on="1"/>
        <pt x="210" y="595" on="1"/>
      </contour>
    </TTGlyph>
    <TTGlyph name="Q" xMin="46" yMin="-109" xMax="537" yMax="731">
      <contour>
        <pt x="46" y="230" on="1"/>
        <pt x="46" y="495" on="1"/>
        <pt x="46" y="618" on="0"/>
        <pt x="179" y="731" on="0"/>
        <pt x="403" y="731" on="0"/>
        <pt x="537" y="618" on="0"/>
        <pt x="537" y="495" on="1"/>
        <pt x="537" y="230" on="1"/>
        <pt x="537" y="122" on="0"/>
        <pt x="430" y="8" on="0"/>
        <pt x="339" y="-3" on="1"/>
        <pt x="339" y="-61" on="1"/>
        <pt x="339" y="-84" on="0"/>
        <pt x="310" y="-109" on="0"/>
        <pt x="272" y="-109" on="0"/>
        <pt x="243" y="-84" on="0"/>
        <pt x="243" y="-61" on="1"/>
        <pt x="243" y="-3" on="1"/>
        <pt x="152" y="8" on="0"/>
        <pt x="46" y="121" on="0"/>
      </contour>
      <contour>
        <pt x="202" y="230" on="1"/>
        <pt x="202" y="163" on="0"/>
        <pt x="243" y="140" on="1"/>
        <pt x="243" y="184" on="1"/>
        <pt x="243" y="207" on="0"/>
        <pt x="271" y="231" on="0"/>
        <pt x="311" y="231" on="0"/>
        <pt x="339" y="207" on="0"/>
        <pt x="339" y="184" on="1"/>
        <pt x="339" y="140" on="1"/>
        <pt x="381" y="164" on="0"/>
        <pt x="381" y="230" on="1"/>
        <pt x="381" y="495" on="1"/>
        <pt x="381" y="595" on="0"/>
        <pt x="291" y="595" on="1"/>
        <pt x="202" y="595" on="0"/>
        <pt x="202" y="495" on="1"/>
      </contour>
    </TTGlyph>
    <TTGlyph name="R" xMin="54" yMin="-6" xMax="561" yMax="731">
      <contour>
        <pt x="54" y="48" on="1"/>
        <pt x="54" y="684" on="1"/>
        <pt x="54" y="703" on="0"/>
        <pt x="81" y="731" on="0"/>
        <pt x="102" y="731" on="1"/>
        <pt x="309" y="731" on="1"/>
        <pt x="555" y="731" on="0"/>
        <pt x="555" y="517" on="1"/>
        <pt x="555" y="361" on="0"/>
        <pt x="434" y="314" on="1"/>
        <pt x="556" y="93" on="1"/>
        <pt x="561" y="86" on="0"/>
        <pt x="561" y="75" on="1"/>
        <pt x="561" y="46" on="0"/>
        <pt x="498" y="-6" on="0"/>
        <pt x="428" y="-6" on="0"/>
        <pt x="413" y="23" on="1"/>
        <pt x="276" y="289" on="1"/>
        <pt x="210" y="289" on="1"/>
        <pt x="210" y="48" on="1"/>
        <pt x="210" y="25" on="0"/>
        <pt x="164" y="0" on="0"/>
        <pt x="100" y="0" on="0"/>
        <pt x="54" y="25" on="0"/>
      </contour>
      <contour>
        <pt x="210" y="409" on="1"/>
        <pt x="309" y="409" on="1"/>
        <pt x="353" y="409" on="0"/>
        <pt x="399" y="452" on="0"/>
        <pt x="399" y="552" on="0"/>
        <pt x="353" y="595" on="0"/>
        <pt x="309" y="595" on="1"/>
        <pt x="210" y="595" on="1"/>
      </contour>
    </TTGlyph>
    <TTGlyph name="Racute" xMin="54" yMin="-6" xMax="561" yMax="959">
      <contour>
        <pt x="54" y="48" on="1"/>
        <pt x="54" y="684" on="1"/>
        <pt x="54" y="703" on="0"/>
        <pt x="81" y="731" on="0"/>
        <pt x="102" y="731" on="1"/>
        <pt x="309" y="731" on="1"/>
        <pt x="555" y="731" on="0"/>
        <pt x="555" y="517" on="1"/>
        <pt x="555" y="361" on="0"/>
        <pt x="434" y="314" on="1"/>
        <pt x="556" y="93" on="1"/>
        <pt x="561" y="86" on="0"/>
        <pt x="561" y="75" on="1"/>
        <pt x="561" y="46" on="0"/>
        <pt x="498" y="-6" on="0"/>
        <pt x="428" y="-6" on="0"/>
        <pt x="413" y="23" on="1"/>
        <pt x="276" y="289" on="1"/>
        <pt x="210" y="289" on="1"/>
        <pt x="210" y="48" on="1"/>
        <pt x="210" y="25" on="0"/>
        <pt x="164" y="0" on="0"/>
        <pt x="100" y="0" on="0"/>
        <pt x="54" y="25" on="0"/>
      </contour>
      <contour>
        <pt x="210" y="409" on="1"/>
        <pt x="309" y="409" on="1"/>
        <pt x="353" y="409" on="0"/>
        <pt x="399" y="452" on="0"/>
        <pt x="399" y="552" on="0"/>
        <pt x="353" y="595" on="0"/>
        <pt x="309" y="595" on="1"/>
        <pt x="210" y="595" on="1"/>
      </contour>
      <contour>
        <pt x="218" y="856" on="1"/>
        <pt x="218" y="881" on="0"/>
        <pt x="238" y="891" on="1"/>
        <pt x="378" y="956" on="1"/>
        <pt x="386" y="959" on="0"/>
        <pt x="392" y="959" on="1"/>
        <pt x="411" y="959" on="0"/>
        <pt x="439" y="922" on="0"/>
        <pt x="439" y="901" on="1"/>
        <pt x="439" y="877" on="0"/>
        <pt x="419" y="867" on="1"/>
        <pt x="279" y="802" on="1"/>
        <pt x="269" y="798" on="0"/>
        <pt x="264" y="798" on="1"/>
        <pt x="245" y="798" on="0"/>
        <pt x="218" y="835" on="0"/>
      </contour>
    </TTGlyph>
    <TTGlyph name="Rcaron" xMin="54" yMin="-6" xMax="561" yMax="971">
      <contour>
        <pt x="54" y="48" on="1"/>
        <pt x="54" y="684" on="1"/>
        <pt x="54" y="703" on="0"/>
        <pt x="81" y="731" on="0"/>
        <pt x="102" y="731" on="1"/>
        <pt x="309" y="731" on="1"/>
        <pt x="555" y="731" on="0"/>
        <pt x="555" y="517" on="1"/>
        <pt x="555" y="361" on="0"/>
        <pt x="434" y="314" on="1"/>
        <pt x="556" y="93" on="1"/>
        <pt x="561" y="86" on="0"/>
        <pt x="561" y="75" on="1"/>
        <pt x="561" y="46" on="0"/>
        <pt x="498" y="-6" on="0"/>
        <pt x="428" y="-6" on="0"/>
        <pt x="413" y="23" on="1"/>
        <pt x="276" y="289" on="1"/>
        <pt x="210" y="289" on="1"/>
        <pt x="210" y="48" on="1"/>
        <pt x="210" y="25" on="0"/>
        <pt x="164" y="0" on="0"/>
        <pt x="100" y="0" on="0"/>
        <pt x="54" y="25" on="0"/>
      </contour>
      <contour>
        <pt x="128" y="925" on="1"/>
        <pt x="128" y="943" on="0"/>
        <pt x="146" y="971" on="0"/>
        <pt x="159" y="971" on="1"/>
        <pt x="164" y="971" on="0"/>
        <pt x="170" y="968" on="1"/>
        <pt x="274" y="912" on="1"/>
        <pt x="378" y="968" on="1"/>
        <pt x="384" y="971" on="0"/>
        <pt x="389" y="971" on="1"/>
        <pt x="402" y="971" on="0"/>
        <pt x="420" y="943" on="0"/>
        <pt x="420" y="925" on="1"/>
        <pt x="420" y="895" on="0"/>
        <pt x="395" y="881" on="1"/>
        <pt x="291" y="825" on="1"/>
        <pt x="281" y="820" on="0"/>
        <pt x="267" y="820" on="0"/>
        <pt x="257" y="825" on="1"/>
        <pt x="153" y="881" on="1"/>
        <pt x="128" y="895" on="0"/>
      </contour>
      <contour>
        <pt x="210" y="409" on="1"/>
        <pt x="309" y="409" on="1"/>
        <pt x="353" y="409" on="0"/>
        <pt x="399" y="452" on="0"/>
        <pt x="399" y="552" on="0"/>
        <pt x="353" y="595" on="0"/>
        <pt x="309" y="595" on="1"/>
        <pt x="210" y="595" on="1"/>
      </contour>
    </TTGlyph>
    <TTGlyph name="Rcommaaccent" xMin="54" yMin="-209" xMax="561" yMax="731">
      <contour>
        <pt x="54" y="48" on="1"/>
        <pt x="54" y="684" on="1"/>
        <pt x="54" y="703" on="0"/>
        <pt x="81" y="731" on="0"/>
        <pt x="102" y="731" on="1"/>
        <pt x="309" y="731" on="1"/>
        <pt x="555" y="731" on="0"/>
        <pt x="555" y="517" on="1"/>
        <pt x="555" y="361" on="0"/>
        <pt x="434" y="314" on="1"/>
        <pt x="556" y="93" on="1"/>
        <pt x="561" y="86" on="0"/>
        <pt x="561" y="75" on="1"/>
        <pt x="561" y="46" on="0"/>
        <pt x="498" y="-6" on="0"/>
        <pt x="428" y="-6" on="0"/>
        <pt x="413" y="23" on="1"/>
        <pt x="276" y="289" on="1"/>
        <pt x="210" y="289" on="1"/>
        <pt x="210" y="48" on="1"/>
        <pt x="210" y="25" on="0"/>
        <pt x="164" y="0" on="0"/>
        <pt x="100" y="0" on="0"/>
        <pt x="54" y="25" on="0"/>
      </contour>
      <contour>
        <pt x="183" y="-151" on="1"/>
        <pt x="183" y="-126" on="0"/>
        <pt x="203" y="-116" on="1"/>
        <pt x="343" y="-51" on="1"/>
        <pt x="350" y="-48" on="0"/>
        <pt x="357" y="-48" on="1"/>
        <pt x="376" y="-48" on="0"/>
        <pt x="404" y="-85" on="0"/>
        <pt x="404" y="-106" on="1"/>
        <pt x="404" y="-130" on="0"/>
        <pt x="384" y="-140" on="1"/>
        <pt x="244" y="-205" on="1"/>
        <pt x="234" y="-209" on="0"/>
        <pt x="229" y="-209" on="1"/>
        <pt x="210" y="-209" on="0"/>
        <pt x="183" y="-172" on="0"/>
      </contour>
      <contour>
        <pt x="210" y="409" on="1"/>
        <pt x="309" y="409" on="1"/>
        <pt x="353" y="409" on="0"/>
        <pt x="399" y="452" on="0"/>
        <pt x="399" y="552" on="0"/>
        <pt x="353" y="595" on="0"/>
        <pt x="309" y="595" on="1"/>
        <pt x="210" y="595" on="1"/>
      </contour>
    </TTGlyph>
    <TTGlyph name="S" xMin="19" yMin="-10" xMax="510" yMax="737">
      <contour>
        <pt x="19" y="120" on="1"/>
        <pt x="19" y="148" on="0"/>
        <pt x="60" y="204" on="0"/>
        <pt x="87" y="204" on="1"/>
        <pt x="102" y="204" on="0"/>
        <pt x="139" y="181" on="0"/>
        <pt x="170" y="153" on="0"/>
        <pt x="226" y="130" on="0"/>
        <pt x="257" y="130" on="1"/>
        <pt x="296" y="130" on="0"/>
        <pt x="354" y="163" on="0"/>
        <pt x="354" y="229" on="0"/>
        <pt x="289" y="279" on="0"/>
        <pt x="196" y="320" on="0"/>
        <pt x="102" y="371" on="0"/>
        <pt x="37" y="465" on="0"/>
        <pt x="37" y="530" on="1"/>
        <pt x="37" y="634" on="0"/>
        <pt x="187" y="737" on="0"/>
        <pt x="293" y="737" on="1"/>
        <pt x="319" y="737" on="0"/>
        <pt x="376" y="731" on="0"/>
        <pt x="447" y="714" on="0"/>
        <pt x="492" y="676" on="0"/>
        <pt x="492" y="649" on="1"/>
        <pt x="492" y="623" on="0"/>
        <pt x="459" y="567" on="0"/>
        <pt x="430" y="567" on="1"/>
        <pt x="418" y="567" on="0"/>
        <pt x="340" y="605" on="0"/>
        <pt x="293" y="605" on="1"/>
        <pt x="243" y="605" on="0"/>
        <pt x="193" y="570" on="0"/>
        <pt x="193" y="545" on="1"/>
        <pt x="193" y="522" on="0"/>
        <pt x="240" y="484" on="0"/>
        <pt x="310" y="457" on="0"/>
        <pt x="393" y="414" on="0"/>
        <pt x="463" y="363" on="0"/>
        <pt x="510" y="271" on="0"/>
        <pt x="510" y="212" on="1"/>
        <pt x="510" y="107" on="0"/>
        <pt x="372" y="-10" on="0"/>
        <pt x="260" y="-10" on="1"/>
        <pt x="163" y="-10" on="0"/>
        <pt x="19" y="70" on="0"/>
      </contour>
    </TTGlyph>
    <TTGlyph name="Sacute" xMin="19" yMin="-10" xMax="510" yMax="959">
      <contour>
        <pt x="19" y="120" on="1"/>
        <pt x="19" y="148" on="0"/>
        <pt x="60" y="204" on="0"/>
        <pt x="87" y="204" on="1"/>
        <pt x="102" y="204" on="0"/>
        <pt x="139" y="181" on="0"/>
        <pt x="170" y="153" on="0"/>
        <pt x="226" y="130" on="0"/>
        <pt x="257" y="130" on="1"/>
        <pt x="296" y="130" on="0"/>
        <pt x="354" y="163" on="0"/>
        <pt x="354" y="229" on="0"/>
        <pt x="289" y="279" on="0"/>
        <pt x="196" y="320" on="0"/>
        <pt x="102" y="371" on="0"/>
        <pt x="37" y="465" on="0"/>
        <pt x="37" y="530" on="1"/>
        <pt x="37" y="634" on="0"/>
        <pt x="187" y="737" on="0"/>
        <pt x="293" y="737" on="1"/>
        <pt x="319" y="737" on="0"/>
        <pt x="376" y="731" on="0"/>
        <pt x="447" y="714" on="0"/>
        <pt x="492" y="676" on="0"/>
        <pt x="492" y="649" on="1"/>
        <pt x="492" y="623" on="0"/>
        <pt x="459" y="567" on="0"/>
        <pt x="430" y="567" on="1"/>
        <pt x="418" y="567" on="0"/>
        <pt x="340" y="605" on="0"/>
        <pt x="293" y="605" on="1"/>
        <pt x="243" y="605" on="0"/>
        <pt x="193" y="570" on="0"/>
        <pt x="193" y="545" on="1"/>
        <pt x="193" y="522" on="0"/>
        <pt x="240" y="484" on="0"/>
        <pt x="310" y="457" on="0"/>
        <pt x="393" y="414" on="0"/>
        <pt x="463" y="363" on="0"/>
        <pt x="510" y="271" on="0"/>
        <pt x="510" y="212" on="1"/>
        <pt x="510" y="107" on="0"/>
        <pt x="372" y="-10" on="0"/>
        <pt x="260" y="-10" on="1"/>
        <pt x="163" y="-10" on="0"/>
        <pt x="19" y="70" on="0"/>
      </contour>
      <contour>
        <pt x="178" y="856" on="1"/>
        <pt x="178" y="881" on="0"/>
        <pt x="198" y="891" on="1"/>
        <pt x="338" y="956" on="1"/>
        <pt x="346" y="959" on="0"/>
        <pt x="352" y="959" on="1"/>
        <pt x="371" y="959" on="0"/>
        <pt x="399" y="922" on="0"/>
        <pt x="399" y="901" on="1"/>
        <pt x="399" y="877" on="0"/>
        <pt x="379" y="867" on="1"/>
        <pt x="239" y="802" on="1"/>
        <pt x="229" y="798" on="0"/>
        <pt x="224" y="798" on="1"/>
        <pt x="205" y="798" on="0"/>
        <pt x="178" y="835" on="0"/>
      </contour>
    </TTGlyph>
    <TTGlyph name="Scaron" xMin="19" yMin="-10" xMax="510" yMax="971">
      <contour>
        <pt x="19" y="120" on="1"/>
        <pt x="19" y="148" on="0"/>
        <pt x="60" y="204" on="0"/>
        <pt x="87" y="204" on="1"/>
        <pt x="102" y="204" on="0"/>
        <pt x="139" y="181" on="0"/>
        <pt x="170" y="153" on="0"/>
        <pt x="226" y="130" on="0"/>
        <pt x="257" y="130" on="1"/>
        <pt x="296" y="130" on="0"/>
        <pt x="354" y="163" on="0"/>
        <pt x="354" y="229" on="0"/>
        <pt x="289" y="279" on="0"/>
        <pt x="196" y="320" on="0"/>
        <pt x="102" y="371" on="0"/>
        <pt x="37" y="465" on="0"/>
        <pt x="37" y="530" on="1"/>
        <pt x="37" y="634" on="0"/>
        <pt x="187" y="737" on="0"/>
        <pt x="293" y="737" on="1"/>
        <pt x="319" y="737" on="0"/>
        <pt x="376" y="731" on="0"/>
        <pt x="447" y="714" on="0"/>
        <pt x="492" y="676" on="0"/>
        <pt x="492" y="649" on="1"/>
        <pt x="492" y="623" on="0"/>
        <pt x="459" y="567" on="0"/>
        <pt x="430" y="567" on="1"/>
        <pt x="418" y="567" on="0"/>
        <pt x="340" y="605" on="0"/>
        <pt x="293" y="605" on="1"/>
        <pt x="243" y="605" on="0"/>
        <pt x="193" y="570" on="0"/>
        <pt x="193" y="545" on="1"/>
        <pt x="193" y="522" on="0"/>
        <pt x="240" y="484" on="0"/>
        <pt x="310" y="457" on="0"/>
        <pt x="393" y="414" on="0"/>
        <pt x="463" y="363" on="0"/>
        <pt x="510" y="271" on="0"/>
        <pt x="510" y="212" on="1"/>
        <pt x="510" y="107" on="0"/>
        <pt x="372" y="-10" on="0"/>
        <pt x="260" y="-10" on="1"/>
        <pt x="163" y="-10" on="0"/>
        <pt x="19" y="70" on="0"/>
      </contour>
      <contour>
        <pt x="119" y="925" on="1"/>
        <pt x="119" y="943" on="0"/>
        <pt x="137" y="971" on="0"/>
        <pt x="150" y="971" on="1"/>
        <pt x="155" y="971" on="0"/>
        <pt x="161" y="968" on="1"/>
        <pt x="265" y="912" on="1"/>
        <pt x="369" y="968" on="1"/>
        <pt x="375" y="971" on="0"/>
        <pt x="380" y="971" on="1"/>
        <pt x="393" y="971" on="0"/>
        <pt x="411" y="943" on="0"/>
        <pt x="411" y="925" on="1"/>
        <pt x="411" y="895" on="0"/>
        <pt x="386" y="881" on="1"/>
        <pt x="282" y="825" on="1"/>
        <pt x="272" y="820" on="0"/>
        <pt x="258" y="820" on="0"/>
        <pt x="248" y="825" on="1"/>
        <pt x="144" y="881" on="1"/>
        <pt x="119" y="895" on="0"/>
      </contour>
    </TTGlyph>
    <TTGlyph name="Scedilla" xMin="19" yMin="-219" xMax="510" yMax="737">
      <contour>
        <pt x="19" y="120" on="1"/>
        <pt x="19" y="148" on="0"/>
        <pt x="60" y="204" on="0"/>
        <pt x="87" y="204" on="1"/>
        <pt x="102" y="204" on="0"/>
        <pt x="139" y="181" on="0"/>
        <pt x="170" y="153" on="0"/>
        <pt x="226" y="130" on="0"/>
        <pt x="257" y="130" on="1"/>
        <pt x="296" y="130" on="0"/>
        <pt x="354" y="163" on="0"/>
        <pt x="354" y="229" on="0"/>
        <pt x="289" y="279" on="0"/>
        <pt x="196" y="320" on="0"/>
        <pt x="102" y="371" on="0"/>
        <pt x="37" y="465" on="0"/>
        <pt x="37" y="530" on="1"/>
        <pt x="37" y="634" on="0"/>
        <pt x="187" y="737" on="0"/>
        <pt x="293" y="737" on="1"/>
        <pt x="319" y="737" on="0"/>
        <pt x="376" y="731" on="0"/>
        <pt x="447" y="714" on="0"/>
        <pt x="492" y="676" on="0"/>
        <pt x="492" y="649" on="1"/>
        <pt x="492" y="623" on="0"/>
        <pt x="459" y="567" on="0"/>
        <pt x="430" y="567" on="1"/>
        <pt x="418" y="567" on="0"/>
        <pt x="340" y="605" on="0"/>
        <pt x="293" y="605" on="1"/>
        <pt x="243" y="605" on="0"/>
        <pt x="193" y="570" on="0"/>
        <pt x="193" y="545" on="1"/>
        <pt x="193" y="522" on="0"/>
        <pt x="240" y="484" on="0"/>
        <pt x="310" y="457" on="0"/>
        <pt x="393" y="414" on="0"/>
        <pt x="463" y="363" on="0"/>
        <pt x="510" y="271" on="0"/>
        <pt x="510" y="212" on="1"/>
        <pt x="510" y="119" on="0"/>
        <pt x="402" y="6" on="0"/>
        <pt x="310" y="-6" on="1"/>
        <pt x="297" y="-47" on="1"/>
        <pt x="346" y="-49" on="0"/>
        <pt x="397" y="-93" on="0"/>
        <pt x="397" y="-126" on="1"/>
        <pt x="397" y="-160" on="0"/>
        <pt x="345" y="-219" on="0"/>
        <pt x="286" y="-219" on="1"/>
        <pt x="254" y="-219" on="0"/>
        <pt x="198" y="-202" on="0"/>
        <pt x="198" y="-188" on="1"/>
        <pt x="198" y="-178" on="0"/>
        <pt x="212" y="-146" on="0"/>
        <pt x="224" y="-146" on="1"/>
        <pt x="228" y="-146" on="0"/>
        <pt x="264" y="-160" on="0"/>
        <pt x="282" y="-160" on="1"/>
        <pt x="328" y="-160" on="0"/>
        <pt x="328" y="-129" on="1"/>
        <pt x="328" y="-99" on="0"/>
        <pt x="285" y="-95" on="1"/>
        <pt x="223" y="-89" on="1"/>
        <pt x="246" y="-10" on="1"/>
        <pt x="153" y="-7" on="0"/>
        <pt x="19" y="71" on="0"/>
      </contour>
    </TTGlyph>
    <TTGlyph name="Scircumflex" xMin="19" yMin="-10" xMax="510" yMax="959">
      <contour>
        <pt x="19" y="120" on="1"/>
        <pt x="19" y="148" on="0"/>
        <pt x="60" y="204" on="0"/>
        <pt x="87" y="204" on="1"/>
        <pt x="102" y="204" on="0"/>
        <pt x="139" y="181" on="0"/>
        <pt x="170" y="153" on="0"/>
        <pt x="226" y="130" on="0"/>
        <pt x="257" y="130" on="1"/>
        <pt x="296" y="130" on="0"/>
        <pt x="354" y="163" on="0"/>
        <pt x="354" y="229" on="0"/>
        <pt x="289" y="279" on="0"/>
        <pt x="196" y="320" on="0"/>
        <pt x="102" y="371" on="0"/>
        <pt x="37" y="465" on="0"/>
        <pt x="37" y="530" on="1"/>
        <pt x="37" y="634" on="0"/>
        <pt x="187" y="737" on="0"/>
        <pt x="293" y="737" on="1"/>
        <pt x="319" y="737" on="0"/>
        <pt x="376" y="731" on="0"/>
        <pt x="447" y="714" on="0"/>
        <pt x="492" y="676" on="0"/>
        <pt x="492" y="649" on="1"/>
        <pt x="492" y="623" on="0"/>
        <pt x="459" y="567" on="0"/>
        <pt x="430" y="567" on="1"/>
        <pt x="418" y="567" on="0"/>
        <pt x="340" y="605" on="0"/>
        <pt x="293" y="605" on="1"/>
        <pt x="243" y="605" on="0"/>
        <pt x="193" y="570" on="0"/>
        <pt x="193" y="545" on="1"/>
        <pt x="193" y="522" on="0"/>
        <pt x="240" y="484" on="0"/>
        <pt x="310" y="457" on="0"/>
        <pt x="393" y="414" on="0"/>
        <pt x="463" y="363" on="0"/>
        <pt x="510" y="271" on="0"/>
        <pt x="510" y="212" on="1"/>
        <pt x="510" y="107" on="0"/>
        <pt x="372" y="-10" on="0"/>
        <pt x="260" y="-10" on="1"/>
        <pt x="163" y="-10" on="0"/>
        <pt x="19" y="70" on="0"/>
      </contour>
      <contour>
        <pt x="118" y="854" on="1"/>
        <pt x="118" y="884" on="0"/>
        <pt x="143" y="898" on="1"/>
        <pt x="247" y="954" on="1"/>
        <pt x="257" y="959" on="0"/>
        <pt x="271" y="959" on="0"/>
        <pt x="281" y="954" on="1"/>
        <pt x="385" y="898" on="1"/>
        <pt x="410" y="884" on="0"/>
        <pt x="410" y="854" on="1"/>
        <pt x="410" y="836" on="0"/>
        <pt x="392" y="808" on="0"/>
        <pt x="379" y="808" on="1"/>
        <pt x="374" y="808" on="0"/>
        <pt x="368" y="811" on="1"/>
        <pt x="264" y="867" on="1"/>
        <pt x="160" y="811" on="1"/>
        <pt x="154" y="808" on="0"/>
        <pt x="149" y="808" on="1"/>
        <pt x="136" y="808" on="0"/>
        <pt x="118" y="836" on="0"/>
      </contour>
    </TTGlyph>
    <TTGlyph name="Scommaaccent" xMin="19" yMin="-209" xMax="510" yMax="737">
      <contour>
        <pt x="19" y="120" on="1"/>
        <pt x="19" y="148" on="0"/>
        <pt x="60" y="204" on="0"/>
        <pt x="87" y="204" on="1"/>
        <pt x="102" y="204" on="0"/>
        <pt x="139" y="181" on="0"/>
        <pt x="170" y="153" on="0"/>
        <pt x="226" y="130" on="0"/>
        <pt x="257" y="130" on="1"/>
        <pt x="296" y="130" on="0"/>
        <pt x="354" y="163" on="0"/>
        <pt x="354" y="229" on="0"/>
        <pt x="289" y="279" on="0"/>
        <pt x="196" y="320" on="0"/>
        <pt x="102" y="371" on="0"/>
        <pt x="37" y="465" on="0"/>
        <pt x="37" y="530" on="1"/>
        <pt x="37" y="634" on="0"/>
        <pt x="187" y="737" on="0"/>
        <pt x="293" y="737" on="1"/>
        <pt x="319" y="737" on="0"/>
        <pt x="376" y="731" on="0"/>
        <pt x="447" y="714" on="0"/>
        <pt x="492" y="676" on="0"/>
        <pt x="492" y="649" on="1"/>
        <pt x="492" y="623" on="0"/>
        <pt x="459" y="567" on="0"/>
        <pt x="430" y="567" on="1"/>
        <pt x="418" y="567" on="0"/>
        <pt x="340" y="605" on="0"/>
        <pt x="293" y="605" on="1"/>
        <pt x="243" y="605" on="0"/>
        <pt x="193" y="570" on="0"/>
        <pt x="193" y="545" on="1"/>
        <pt x="193" y="522" on="0"/>
        <pt x="240" y="484" on="0"/>
        <pt x="310" y="457" on="0"/>
        <pt x="393" y="414" on="0"/>
        <pt x="463" y="363" on="0"/>
        <pt x="510" y="271" on="0"/>
        <pt x="510" y="212" on="1"/>
        <pt x="510" y="107" on="0"/>
        <pt x="372" y="-10" on="0"/>
        <pt x="260" y="-10" on="1"/>
        <pt x="163" y="-10" on="0"/>
        <pt x="19" y="70" on="0"/>
      </contour>
      <contour>
        <pt x="165" y="-151" on="1"/>
        <pt x="165" y="-126" on="0"/>
        <pt x="185" y="-116" on="1"/>
        <pt x="325" y="-51" on="1"/>
        <pt x="332" y="-48" on="0"/>
        <pt x="339" y="-48" on="1"/>
        <pt x="358" y="-48" on="0"/>
        <pt x="386" y="-85" on="0"/>
        <pt x="386" y="-106" on="1"/>
        <pt x="386" y="-130" on="0"/>
        <pt x="366" y="-140" on="1"/>
        <pt x="226" y="-205" on="1"/>
        <pt x="216" y="-209" on="0"/>
        <pt x="211" y="-209" on="1"/>
        <pt x="192" y="-209" on="0"/>
        <pt x="165" y="-172" on="0"/>
      </contour>
    </TTGlyph>
    <TTGlyph name="T" xMin="8" yMin="0" xMax="534" yMax="731">
      <contour>
        <pt x="8" y="662" on="1"/>
        <pt x="8" y="690" on="0"/>
        <pt x="32" y="731" on="0"/>
        <pt x="55" y="731" on="1"/>
        <pt x="487" y="731" on="1"/>
        <pt x="510" y="731" on="0"/>
        <pt x="534" y="690" on="0"/>
        <pt x="534" y="662" on="1"/>
        <pt x="534" y="632" on="0"/>
        <pt x="509" y="591" on="0"/>
        <pt x="487" y="591" on="1"/>
        <pt x="349" y="591" on="1"/>
        <pt x="349" y="48" on="1"/>
        <pt x="349" y="25" on="0"/>
        <pt x="303" y="0" on="0"/>
        <pt x="239" y="0" on="0"/>
        <pt x="193" y="25" on="0"/>
        <pt x="193" y="48" on="1"/>
        <pt x="193" y="591" on="1"/>
        <pt x="55" y="591" on="1"/>
        <pt x="33" y="591" on="0"/>
        <pt x="8" y="632" on="0"/>
      </contour>
    </TTGlyph>
    <TTGlyph name="Tbar" xMin="8" yMin="0" xMax="534" yMax="731">
      <contour>
        <pt x="8" y="662" on="1"/>
        <pt x="8" y="690" on="0"/>
        <pt x="32" y="731" on="0"/>
        <pt x="55" y="731" on="1"/>
        <pt x="487" y="731" on="1"/>
        <pt x="510" y="731" on="0"/>
        <pt x="534" y="690" on="0"/>
        <pt x="534" y="662" on="1"/>
        <pt x="534" y="632" on="0"/>
        <pt x="509" y="591" on="0"/>
        <pt x="487" y="591" on="1"/>
        <pt x="349" y="591" on="1"/>
        <pt x="349" y="420" on="1"/>
        <pt x="416" y="420" on="1"/>
        <pt x="434" y="420" on="0"/>
        <pt x="454" y="387" on="0"/>
        <pt x="454" y="365" on="1"/>
        <pt x="454" y="342" on="0"/>
        <pt x="434" y="310" on="0"/>
        <pt x="416" y="310" on="1"/>
        <pt x="349" y="310" on="1"/>
        <pt x="349" y="48" on="1"/>
        <pt x="349" y="25" on="0"/>
        <pt x="303" y="0" on="0"/>
        <pt x="239" y="0" on="0"/>
        <pt x="193" y="25" on="0"/>
        <pt x="193" y="48" on="1"/>
        <pt x="193" y="310" on="1"/>
        <pt x="125" y="310" on="1"/>
        <pt x="107" y="310" on="0"/>
        <pt x="87" y="342" on="0"/>
        <pt x="87" y="365" on="1"/>
        <pt x="87" y="387" on="0"/>
        <pt x="107" y="420" on="0"/>
        <pt x="125" y="420" on="1"/>
        <pt x="193" y="420" on="1"/>
        <pt x="193" y="591" on="1"/>
        <pt x="55" y="591" on="1"/>
        <pt x="33" y="591" on="0"/>
        <pt x="8" y="632" on="0"/>
      </contour>
    </TTGlyph>
    <TTGlyph name="Tcaron" xMin="8" yMin="0" xMax="534" yMax="971">
      <contour>
        <pt x="8" y="662" on="1"/>
        <pt x="8" y="690" on="0"/>
        <pt x="32" y="731" on="0"/>
        <pt x="55" y="731" on="1"/>
        <pt x="487" y="731" on="1"/>
        <pt x="510" y="731" on="0"/>
        <pt x="534" y="690" on="0"/>
        <pt x="534" y="662" on="1"/>
        <pt x="534" y="632" on="0"/>
        <pt x="509" y="591" on="0"/>
        <pt x="487" y="591" on="1"/>
        <pt x="349" y="591" on="1"/>
        <pt x="349" y="48" on="1"/>
        <pt x="349" y="25" on="0"/>
        <pt x="303" y="0" on="0"/>
        <pt x="239" y="0" on="0"/>
        <pt x="193" y="25" on="0"/>
        <pt x="193" y="48" on="1"/>
        <pt x="193" y="591" on="1"/>
        <pt x="55" y="591" on="1"/>
        <pt x="33" y="591" on="0"/>
        <pt x="8" y="632" on="0"/>
      </contour>
      <contour>
        <pt x="124" y="925" on="1"/>
        <pt x="124" y="943" on="0"/>
        <pt x="142" y="971" on="0"/>
        <pt x="155" y="971" on="1"/>
        <pt x="160" y="971" on="0"/>
        <pt x="166" y="968" on="1"/>
        <pt x="270" y="912" on="1"/>
        <pt x="374" y="968" on="1"/>
        <pt x="380" y="971" on="0"/>
        <pt x="385" y="971" on="1"/>
        <pt x="398" y="971" on="0"/>
        <pt x="416" y="943" on="0"/>
        <pt x="416" y="925" on="1"/>
        <pt x="416" y="895" on="0"/>
        <pt x="391" y="881" on="1"/>
        <pt x="287" y="825" on="1"/>
        <pt x="277" y="820" on="0"/>
        <pt x="263" y="820" on="0"/>
        <pt x="253" y="825" on="1"/>
        <pt x="149" y="881" on="1"/>
        <pt x="124" y="895" on="0"/>
      </contour>
    </TTGlyph>
    <TTGlyph name="Tcommaaccent" xMin="8" yMin="-209" xMax="534" yMax="731">
      <contour>
        <pt x="8" y="662" on="1"/>
        <pt x="8" y="690" on="0"/>
        <pt x="32" y="731" on="0"/>
        <pt x="55" y="731" on="1"/>
        <pt x="487" y="731" on="1"/>
        <pt x="510" y="731" on="0"/>
        <pt x="534" y="690" on="0"/>
        <pt x="534" y="662" on="1"/>
        <pt x="534" y="632" on="0"/>
        <pt x="509" y="591" on="0"/>
        <pt x="487" y="591" on="1"/>
        <pt x="349" y="591" on="1"/>
        <pt x="349" y="48" on="1"/>
        <pt x="349" y="25" on="0"/>
        <pt x="303" y="0" on="0"/>
        <pt x="239" y="0" on="0"/>
        <pt x="193" y="25" on="0"/>
        <pt x="193" y="48" on="1"/>
        <pt x="193" y="591" on="1"/>
        <pt x="55" y="591" on="1"/>
        <pt x="33" y="591" on="0"/>
        <pt x="8" y="632" on="0"/>
      </contour>
      <contour>
        <pt x="157" y="-151" on="1"/>
        <pt x="157" y="-126" on="0"/>
        <pt x="177" y="-116" on="1"/>
        <pt x="317" y="-51" on="1"/>
        <pt x="324" y="-48" on="0"/>
        <pt x="331" y="-48" on="1"/>
        <pt x="350" y="-48" on="0"/>
        <pt x="378" y="-85" on="0"/>
        <pt x="378" y="-106" on="1"/>
        <pt x="378" y="-130" on="0"/>
        <pt x="358" y="-140" on="1"/>
        <pt x="218" y="-205" on="1"/>
        <pt x="208" y="-209" on="0"/>
        <pt x="203" y="-209" on="1"/>
        <pt x="184" y="-209" on="0"/>
        <pt x="157" y="-172" on="0"/>
      </contour>
    </TTGlyph>
    <TTGlyph name="Thorn" xMin="54" yMin="0" xMax="513" yMax="748">
      <contour>
        <pt x="54" y="48" on="1"/>
        <pt x="54" y="701" on="1"/>
        <pt x="54" y="722" on="0"/>
        <pt x="97" y="748" on="0"/>
        <pt x="128" y="748" on="1"/>
        <pt x="163" y="748" on="0"/>
        <pt x="209" y="722" on="0"/>
        <pt x="209" y="701" on="1"/>
        <pt x="209" y="547" on="1"/>
        <pt x="226" y="579" on="0"/>
        <pt x="293" y="623" on="0"/>
        <pt x="334" y="623" on="1"/>
        <pt x="409" y="623" on="0"/>
        <pt x="513" y="500" on="0"/>
        <pt x="513" y="413" on="1"/>
        <pt x="513" y="343" on="1"/>
        <pt x="513" y="259" on="0"/>
        <pt x="408" y="131" on="0"/>
        <pt x="339" y="131" on="1"/>
        <pt x="297" y="131" on="0"/>
        <pt x="224" y="178" on="0"/>
        <pt x="209" y="211" on="1"/>
        <pt x="209" y="48" on="1"/>
        <pt x="209" y="30" on="0"/>
        <pt x="162" y="0" on="0"/>
        <pt x="98" y="0" on="0"/>
        <pt x="54" y="29" on="0"/>
      </contour>
      <contour>
        <pt x="209" y="330" on="1"/>
        <pt x="209" y="314" on="0"/>
        <pt x="254" y="266" on="0"/>
        <pt x="284" y="266" on="1"/>
        <pt x="313" y="266" on="0"/>
        <pt x="358" y="313" on="0"/>
        <pt x="358" y="343" on="1"/>
        <pt x="358" y="413" on="1"/>
        <pt x="358" y="442" on="0"/>
        <pt x="313" y="488" on="0"/>
        <pt x="282" y="488" on="1"/>
        <pt x="253" y="488" on="0"/>
        <pt x="209" y="447" on="0"/>
        <pt x="209" y="413" on="1"/>
      </contour>
    </TTGlyph>
    <TTGlyph name="U" xMin="51" yMin="-6" xMax="555" yMax="731">
      <contour>
        <pt x="51" y="230" on="1"/>
        <pt x="51" y="684" on="1"/>
        <pt x="51" y="707" on="0"/>
        <pt x="96" y="731" on="0"/>
        <pt x="129" y="731" on="1"/>
        <pt x="161" y="731" on="0"/>
        <pt x="207" y="707" on="0"/>
        <pt x="207" y="684" on="1"/>
        <pt x="207" y="230" on="1"/>
        <pt x="207" y="130" on="0"/>
        <pt x="399" y="130" on="0"/>
        <pt x="399" y="230" on="1"/>
        <pt x="399" y="684" on="1"/>
        <pt x="399" y="707" on="0"/>
        <pt x="444" y="731" on="0"/>
        <pt x="477" y="731" on="1"/>
        <pt x="509" y="731" on="0"/>
        <pt x="555" y="707" on="0"/>
        <pt x="555" y="684" on="1"/>
        <pt x="555" y="230" on="1"/>
        <pt x="555" y="108" on="0"/>
        <pt x="417" y="-6" on="0"/>
        <pt x="303" y="-6" on="1"/>
        <pt x="188" y="-6" on="0"/>
        <pt x="51" y="108" on="0"/>
      </contour>
    </TTGlyph>
    <TTGlyph name="Uacute" xMin="51" yMin="-6" xMax="555" yMax="959">
      <contour>
        <pt x="51" y="230" on="1"/>
        <pt x="51" y="684" on="1"/>
        <pt x="51" y="707" on="0"/>
        <pt x="96" y="731" on="0"/>
        <pt x="129" y="731" on="1"/>
        <pt x="161" y="731" on="0"/>
        <pt x="207" y="707" on="0"/>
        <pt x="207" y="684" on="1"/>
        <pt x="207" y="230" on="1"/>
        <pt x="207" y="130" on="0"/>
        <pt x="399" y="130" on="0"/>
        <pt x="399" y="230" on="1"/>
        <pt x="399" y="684" on="1"/>
        <pt x="399" y="707" on="0"/>
        <pt x="444" y="731" on="0"/>
        <pt x="477" y="731" on="1"/>
        <pt x="509" y="731" on="0"/>
        <pt x="555" y="707" on="0"/>
        <pt x="555" y="684" on="1"/>
        <pt x="555" y="230" on="1"/>
        <pt x="555" y="108" on="0"/>
        <pt x="417" y="-6" on="0"/>
        <pt x="303" y="-6" on="1"/>
        <pt x="188" y="-6" on="0"/>
        <pt x="51" y="108" on="0"/>
      </contour>
      <contour>
        <pt x="220" y="856" on="1"/>
        <pt x="220" y="881" on="0"/>
        <pt x="240" y="891" on="1"/>
        <pt x="380" y="956" on="1"/>
        <pt x="388" y="959" on="0"/>
        <pt x="394" y="959" on="1"/>
        <pt x="413" y="959" on="0"/>
        <pt x="441" y="922" on="0"/>
        <pt x="441" y="901" on="1"/>
        <pt x="441" y="877" on="0"/>
        <pt x="421" y="867" on="1"/>
        <pt x="281" y="802" on="1"/>
        <pt x="271" y="798" on="0"/>
        <pt x="266" y="798" on="1"/>
        <pt x="247" y="798" on="0"/>
        <pt x="220" y="835" on="0"/>
      </contour>
    </TTGlyph>
    <TTGlyph name="Ubreve" xMin="51" yMin="-6" xMax="555" yMax="963">
      <contour>
        <pt x="51" y="230" on="1"/>
        <pt x="51" y="684" on="1"/>
        <pt x="51" y="707" on="0"/>
        <pt x="96" y="731" on="0"/>
        <pt x="129" y="731" on="1"/>
        <pt x="161" y="731" on="0"/>
        <pt x="207" y="707" on="0"/>
        <pt x="207" y="684" on="1"/>
        <pt x="207" y="230" on="1"/>
        <pt x="207" y="130" on="0"/>
        <pt x="399" y="130" on="0"/>
        <pt x="399" y="230" on="1"/>
        <pt x="399" y="684" on="1"/>
        <pt x="399" y="707" on="0"/>
        <pt x="444" y="731" on="0"/>
        <pt x="477" y="731" on="1"/>
        <pt x="509" y="731" on="0"/>
        <pt x="555" y="707" on="0"/>
        <pt x="555" y="684" on="1"/>
        <pt x="555" y="230" on="1"/>
        <pt x="555" y="108" on="0"/>
        <pt x="417" y="-6" on="0"/>
        <pt x="303" y="-6" on="1"/>
        <pt x="188" y="-6" on="0"/>
        <pt x="51" y="108" on="0"/>
      </contour>
      <contour>
        <pt x="159" y="963" on="1"/>
        <pt x="239" y="963" on="1"/>
        <pt x="239" y="932" on="0"/>
        <pt x="276" y="890" on="0"/>
        <pt x="299" y="890" on="1"/>
        <pt x="321" y="890" on="0"/>
        <pt x="358" y="932" on="0"/>
        <pt x="358" y="963" on="1"/>
        <pt x="438" y="963" on="1"/>
        <pt x="438" y="908" on="0"/>
        <pt x="353" y="824" on="0"/>
        <pt x="245" y="824" on="0"/>
        <pt x="159" y="908" on="0"/>
      </contour>
    </TTGlyph>
    <TTGlyph name="Ucircumflex" xMin="51" yMin="-6" xMax="555" yMax="959">
      <contour>
        <pt x="51" y="230" on="1"/>
        <pt x="51" y="684" on="1"/>
        <pt x="51" y="707" on="0"/>
        <pt x="96" y="731" on="0"/>
        <pt x="129" y="731" on="1"/>
        <pt x="161" y="731" on="0"/>
        <pt x="207" y="707" on="0"/>
        <pt x="207" y="684" on="1"/>
        <pt x="207" y="230" on="1"/>
        <pt x="207" y="130" on="0"/>
        <pt x="399" y="130" on="0"/>
        <pt x="399" y="230" on="1"/>
        <pt x="399" y="684" on="1"/>
        <pt x="399" y="707" on="0"/>
        <pt x="444" y="731" on="0"/>
        <pt x="477" y="731" on="1"/>
        <pt x="509" y="731" on="0"/>
        <pt x="555" y="707" on="0"/>
        <pt x="555" y="684" on="1"/>
        <pt x="555" y="230" on="1"/>
        <pt x="555" y="108" on="0"/>
        <pt x="417" y="-6" on="0"/>
        <pt x="303" y="-6" on="1"/>
        <pt x="188" y="-6" on="0"/>
        <pt x="51" y="108" on="0"/>
      </contour>
      <contour>
        <pt x="150" y="854" on="1"/>
        <pt x="150" y="884" on="0"/>
        <pt x="175" y="898" on="1"/>
        <pt x="279" y="954" on="1"/>
        <pt x="289" y="959" on="0"/>
        <pt x="303" y="959" on="0"/>
        <pt x="313" y="954" on="1"/>
        <pt x="417" y="898" on="1"/>
        <pt x="442" y="884" on="0"/>
        <pt x="442" y="854" on="1"/>
        <pt x="442" y="836" on="0"/>
        <pt x="424" y="808" on="0"/>
        <pt x="411" y="808" on="1"/>
        <pt x="406" y="808" on="0"/>
        <pt x="400" y="811" on="1"/>
        <pt x="296" y="867" on="1"/>
        <pt x="192" y="811" on="1"/>
        <pt x="186" y="808" on="0"/>
        <pt x="181" y="808" on="1"/>
        <pt x="168" y="808" on="0"/>
        <pt x="150" y="836" on="0"/>
      </contour>
    </TTGlyph>
    <TTGlyph name="Udieresis" xMin="51" yMin="-6" xMax="555" yMax="927">
      <contour>
        <pt x="51" y="230" on="1"/>
        <pt x="51" y="684" on="1"/>
        <pt x="51" y="707" on="0"/>
        <pt x="96" y="731" on="0"/>
        <pt x="129" y="731" on="1"/>
        <pt x="161" y="731" on="0"/>
        <pt x="207" y="707" on="0"/>
        <pt x="207" y="684" on="1"/>
        <pt x="207" y="230" on="1"/>
        <pt x="207" y="130" on="0"/>
        <pt x="399" y="130" on="0"/>
        <pt x="399" y="230" on="1"/>
        <pt x="399" y="684" on="1"/>
        <pt x="399" y="707" on="0"/>
        <pt x="444" y="731" on="0"/>
        <pt x="477" y="731" on="1"/>
        <pt x="509" y="731" on="0"/>
        <pt x="555" y="707" on="0"/>
        <pt x="555" y="684" on="1"/>
        <pt x="555" y="230" on="1"/>
        <pt x="555" y="108" on="0"/>
        <pt x="417" y="-6" on="0"/>
        <pt x="303" y="-6" on="1"/>
        <pt x="188" y="-6" on="0"/>
        <pt x="51" y="108" on="0"/>
      </contour>
      <contour>
        <pt x="166" y="846" on="0"/>
        <pt x="166" y="892" on="0"/>
        <pt x="200" y="927" on="0"/>
        <pt x="246" y="927" on="0"/>
        <pt x="279" y="892" on="0"/>
        <pt x="279" y="869" on="1"/>
        <pt x="279" y="845" on="0"/>
        <pt x="246" y="810" on="0"/>
        <pt x="200" y="810" on="0"/>
      </contour>
      <contour>
        <pt x="326" y="846" on="0"/>
        <pt x="326" y="892" on="0"/>
        <pt x="360" y="927" on="0"/>
        <pt x="406" y="927" on="0"/>
        <pt x="439" y="892" on="0"/>
        <pt x="439" y="869" on="1"/>
        <pt x="439" y="845" on="0"/>
        <pt x="406" y="810" on="0"/>
        <pt x="360" y="810" on="0"/>
      </contour>
    </TTGlyph>
    <TTGlyph name="Ugrave" xMin="51" yMin="-6" xMax="555" yMax="959">
      <contour>
        <pt x="51" y="230" on="1"/>
        <pt x="51" y="684" on="1"/>
        <pt x="51" y="707" on="0"/>
        <pt x="96" y="731" on="0"/>
        <pt x="129" y="731" on="1"/>
        <pt x="161" y="731" on="0"/>
        <pt x="207" y="707" on="0"/>
        <pt x="207" y="684" on="1"/>
        <pt x="207" y="230" on="1"/>
        <pt x="207" y="130" on="0"/>
        <pt x="399" y="130" on="0"/>
        <pt x="399" y="230" on="1"/>
        <pt x="399" y="684" on="1"/>
        <pt x="399" y="707" on="0"/>
        <pt x="444" y="731" on="0"/>
        <pt x="477" y="731" on="1"/>
        <pt x="509" y="731" on="0"/>
        <pt x="555" y="707" on="0"/>
        <pt x="555" y="684" on="1"/>
        <pt x="555" y="230" on="1"/>
        <pt x="555" y="108" on="0"/>
        <pt x="417" y="-6" on="0"/>
        <pt x="303" y="-6" on="1"/>
        <pt x="188" y="-6" on="0"/>
        <pt x="51" y="108" on="0"/>
      </contour>
      <contour>
        <pt x="170" y="901" on="1"/>
        <pt x="170" y="922" on="0"/>
        <pt x="198" y="959" on="0"/>
        <pt x="217" y="959" on="1"/>
        <pt x="224" y="959" on="0"/>
        <pt x="231" y="956" on="1"/>
        <pt x="371" y="891" on="1"/>
        <pt x="391" y="881" on="0"/>
        <pt x="391" y="856" on="1"/>
        <pt x="391" y="835" on="0"/>
        <pt x="364" y="798" on="0"/>
        <pt x="345" y="798" on="1"/>
        <pt x="340" y="798" on="0"/>
        <pt x="330" y="802" on="1"/>
        <pt x="190" y="867" on="1"/>
        <pt x="170" y="877" on="0"/>
      </contour>
    </TTGlyph>
    <TTGlyph name="Uhungarumlaut" xMin="51" yMin="-6" xMax="555" yMax="961">
      <contour>
        <pt x="51" y="230" on="1"/>
        <pt x="51" y="684" on="1"/>
        <pt x="51" y="707" on="0"/>
        <pt x="96" y="731" on="0"/>
        <pt x="129" y="731" on="1"/>
        <pt x="161" y="731" on="0"/>
        <pt x="207" y="707" on="0"/>
        <pt x="207" y="684" on="1"/>
        <pt x="207" y="230" on="1"/>
        <pt x="207" y="130" on="0"/>
        <pt x="399" y="130" on="0"/>
        <pt x="399" y="230" on="1"/>
        <pt x="399" y="684" on="1"/>
        <pt x="399" y="707" on="0"/>
        <pt x="444" y="731" on="0"/>
        <pt x="477" y="731" on="1"/>
        <pt x="509" y="731" on="0"/>
        <pt x="555" y="707" on="0"/>
        <pt x="555" y="684" on="1"/>
        <pt x="555" y="230" on="1"/>
        <pt x="555" y="108" on="0"/>
        <pt x="417" y="-6" on="0"/>
        <pt x="303" y="-6" on="1"/>
        <pt x="188" y="-6" on="0"/>
        <pt x="51" y="108" on="0"/>
      </contour>
      <contour>
        <pt x="168" y="839" on="1"/>
        <pt x="168" y="848" on="0"/>
        <pt x="175" y="856" on="1"/>
        <pt x="254" y="951" on="1"/>
        <pt x="262" y="961" on="0"/>
        <pt x="276" y="961" on="1"/>
        <pt x="292" y="961" on="0"/>
        <pt x="320" y="932" on="0"/>
        <pt x="320" y="918" on="1"/>
        <pt x="320" y="908" on="0"/>
        <pt x="314" y="901" on="1"/>
        <pt x="235" y="806" on="1"/>
        <pt x="227" y="795" on="0"/>
        <pt x="214" y="795" on="1"/>
        <pt x="197" y="795" on="0"/>
        <pt x="168" y="824" on="0"/>
      </contour>
      <contour>
        <pt x="328" y="839" on="1"/>
        <pt x="328" y="848" on="0"/>
        <pt x="335" y="856" on="1"/>
        <pt x="414" y="951" on="1"/>
        <pt x="422" y="961" on="0"/>
        <pt x="436" y="961" on="1"/>
        <pt x="452" y="961" on="0"/>
        <pt x="480" y="932" on="0"/>
        <pt x="480" y="918" on="1"/>
        <pt x="480" y="908" on="0"/>
        <pt x="474" y="901" on="1"/>
        <pt x="395" y="806" on="1"/>
        <pt x="387" y="795" on="0"/>
        <pt x="374" y="795" on="1"/>
        <pt x="357" y="795" on="0"/>
        <pt x="328" y="824" on="0"/>
      </contour>
    </TTGlyph>
    <TTGlyph name="Umacron" xMin="51" yMin="-6" xMax="555" yMax="938">
      <contour>
        <pt x="51" y="230" on="1"/>
        <pt x="51" y="684" on="1"/>
        <pt x="51" y="707" on="0"/>
        <pt x="96" y="731" on="0"/>
        <pt x="129" y="731" on="1"/>
        <pt x="161" y="731" on="0"/>
        <pt x="207" y="707" on="0"/>
        <pt x="207" y="684" on="1"/>
        <pt x="207" y="230" on="1"/>
        <pt x="207" y="130" on="0"/>
        <pt x="399" y="130" on="0"/>
        <pt x="399" y="230" on="1"/>
        <pt x="399" y="684" on="1"/>
        <pt x="399" y="707" on="0"/>
        <pt x="444" y="731" on="0"/>
        <pt x="477" y="731" on="1"/>
        <pt x="509" y="731" on="0"/>
        <pt x="555" y="707" on="0"/>
        <pt x="555" y="684" on="1"/>
        <pt x="555" y="230" on="1"/>
        <pt x="555" y="108" on="0"/>
        <pt x="417" y="-6" on="0"/>
        <pt x="303" y="-6" on="1"/>
        <pt x="188" y="-6" on="0"/>
        <pt x="51" y="108" on="0"/>
      </contour>
      <contour>
        <pt x="153" y="888" on="1"/>
        <pt x="153" y="909" on="0"/>
        <pt x="179" y="938" on="0"/>
        <pt x="200" y="938" on="1"/>
        <pt x="400" y="938" on="1"/>
        <pt x="418" y="938" on="0"/>
        <pt x="448" y="908" on="0"/>
        <pt x="448" y="888" on="1"/>
        <pt x="448" y="867" on="0"/>
        <pt x="419" y="839" on="0"/>
        <pt x="400" y="839" on="1"/>
        <pt x="200" y="839" on="1"/>
        <pt x="179" y="839" on="0"/>
        <pt x="153" y="866" on="0"/>
      </contour>
    </TTGlyph>
    <TTGlyph name="Uogonek" xMin="51" yMin="-218" xMax="555" yMax="731">
      <contour>
        <pt x="51" y="230" on="1"/>
        <pt x="51" y="684" on="1"/>
        <pt x="51" y="707" on="0"/>
        <pt x="96" y="731" on="0"/>
        <pt x="129" y="731" on="1"/>
        <pt x="161" y="731" on="0"/>
        <pt x="207" y="707" on="0"/>
        <pt x="207" y="684" on="1"/>
        <pt x="207" y="230" on="1"/>
        <pt x="207" y="130" on="0"/>
        <pt x="399" y="130" on="0"/>
        <pt x="399" y="230" on="1"/>
        <pt x="399" y="684" on="1"/>
        <pt x="399" y="707" on="0"/>
        <pt x="444" y="731" on="0"/>
        <pt x="477" y="731" on="1"/>
        <pt x="509" y="731" on="0"/>
        <pt x="555" y="707" on="0"/>
        <pt x="555" y="684" on="1"/>
        <pt x="555" y="230" on="1"/>
        <pt x="555" y="54" on="0"/>
        <pt x="409" y="9" on="1"/>
        <pt x="376" y="-10" on="0"/>
        <pt x="330" y="-77" on="0"/>
        <pt x="330" y="-107" on="1"/>
        <pt x="330" y="-155" on="0"/>
        <pt x="388" y="-155" on="1"/>
        <pt x="413" y="-155" on="0"/>
        <pt x="413" y="-189" on="1"/>
        <pt x="413" y="-218" on="0"/>
        <pt x="382" y="-218" on="1"/>
        <pt x="319" y="-218" on="0"/>
        <pt x="257" y="-164" on="0"/>
        <pt x="257" y="-121" on="1"/>
        <pt x="257" y="-57" on="0"/>
        <pt x="310" y="-6" on="1"/>
        <pt x="303" y="-6" on="1"/>
        <pt x="188" y="-6" on="0"/>
        <pt x="51" y="108" on="0"/>
      </contour>
    </TTGlyph>
    <TTGlyph name="Uring" xMin="51" yMin="-6" xMax="555" yMax="1008">
      <contour>
        <pt x="51" y="230" on="1"/>
        <pt x="51" y="684" on="1"/>
        <pt x="51" y="707" on="0"/>
        <pt x="96" y="731" on="0"/>
        <pt x="129" y="731" on="1"/>
        <pt x="161" y="731" on="0"/>
        <pt x="207" y="707" on="0"/>
        <pt x="207" y="684" on="1"/>
        <pt x="207" y="230" on="1"/>
        <pt x="207" y="130" on="0"/>
        <pt x="399" y="130" on="0"/>
        <pt x="399" y="230" on="1"/>
        <pt x="399" y="684" on="1"/>
        <pt x="399" y="707" on="0"/>
        <pt x="444" y="731" on="0"/>
        <pt x="477" y="731" on="1"/>
        <pt x="509" y="731" on="0"/>
        <pt x="555" y="707" on="0"/>
        <pt x="555" y="684" on="1"/>
        <pt x="555" y="230" on="1"/>
        <pt x="555" y="108" on="0"/>
        <pt x="417" y="-6" on="0"/>
        <pt x="303" y="-6" on="1"/>
        <pt x="188" y="-6" on="0"/>
        <pt x="51" y="108" on="0"/>
      </contour>
      <contour>
        <pt x="202" y="907" on="1"/>
        <pt x="202" y="947" on="0"/>
        <pt x="260" y="1008" on="0"/>
        <pt x="301" y="1008" on="1"/>
        <pt x="341" y="1008" on="0"/>
        <pt x="402" y="947" on="0"/>
        <pt x="402" y="907" on="1"/>
        <pt x="402" y="866" on="0"/>
        <pt x="341" y="804" on="0"/>
        <pt x="261" y="804" on="0"/>
        <pt x="202" y="866" on="0"/>
      </contour>
      <contour>
        <pt x="261" y="906" on="1"/>
        <pt x="261" y="890" on="0"/>
        <pt x="285" y="864" on="0"/>
        <pt x="302" y="864" on="1"/>
        <pt x="318" y="864" on="0"/>
        <pt x="341" y="890" on="0"/>
        <pt x="341" y="906" on="1"/>
        <pt x="341" y="921" on="0"/>
        <pt x="318" y="945" on="0"/>
        <pt x="302" y="945" on="1"/>
        <pt x="285" y="945" on="0"/>
        <pt x="261" y="921" on="0"/>
      </contour>
    </TTGlyph>
    <TTGlyph name="Utilde" xMin="51" yMin="-6" xMax="555" yMax="946">
      <contour>
        <pt x="51" y="230" on="1"/>
        <pt x="51" y="684" on="1"/>
        <pt x="51" y="707" on="0"/>
        <pt x="96" y="731" on="0"/>
        <pt x="129" y="731" on="1"/>
        <pt x="161" y="731" on="0"/>
        <pt x="207" y="707" on="0"/>
        <pt x="207" y="684" on="1"/>
        <pt x="207" y="230" on="1"/>
        <pt x="207" y="130" on="0"/>
        <pt x="399" y="130" on="0"/>
        <pt x="399" y="230" on="1"/>
        <pt x="399" y="684" on="1"/>
        <pt x="399" y="707" on="0"/>
        <pt x="444" y="731" on="0"/>
        <pt x="477" y="731" on="1"/>
        <pt x="509" y="731" on="0"/>
        <pt x="555" y="707" on="0"/>
        <pt x="555" y="684" on="1"/>
        <pt x="555" y="230" on="1"/>
        <pt x="555" y="108" on="0"/>
        <pt x="417" y="-6" on="0"/>
        <pt x="303" y="-6" on="1"/>
        <pt x="188" y="-6" on="0"/>
        <pt x="51" y="108" on="0"/>
      </contour>
      <contour>
        <pt x="119" y="873" on="1"/>
        <pt x="119" y="946" on="0"/>
        <pt x="204" y="946" on="1"/>
        <pt x="235" y="946" on="0"/>
        <pt x="323" y="919" on="0"/>
        <pt x="350" y="919" on="1"/>
        <pt x="373" y="919" on="0"/>
        <pt x="427" y="940" on="0"/>
        <pt x="436" y="940" on="1"/>
        <pt x="456" y="940" on="0"/>
        <pt x="474" y="905" on="0"/>
        <pt x="474" y="891" on="1"/>
        <pt x="474" y="818" on="0"/>
        <pt x="389" y="818" on="1"/>
        <pt x="351" y="818" on="0"/>
        <pt x="264" y="845" on="0"/>
        <pt x="243" y="845" on="1"/>
        <pt x="220" y="845" on="0"/>
        <pt x="166" y="824" on="0"/>
        <pt x="157" y="824" on="1"/>
        <pt x="137" y="824" on="0"/>
        <pt x="119" y="859" on="0"/>
      </contour>
    </TTGlyph>
    <TTGlyph name="V" xMin="4" yMin="-6" xMax="585" yMax="731">
      <contour>
        <pt x="4" y="667" on="1"/>
        <pt x="4" y="693" on="0"/>
        <pt x="69" y="731" on="0"/>
        <pt x="104" y="731" on="1"/>
        <pt x="147" y="731" on="0"/>
        <pt x="155" y="702" on="1"/>
        <pt x="295" y="189" on="1"/>
        <pt x="434" y="702" on="1"/>
        <pt x="442" y="731" on="0"/>
        <pt x="485" y="731" on="1"/>
        <pt x="520" y="731" on="0"/>
        <pt x="585" y="693" on="0"/>
        <pt x="585" y="667" on="1"/>
        <pt x="585" y="664" on="0"/>
        <pt x="583" y="656" on="1"/>
        <pt x="397" y="46" on="1"/>
        <pt x="389" y="21" on="0"/>
        <pt x="332" y="-6" on="0"/>
        <pt x="258" y="-6" on="0"/>
        <pt x="201" y="21" on="0"/>
        <pt x="193" y="46" on="1"/>
        <pt x="6" y="656" on="1"/>
        <pt x="4" y="664" on="0"/>
      </contour>
    </TTGlyph>
    <TTGlyph name="W" xMin="3" yMin="-6" xMax="917" yMax="731">
      <contour>
        <pt x="3" y="669" on="1"/>
        <pt x="3" y="693" on="0"/>
        <pt x="68" y="731" on="0"/>
        <pt x="104" y="731" on="1"/>
        <pt x="146" y="731" on="0"/>
        <pt x="154" y="702" on="1"/>
        <pt x="306" y="189" on="1"/>
        <pt x="385" y="527" on="1"/>
        <pt x="389" y="546" on="0"/>
        <pt x="433" y="568" on="0"/>
        <pt x="487" y="568" on="0"/>
        <pt x="531" y="546" on="0"/>
        <pt x="535" y="527" on="1"/>
        <pt x="614" y="189" on="1"/>
        <pt x="766" y="702" on="1"/>
        <pt x="774" y="731" on="0"/>
        <pt x="816" y="731" on="1"/>
        <pt x="852" y="731" on="0"/>
        <pt x="917" y="693" on="0"/>
        <pt x="917" y="669" on="1"/>
        <pt x="917" y="662" on="0"/>
        <pt x="915" y="656" on="1"/>
        <pt x="716" y="46" on="1"/>
        <pt x="707" y="21" on="0"/>
        <pt x="650" y="-6" on="0"/>
        <pt x="576" y="-6" on="0"/>
        <pt x="518" y="21" on="0"/>
        <pt x="512" y="46" on="1"/>
        <pt x="460" y="283" on="1"/>
        <pt x="408" y="46" on="1"/>
        <pt x="402" y="21" on="0"/>
        <pt x="344" y="-6" on="0"/>
        <pt x="270" y="-6" on="0"/>
        <pt x="212" y="21" on="0"/>
        <pt x="204" y="46" on="1"/>
        <pt x="5" y="656" on="1"/>
        <pt x="3" y="662" on="0"/>
      </contour>
    </TTGlyph>
    <TTGlyph name="Wacute" xMin="3" yMin="-6" xMax="917" yMax="959">
      <contour>
        <pt x="3" y="669" on="1"/>
        <pt x="3" y="693" on="0"/>
        <pt x="68" y="731" on="0"/>
        <pt x="104" y="731" on="1"/>
        <pt x="146" y="731" on="0"/>
        <pt x="154" y="702" on="1"/>
        <pt x="306" y="189" on="1"/>
        <pt x="385" y="527" on="1"/>
        <pt x="389" y="546" on="0"/>
        <pt x="433" y="568" on="0"/>
        <pt x="487" y="568" on="0"/>
        <pt x="531" y="546" on="0"/>
        <pt x="535" y="527" on="1"/>
        <pt x="614" y="189" on="1"/>
        <pt x="766" y="702" on="1"/>
        <pt x="774" y="731" on="0"/>
        <pt x="816" y="731" on="1"/>
        <pt x="852" y="731" on="0"/>
        <pt x="917" y="693" on="0"/>
        <pt x="917" y="669" on="1"/>
        <pt x="917" y="662" on="0"/>
        <pt x="915" y="656" on="1"/>
        <pt x="716" y="46" on="1"/>
        <pt x="707" y="21" on="0"/>
        <pt x="650" y="-6" on="0"/>
        <pt x="576" y="-6" on="0"/>
        <pt x="518" y="21" on="0"/>
        <pt x="512" y="46" on="1"/>
        <pt x="460" y="283" on="1"/>
        <pt x="408" y="46" on="1"/>
        <pt x="402" y="21" on="0"/>
        <pt x="344" y="-6" on="0"/>
        <pt x="270" y="-6" on="0"/>
        <pt x="212" y="21" on="0"/>
        <pt x="204" y="46" on="1"/>
        <pt x="5" y="656" on="1"/>
        <pt x="3" y="662" on="0"/>
      </contour>
      <contour>
        <pt x="370" y="856" on="1"/>
        <pt x="370" y="881" on="0"/>
        <pt x="390" y="891" on="1"/>
        <pt x="530" y="956" on="1"/>
        <pt x="538" y="959" on="0"/>
        <pt x="544" y="959" on="1"/>
        <pt x="563" y="959" on="0"/>
        <pt x="591" y="922" on="0"/>
        <pt x="591" y="901" on="1"/>
        <pt x="591" y="877" on="0"/>
        <pt x="571" y="867" on="1"/>
        <pt x="431" y="802" on="1"/>
        <pt x="421" y="798" on="0"/>
        <pt x="416" y="798" on="1"/>
        <pt x="397" y="798" on="0"/>
        <pt x="370" y="835" on="0"/>
      </contour>
    </TTGlyph>
    <TTGlyph name="Wcircumflex" xMin="3" yMin="-6" xMax="917" yMax="959">
      <contour>
        <pt x="3" y="669" on="1"/>
        <pt x="3" y="693" on="0"/>
        <pt x="68" y="731" on="0"/>
        <pt x="104" y="731" on="1"/>
        <pt x="146" y="731" on="0"/>
        <pt x="154" y="702" on="1"/>
        <pt x="306" y="189" on="1"/>
        <pt x="385" y="527" on="1"/>
        <pt x="389" y="546" on="0"/>
        <pt x="433" y="568" on="0"/>
        <pt x="487" y="568" on="0"/>
        <pt x="531" y="546" on="0"/>
        <pt x="535" y="527" on="1"/>
        <pt x="614" y="189" on="1"/>
        <pt x="766" y="702" on="1"/>
        <pt x="774" y="731" on="0"/>
        <pt x="816" y="731" on="1"/>
        <pt x="852" y="731" on="0"/>
        <pt x="917" y="693" on="0"/>
        <pt x="917" y="669" on="1"/>
        <pt x="917" y="662" on="0"/>
        <pt x="915" y="656" on="1"/>
        <pt x="716" y="46" on="1"/>
        <pt x="707" y="21" on="0"/>
        <pt x="650" y="-6" on="0"/>
        <pt x="576" y="-6" on="0"/>
        <pt x="518" y="21" on="0"/>
        <pt x="512" y="46" on="1"/>
        <pt x="460" y="283" on="1"/>
        <pt x="408" y="46" on="1"/>
        <pt x="402" y="21" on="0"/>
        <pt x="344" y="-6" on="0"/>
        <pt x="270" y="-6" on="0"/>
        <pt x="212" y="21" on="0"/>
        <pt x="204" y="46" on="1"/>
        <pt x="5" y="656" on="1"/>
        <pt x="3" y="662" on="0"/>
      </contour>
      <contour>
        <pt x="314" y="854" on="1"/>
        <pt x="314" y="884" on="0"/>
        <pt x="339" y="898" on="1"/>
        <pt x="443" y="954" on="1"/>
        <pt x="453" y="959" on="0"/>
        <pt x="467" y="959" on="0"/>
        <pt x="477" y="954" on="1"/>
        <pt x="581" y="898" on="1"/>
        <pt x="606" y="884" on="0"/>
        <pt x="606" y="854" on="1"/>
        <pt x="606" y="836" on="0"/>
        <pt x="588" y="808" on="0"/>
        <pt x="575" y="808" on="1"/>
        <pt x="570" y="808" on="0"/>
        <pt x="564" y="811" on="1"/>
        <pt x="460" y="867" on="1"/>
        <pt x="356" y="811" on="1"/>
        <pt x="350" y="808" on="0"/>
        <pt x="345" y="808" on="1"/>
        <pt x="332" y="808" on="0"/>
        <pt x="314" y="836" on="0"/>
      </contour>
    </TTGlyph>
</ttFont>
